
<svg xmlns="http://www.w3.org/2000/svg" xmlns:xlink="http://www.w3.org/1999/xlink" id="body_1" width="36" height="36">

<g transform="matrix(0.140625 0 0 0.140625 0 0)">
	<g>
        <path d="M114.5 -0.5C 118.833 -0.5 123.167 -0.5 127.5 -0.5C 127.5 14.5 127.5 29.5 127.5 44.5C 125.692 44.4914 124.025 44.9914 122.5 46C 107.42 56.2906 92.2528 66.4573 77 76.5C 74.8993 80.4507 75.066 84.284 77.5 88C 81.8678 90.2156 85.8678 89.7156 89.5 86.5C 89.3334 100.837 89.5001 115.171 90 129.5C 91.0757 132.079 92.909 133.746 95.5 134.5C 105.987 135.494 116.654 135.828 127.5 135.5C 127.5 165.5 127.5 195.5 127.5 225.5C 125.173 225.753 123.173 225.086 121.5 223.5C 91.8712 193.591 68.7046 159.258 52 120.5C 39.2116 88.5684 42.545 58.5684 62 30.5C 75.9594 14.106 93.4594 3.77271 114.5 -0.5z" stroke="none" fill="#FE641A" fill-rule="nonzero" fill-opacity="0.9882353" />
	</g>
	<g>
        <path d="M127.5 -0.5C 131.833 -0.5 136.167 -0.5 140.5 -0.5C 179.885 8.19157 203.051 32.5249 210 72.5C 211.268 89.0182 208.935 105.018 203 120.5C 186.295 159.258 163.129 193.591 133.5 223.5C 131.827 225.086 129.827 225.753 127.5 225.5C 127.5 195.5 127.5 165.5 127.5 135.5C 138.172 135.667 148.839 135.5 159.5 135C 161.286 134.215 162.786 133.049 164 131.5C 165.467 116.597 165.967 101.597 165.5 86.5C 172.888 91.6662 177.888 89.9996 180.5 81.5C 180.281 80.062 179.781 78.7287 179 77.5C 162.441 65.4193 145.274 54.4193 127.5 44.5C 127.5 29.5 127.5 14.5 127.5 -0.5z" stroke="none" fill="#F03800" fill-rule="nonzero" />
	</g>
	<g>
        <path d="M127.5 44.5C 145.274 54.4193 162.441 65.4193 179 77.5C 179.781 78.7287 180.281 80.062 180.5 81.5C 177.888 89.9996 172.888 91.6662 165.5 86.5C 152.833 78.1667 140.167 69.8333 127.5 61.5C 127.5 55.8333 127.5 50.1667 127.5 44.5z" stroke="none" fill="#6E77E6" fill-rule="nonzero" />
	</g>
	<g>
        <path d="M127.5 44.5C 127.5 50.1667 127.5 55.8333 127.5 61.5C 126.508 61.3284 125.842 61.6618 125.5 62.5C 113.205 70.141 101.205 78.141 89.5 86.5C 85.8678 89.7156 81.8678 90.2156 77.5 88C 75.066 84.284 74.8993 80.4507 77 76.5C 92.2528 66.4573 107.42 56.2906 122.5 46C 124.025 44.9914 125.692 44.4914 127.5 44.5z" stroke="none" fill="#999EEB" fill-rule="nonzero" />
	</g>
	<g>
        <path d="M125.5 62.5C 125.842 61.6618 126.508 61.3284 127.5 61.5C 140.167 69.8333 152.833 78.1667 165.5 86.5C 165.967 101.597 165.467 116.597 164 131.5C 162.786 133.049 161.286 134.215 159.5 135C 148.839 135.5 138.172 135.667 127.5 135.5C 116.654 135.828 105.987 135.494 95.5 134.5C 106.167 134.5 116.833 134.5 127.5 134.5C 128.157 110.143 127.49 86.1434 125.5 62.5z" stroke="none" fill="#DFE4F1" fill-rule="nonzero" />
	</g>
	<g>
        <path d="M125.5 62.5C 127.49 86.1434 128.157 110.143 127.5 134.5C 116.833 134.5 106.167 134.5 95.5 134.5C 92.909 133.746 91.0757 132.079 90 129.5C 89.5001 115.171 89.3334 100.837 89.5 86.5C 101.205 78.141 113.205 70.141 125.5 62.5z" stroke="none" fill="#F0F5FC" fill-rule="nonzero" />
	</g>
	<g>
        <path d="M127.5 240.5C 127.5 245.5 127.5 250.5 127.5 255.5C 111.167 255.5 94.8333 255.5 78.5 255.5C 73.2029 250.618 73.2029 245.785 78.5 241C 94.8299 240.5 111.163 240.333 127.5 240.5z" stroke="none" fill="#C3EA20" fill-rule="nonzero" fill-opacity="0.9882353" />
	</g>
	<g>
        <path d="M127.5 240.5C 143.837 240.333 160.17 240.5 176.5 241C 181.689 245.753 181.689 250.587 176.5 255.5C 160.167 255.5 143.833 255.5 127.5 255.5C 127.5 250.5 127.5 245.5 127.5 240.5z" stroke="none" fill="#9CDD05" fill-rule="nonzero" />
	</g>
</g>
</svg>