
<svg xmlns="http://www.w3.org/2000/svg" version="1.1" width="30px" height="auto" style="shape-rendering:geometricPrecision; text-rendering:geometricPrecision; image-rendering:optimizeQuality; fill-rule:evenodd; clip-rule:evenodd" xmlns:xlink="http://www.w3.org/1999/xlink">
<g><path style="opacity:0.997" fill="#fe5756" d="M 238.5,-0.5 C 244.167,-0.5 249.833,-0.5 255.5,-0.5C 255.5,24.1667 255.5,48.8333 255.5,73.5C 221.829,77.1712 203.162,95.8378 199.5,129.5C 203.005,163.339 221.672,181.673 255.5,184.5C 255.5,253.167 255.5,321.833 255.5,390.5C 237.624,389.611 225.291,380.945 218.5,364.5C 212.736,354.63 206.736,344.963 200.5,335.5C 174.127,291.089 150.627,245.089 130,197.5C 103.656,134.883 114.823,80.0496 163.5,33C 185.36,14.7356 210.36,3.56891 238.5,-0.5 Z"/></g>
<g><path style="opacity:1" fill="#db0253" d="M 255.5,-0.5 C 261.167,-0.5 266.833,-0.5 272.5,-0.5C 319.815,6.65553 355.315,30.9889 379,72.5C 396.201,105.175 399.534,139.175 389,174.5C 377.862,206.908 364.195,238.241 348,268.5C 335.995,291.184 323.495,313.517 310.5,335.5C 304.264,344.963 298.264,354.63 292.5,364.5C 285.709,380.945 273.376,389.611 255.5,390.5C 255.5,321.833 255.5,253.167 255.5,184.5C 289.334,181.667 308,163.333 311.5,129.5C 307.838,95.8378 289.171,77.1712 255.5,73.5C 255.5,48.8333 255.5,24.1667 255.5,-0.5 Z"/></g>
<g><path style="opacity:0.977" fill="#c9def6" d="M 200.5,335.5 C 206.736,344.963 212.736,354.63 218.5,364.5C 194.797,366.062 171.463,369.895 148.5,376C 138.181,378.995 128.514,383.329 119.5,389C 117.993,389.837 117.493,391.004 118,392.5C 123.974,396.905 130.474,400.405 137.5,403C 175.934,414.721 215.268,420.221 255.5,419.5C 255.5,429.833 255.5,440.167 255.5,450.5C 212.249,451.136 169.916,445.302 128.5,433C 114.819,428.749 102.985,421.582 93,411.5C 83.4268,398.756 83.0934,385.756 92,372.5C 100.551,363.286 110.718,356.453 122.5,352C 147.75,342.983 173.75,337.483 200.5,335.5 Z"/></g>
<g><path style="opacity:1" fill="#aecef2" d="M 310.5,335.5 C 343.612,337.151 374.945,345.318 404.5,360C 417.142,366.795 424.142,377.295 425.5,391.5C 423.642,406.364 415.975,417.197 402.5,424C 375.525,436.495 347.192,444.161 317.5,447C 296.887,449.129 276.22,450.295 255.5,450.5C 255.5,440.167 255.5,429.833 255.5,419.5C 295.735,420.221 335.068,414.721 373.5,403C 380.526,400.405 387.026,396.905 393,392.5C 393.667,391.833 393.667,391.167 393,390.5C 383.73,383.95 373.563,379.117 362.5,376C 339.537,369.895 316.203,366.062 292.5,364.5C 298.264,354.63 304.264,344.963 310.5,335.5 Z"/></g>
<g><path style="opacity:0.977" fill="#c9dff7" d="M 255.5,481.5 C 255.5,491.5 255.5,501.5 255.5,511.5C 242.833,511.5 230.167,511.5 217.5,511.5C 174.914,509.125 132.914,502.292 91.5,491C 66.9575,484.059 44.2909,473.393 23.5,459C 12.029,449.732 4.02898,438.232 -0.5,424.5C -0.5,418.167 -0.5,411.833 -0.5,405.5C 3.64761,392.406 10.9809,381.239 21.5,372C 28.6545,366.253 36.3212,361.253 44.5,357C 56.9137,354.272 63.9137,359.105 65.5,371.5C 65.6505,375.883 64.3171,379.717 61.5,383C 52.1605,388.006 43.6605,394.172 36,401.5C 29.0937,409.566 28.7603,417.899 35,426.5C 44.352,436.096 55.1853,443.596 67.5,449C 107.316,464.953 148.649,474.62 191.5,478C 212.824,479.695 234.158,480.862 255.5,481.5 Z"/></g>
<g><path style="opacity:1" fill="#aecef2" d="M 511.5,405.5 C 511.5,411.833 511.5,418.167 511.5,424.5C 506.971,438.232 498.971,449.732 487.5,459C 464.695,474.898 439.695,486.231 412.5,493C 373.295,503.051 333.628,509.218 293.5,511.5C 280.833,511.5 268.167,511.5 255.5,511.5C 255.5,501.5 255.5,491.5 255.5,481.5C 304.529,481.464 352.863,475.63 400.5,464C 420.877,458.876 440.21,451.21 458.5,441C 467.667,435.833 474.833,428.667 480,419.5C 481.708,412.532 480.041,406.532 475,401.5C 467.34,394.172 458.84,388.006 449.5,383C 443.389,373.765 444.389,365.432 452.5,358C 457.076,356.524 461.743,356.19 466.5,357C 482.812,364.905 495.978,376.405 506,391.5C 508.158,396.159 509.991,400.825 511.5,405.5 Z"/></g>
</svg>
