<?xml version="1.0" standalone="no"?>
<!DOCTYPE svg PUBLIC "-//W3C//DTD SVG 1.0//EN" "http://www.w3.org/TR/2001/REC-SVG-20010904/DTD/svg10.dtd">
<svg xmlns="http://www.w3.org/2000/svg" id="body_1" width="46" height="46">

<g transform="matrix(0.08984375 0 0 0.08984375 0 0)">
	<g>
        <path d="M232.5 -0.5C 247.833 -0.5 263.167 -0.5 278.5 -0.5C 368.144 10.3879 435.644 54.7213 481 132.5C 497.695 163.971 507.861 197.304 511.5 232.5C 511.5 247.833 511.5 263.167 511.5 278.5C 510.573 284.177 509.573 289.844 508.5 295.5C 447.368 234.868 386.368 174.035 325.5 113C 324.906 112.536 324.239 112.369 323.5 112.5C 306.669 89.7495 284.002 78.0828 255.5 77.5C 220.17 79.2416 194.67 95.9083 179 127.5C 168.808 154.408 170.808 180.408 185 205.5C 195.337 218.201 205.17 231.201 214.5 244.5C 195.164 244.333 175.83 244.5 156.5 245C 150.681 260.8 145.014 276.633 139.5 292.5C 137.224 298.055 135.224 303.722 133.5 309.5C 122.943 337.514 113.277 365.514 104.5 393.5C 142.132 431.632 179.965 469.632 218 507.5C 218.464 508.094 218.631 508.761 218.5 509.5C 125.069 492.887 58.5693 441.554 19 355.5C 8.86392 330.621 2.36392 304.954 -0.5 278.5C -0.5 263.167 -0.5 247.833 -0.5 232.5C 10.3875 142.857 54.7208 75.3573 132.5 30C 163.971 13.3053 197.304 3.1386 232.5 -0.5z" stroke="none" fill="#537882" fill-rule="nonzero" fill-opacity="0.99607843" />
	</g>
	<g>
        <path d="M255.5 77.5C 255.5 92.8333 255.5 108.167 255.5 123.5C 238.259 124.71 226.426 133.377 220 149.5C 215.497 171.328 223.33 186.828 243.5 196C 247.395 197.266 251.395 197.766 255.5 197.5C 255.5 230.5 255.5 263.5 255.5 296.5C 241.833 279.167 228.167 261.833 214.5 244.5C 205.17 231.201 195.337 218.201 185 205.5C 170.808 180.408 168.808 154.408 179 127.5C 194.67 95.9083 220.17 79.2416 255.5 77.5z" stroke="none" fill="#FE641A" fill-rule="nonzero" />
	</g>
	<g>
        <path d="M255.5 77.5C 284.002 78.0828 306.669 89.7495 323.5 112.5C 339.453 136.353 342.953 162.019 334 189.5C 332.274 193.953 330.274 198.286 328 202.5C 317.283 216.377 306.783 230.377 296.5 244.5C 282.833 261.833 269.167 279.167 255.5 296.5C 255.5 263.5 255.5 230.5 255.5 197.5C 278.378 195.455 290.711 182.955 292.5 160C 289.62 138.287 277.287 126.121 255.5 123.5C 255.5 108.167 255.5 92.8333 255.5 77.5z" stroke="none" fill="#EF3800" fill-rule="nonzero" />
	</g>
	<g>
        <path d="M323.5 112.5C 324.239 112.369 324.906 112.536 325.5 113C 386.368 174.035 447.368 234.868 508.5 295.5C 495.04 372.292 455.707 431.792 390.5 474C 355.868 494.822 318.535 507.322 278.5 511.5C 263.167 511.5 247.833 511.5 232.5 511.5C 228.02 510.479 223.353 509.813 218.5 509.5C 218.631 508.761 218.464 508.094 218 507.5C 179.965 469.632 142.132 431.632 104.5 393.5C 127.167 393.5 149.833 393.5 172.5 393.5C 178.5 393.5 184.5 393.5 190.5 393.5C 212.167 393.5 233.833 393.5 255.5 393.5C 260.5 393.5 265.5 393.5 270.5 393.5C 279.5 393.5 288.5 393.5 297.5 393.5C 334.173 393.833 370.839 393.5 407.5 392.5C 397.825 365.805 388.158 339.138 378.5 312.5C 376.56 305.678 374.226 299.011 371.5 292.5C 366.328 276.484 360.661 260.65 354.5 245C 335.17 244.5 315.836 244.333 296.5 244.5C 306.783 230.377 317.283 216.377 328 202.5C 330.274 198.286 332.274 193.953 334 189.5C 342.953 162.019 339.453 136.353 323.5 112.5z" stroke="none" fill="#3E5959" fill-rule="nonzero" />
	</g>
	<g>
        <path d="M255.5 123.5C 277.287 126.121 289.62 138.287 292.5 160C 290.711 182.955 278.378 195.455 255.5 197.5C 251.395 197.766 247.395 197.266 243.5 196C 223.33 186.828 215.497 171.328 220 149.5C 226.426 133.377 238.259 124.71 255.5 123.5z" stroke="none" fill="#3F5958" fill-rule="nonzero" />
	</g>
	<g>
        <path d="M214.5 244.5C 228.167 261.833 241.833 279.167 255.5 296.5C 255.5 306.833 255.5 317.167 255.5 327.5C 216.833 315.833 178.166 304.166 139.5 292.5C 145.014 276.633 150.681 260.8 156.5 245C 175.83 244.5 195.164 244.333 214.5 244.5z" stroke="none" fill="#62D6A7" fill-rule="nonzero" />
	</g>
	<g>
        <path d="M296.5 244.5C 315.836 244.333 335.17 244.5 354.5 245C 360.661 260.65 366.328 276.484 371.5 292.5C 353.187 310.479 334.854 328.479 316.5 346.5C 296.215 339.96 275.882 333.627 255.5 327.5C 255.5 317.167 255.5 306.833 255.5 296.5C 269.167 279.167 282.833 261.833 296.5 244.5z" stroke="none" fill="#03AA93" fill-rule="nonzero" />
	</g>
	<g>
        <path d="M139.5 292.5C 178.166 304.166 216.833 315.833 255.5 327.5C 255.5 333.833 255.5 340.167 255.5 346.5C 233.788 340.322 212.121 333.989 190.5 327.5C 190.5 349.5 190.5 371.5 190.5 393.5C 184.5 393.5 178.5 393.5 172.5 393.5C 172.833 369.491 172.5 345.491 171.5 321.5C 158.882 317.294 146.216 313.294 133.5 309.5C 135.224 303.722 137.224 298.055 139.5 292.5z" stroke="none" fill="#FDD92E" fill-rule="nonzero" />
	</g>
	<g>
        <path d="M371.5 292.5C 374.226 299.011 376.56 305.678 378.5 312.5C 351.167 339.167 324.167 366.167 297.5 393.5C 288.5 393.5 279.5 393.5 270.5 393.5C 280.631 382.868 290.965 372.368 301.5 362C 286.392 356.554 271.059 351.721 255.5 347.5C 255.5 347.167 255.5 346.833 255.5 346.5C 255.5 340.167 255.5 333.833 255.5 327.5C 275.882 333.627 296.215 339.96 316.5 346.5C 334.854 328.479 353.187 310.479 371.5 292.5z" stroke="none" fill="#EBBF05" fill-rule="nonzero" />
	</g>
	<g>
        <path d="M133.5 309.5C 146.216 313.294 158.882 317.294 171.5 321.5C 172.5 345.491 172.833 369.491 172.5 393.5C 149.833 393.5 127.167 393.5 104.5 393.5C 113.277 365.514 122.943 337.514 133.5 309.5z" stroke="none" fill="#62D6A7" fill-rule="nonzero" />
	</g>
	<g>
        <path d="M378.5 312.5C 388.158 339.138 397.825 365.805 407.5 392.5C 370.839 393.5 334.173 393.833 297.5 393.5C 324.167 366.167 351.167 339.167 378.5 312.5z" stroke="none" fill="#00AA93" fill-rule="nonzero" />
	</g>
	<g>
        <path d="M255.5 346.5C 255.5 346.833 255.5 347.167 255.5 347.5C 255.5 362.833 255.5 378.167 255.5 393.5C 233.833 393.5 212.167 393.5 190.5 393.5C 190.5 371.5 190.5 349.5 190.5 327.5C 212.121 333.989 233.788 340.322 255.5 346.5z" stroke="none" fill="#61D7A7" fill-rule="nonzero" />
	</g>
	<g>
        <path d="M255.5 347.5C 271.059 351.721 286.392 356.554 301.5 362C 290.965 372.368 280.631 382.868 270.5 393.5C 265.5 393.5 260.5 393.5 255.5 393.5C 255.5 378.167 255.5 362.833 255.5 347.5z" stroke="none" fill="#03AB93" fill-rule="nonzero" />
	</g>
</g>
</svg>