<?xml version="1.0" standalone="no"?>
<!DOCTYPE svg PUBLIC "-//W3C//DTD SVG 1.0//EN" "http://www.w3.org/TR/2001/REC-SVG-20010904/DTD/svg10.dtd">
<svg xmlns="http://www.w3.org/2000/svg" xmlns:xlink="http://www.w3.org/1999/xlink" id="body_1" width="40" height="40">

<g transform="matrix(0.078125 0 0 0.078125 0 0)">
	<g>
        <path d="M251.5 -0.5C 256.833 -0.5 262.167 -0.5 267.5 -0.5C 253.329 9.15633 243.496 22.1563 238 38.5C 235.628 51.8675 238.128 64.2008 245.5 75.5C 197.34 60.6673 175.84 78.3339 181 128.5C 176.669 135.81 173.502 143.477 171.5 151.5C 169.007 150.226 166.341 149.56 163.5 149.5C 161.547 125.904 156.714 102.904 149 80.5C 148.333 77.1667 148.333 73.8333 149 70.5C 155.64 56.5268 166.473 47.6935 181.5 44C 185.213 39.3988 188.547 34.5654 191.5 29.5C 200.492 17.6999 212.159 9.5332 226.5 5C 234.874 2.69463 243.207 0.861293 251.5 -0.5z" stroke="none" fill="#45304C" fill-rule="nonzero" />
	</g>
	<g>
        <path d="M267.5 -0.5C 275.5 -0.5 283.5 -0.5 291.5 -0.5C 299.759 0.660924 308.093 2.16092 316.5 4C 318.309 8.57119 316.809 11.7379 312 13.5C 311.251 14.635 311.417 15.635 312.5 16.5C 325.736 20.6084 336.736 27.9418 345.5 38.5C 354.772 49.7067 361.439 62.3734 365.5 76.5C 359.929 89.043 355.429 102.043 352 115.5C 349.518 126.708 348.018 138.041 347.5 149.5C 344.505 149.294 341.838 149.96 339.5 151.5C 337.199 143.887 334.032 136.554 330 129.5C 333.978 76.3876 310.812 58.8876 260.5 77C 255.463 77.6631 250.463 77.4964 245.5 76.5C 245.5 76.1667 245.5 75.8333 245.5 75.5C 238.128 64.2008 235.628 51.8675 238 38.5C 243.496 22.1563 253.329 9.15633 267.5 -0.5z" stroke="none" fill="#56415E" fill-rule="nonzero" fill-opacity="0.99607843" />
	</g>
	<g>
        <path d="M191.5 29.5C 188.547 34.5654 185.213 39.3988 181.5 44C 166.473 47.6935 155.64 56.5268 149 70.5C 148.333 73.8333 148.333 77.1667 149 80.5C 156.714 102.904 161.547 125.904 163.5 149.5C 157.638 149.189 153.804 151.856 152 157.5C 151.333 160.833 151.333 164.167 152 167.5C 156.271 177.98 159.938 188.647 163 199.5C 166.093 203.795 170.26 205.462 175.5 204.5C 177.822 224.466 184.156 243.133 194.5 260.5C 177.73 268.718 161.73 278.218 146.5 289C 134.376 299.416 127.709 312.582 126.5 328.5C 112.294 333.958 97.9602 339.125 83.5 344C 61.916 350.75 47.916 364.917 41.5 386.5C 32.0006 370.158 24.6673 352.825 19.5 334.5C 45.3764 313.217 74.3764 297.05 106.5 286C 118.987 280.84 129.82 273.34 139 263.5C 145.378 255.015 147.045 245.682 144 235.5C 139.918 224.255 135.251 213.255 130 202.5C 124.931 191.344 122.931 179.678 124 167.5C 129.931 153.136 130.931 138.47 127 123.5C 119.692 106.691 108.525 93.0243 93.5 82.5C 121.696 57.0602 154.363 39.3936 191.5 29.5z" stroke="none" fill="#FE9000" fill-rule="nonzero" fill-opacity="0.99215686" />
	</g>
	<g>
        <path d="M345.5 38.5C 372.435 48.6217 396.435 63.2883 417.5 82.5C 401.448 93.6084 389.948 108.275 383 126.5C 381.477 134.102 381.144 141.768 382 149.5C 385.628 159.93 387.295 170.596 387 181.5C 385.61 188.671 383.61 195.671 381 202.5C 375.749 213.255 371.082 224.255 367 235.5C 363.955 245.682 365.622 255.015 372 263.5C 381.352 273.096 392.185 280.596 404.5 286C 429.725 295.112 453.391 307.112 475.5 322C 481.05 326.27 486.383 330.77 491.5 335.5C 486.057 353.379 478.724 370.379 469.5 386.5C 463.889 366.389 451.222 352.889 431.5 346C 415.694 340.455 400.027 334.621 384.5 328.5C 383.498 310.68 375.832 296.513 361.5 286C 347.131 276.147 332.131 267.313 316.5 259.5C 326.891 242.659 332.891 224.325 334.5 204.5C 340.269 205.366 344.769 203.366 348 198.5C 350.528 188.25 353.861 178.25 358 168.5C 358.879 163.713 358.545 159.047 357 154.5C 354.715 151.108 351.548 149.441 347.5 149.5C 348.018 138.041 349.518 126.708 352 115.5C 355.429 102.043 359.929 89.043 365.5 76.5C 361.439 62.3734 354.772 49.7067 345.5 38.5z" stroke="none" fill="#FE9001" fill-rule="nonzero" fill-opacity="0.99215686" />
	</g>
	<g>
        <path d="M245.5 75.5C 245.5 75.8333 245.5 76.1667 245.5 76.5C 239.947 81.2432 236.113 87.2432 234 94.5C 232.811 105.792 232.144 117.125 232 128.5C 228.185 135.132 225.185 142.132 223 149.5C 222.333 155.5 222.333 161.5 223 167.5C 225.029 186.549 227.362 205.549 230 224.5C 237.559 254.203 254.392 276.87 280.5 292.5C 288.354 288.639 295.354 283.639 301.5 277.5C 305.852 285.542 309.686 293.875 313 302.5C 318.288 326.228 313.788 347.894 299.5 367.5C 277.424 380.111 254.091 382.944 229.5 376C 223.661 373.916 218.327 371.083 213.5 367.5C 234.58 357.236 247.746 340.57 253 317.5C 253.897 311.194 254.397 304.861 254.5 298.5C 236.545 297.687 221.545 290.687 209.5 277.5C 204.128 272.13 199.128 266.463 194.5 260.5C 184.156 243.133 177.822 224.466 175.5 204.5C 173.927 186.865 172.594 169.199 171.5 151.5C 173.502 143.477 176.669 135.81 181 128.5C 175.84 78.3339 197.34 60.6673 245.5 75.5z" stroke="none" fill="#FED8A0" fill-rule="nonzero" />
	</g>
	<g>
        <path d="M339.5 151.5C 338.164 169.194 336.497 186.86 334.5 204.5C 332.891 224.325 326.891 242.659 316.5 259.5C 311.53 265.475 306.53 271.475 301.5 277.5C 295.354 283.639 288.354 288.639 280.5 292.5C 254.392 276.87 237.559 254.203 230 224.5C 227.362 205.549 225.029 186.549 223 167.5C 222.333 161.5 222.333 155.5 223 149.5C 225.185 142.132 228.185 135.132 232 128.5C 232.144 117.125 232.811 105.792 234 94.5C 236.113 87.2432 239.947 81.2432 245.5 76.5C 250.463 77.4964 255.463 77.6631 260.5 77C 310.812 58.8876 333.978 76.3876 330 129.5C 334.032 136.554 337.199 143.887 339.5 151.5z" stroke="none" fill="#FBE5C9" fill-rule="nonzero" />
	</g>
	<g>
        <path d="M93.5 82.5C 108.525 93.0243 119.692 106.691 127 123.5C 130.931 138.47 129.931 153.136 124 167.5C 122.931 179.678 124.931 191.344 130 202.5C 135.251 213.255 139.918 224.255 144 235.5C 147.045 245.682 145.378 255.015 139 263.5C 129.82 273.34 118.987 280.84 106.5 286C 74.3764 297.05 45.3764 313.217 19.5 334.5C -2.05727 251.111 13.7761 175.778 67 108.5C 75.0383 98.9611 83.8716 90.2945 93.5 82.5z" stroke="none" fill="#FFB231" fill-rule="nonzero" />
	</g>
	<g>
        <path d="M417.5 82.5C 463.194 122.869 490.361 173.536 499 234.5C 502.93 268.683 500.43 302.35 491.5 335.5C 486.383 330.77 481.05 326.27 475.5 322C 453.391 307.112 429.725 295.112 404.5 286C 392.185 280.596 381.352 273.096 372 263.5C 365.622 255.015 363.955 245.682 367 235.5C 371.082 224.255 375.749 213.255 381 202.5C 383.61 195.671 385.61 188.671 387 181.5C 387.295 170.596 385.628 159.93 382 149.5C 381.144 141.768 381.477 134.102 383 126.5C 389.948 108.275 401.448 93.6084 417.5 82.5z" stroke="none" fill="#FFB231" fill-rule="nonzero" />
	</g>
	<g>
        <path d="M347.5 149.5C 351.548 149.441 354.715 151.108 357 154.5C 358.545 159.047 358.879 163.713 358 168.5C 353.861 178.25 350.528 188.25 348 198.5C 344.769 203.366 340.269 205.366 334.5 204.5C 336.497 186.86 338.164 169.194 339.5 151.5C 341.838 149.96 344.505 149.294 347.5 149.5z" stroke="none" fill="#FED8A0" fill-rule="nonzero" />
	</g>
	<g>
        <path d="M163.5 149.5C 166.341 149.56 169.007 150.226 171.5 151.5C 172.594 169.199 173.927 186.865 175.5 204.5C 170.26 205.462 166.093 203.795 163 199.5C 159.938 188.647 156.271 177.98 152 167.5C 151.333 164.167 151.333 160.833 152 157.5C 153.804 151.856 157.638 149.189 163.5 149.5z" stroke="none" fill="#F8C889" fill-rule="nonzero" />
	</g>
	<g>
        <path d="M316.5 259.5C 332.131 267.313 347.131 276.147 361.5 286C 375.832 296.513 383.498 310.68 384.5 328.5C 383.716 351.242 373.382 368.075 353.5 379C 345.853 383.805 337.853 387.972 329.5 391.5C 328.833 414.33 328.167 436.996 327.5 459.5C 327.667 434.831 327.5 410.164 327 385.5C 323.49 380.211 318.99 379.211 313.5 382.5C 312.667 383.5 311.833 384.5 311 385.5C 310.501 390.155 310.334 394.821 310.5 399.5C 301.706 402.782 292.706 404.949 283.5 406C 280.977 404.64 278.977 402.807 277.5 400.5C 277.5 398.5 277.5 396.5 277.5 394.5C 277.709 393.078 278.209 391.745 279 390.5C 286.783 383.557 293.617 375.891 299.5 367.5C 313.788 347.894 318.288 326.228 313 302.5C 309.686 293.875 305.852 285.542 301.5 277.5C 306.53 271.475 311.53 265.475 316.5 259.5z" stroke="none" fill="#B26847" fill-rule="nonzero" />
	</g>
	<g>
        <path d="M194.5 260.5C 199.128 266.463 204.128 272.13 209.5 277.5C 206.618 284.266 203.451 290.933 200 297.5C 193.943 314.242 194.11 330.909 200.5 347.5C 194.013 348.328 187.346 348.828 180.5 349C 164.016 352.442 156.683 362.609 158.5 379.5C 137.446 369.065 126.779 352.065 126.5 328.5C 127.709 312.582 134.376 299.416 146.5 289C 161.73 278.218 177.73 268.718 194.5 260.5z" stroke="none" fill="#945230" fill-rule="nonzero" />
	</g>
	<g>
        <path d="M209.5 277.5C 221.545 290.687 236.545 297.687 254.5 298.5C 254.397 304.861 253.897 311.194 253 317.5C 247.746 340.57 234.58 357.236 213.5 367.5C 212.833 367.5 212.167 367.5 211.5 367.5C 206.964 361.301 203.298 354.634 200.5 347.5C 194.11 330.909 193.943 314.242 200 297.5C 203.451 290.933 206.618 284.266 209.5 277.5z" stroke="none" fill="#F8C889" fill-rule="nonzero" />
	</g>
	<g>
        <path d="M126.5 328.5C 126.779 352.065 137.446 369.065 158.5 379.5C 158.5 379.833 158.5 380.167 158.5 380.5C 141.189 381.996 127.355 389.663 117 403.5C 114.133 408.102 112.466 413.102 112 418.5C 111.5 434.163 111.333 449.83 111.5 465.5C 82.4808 444.151 59.1475 417.818 41.5 386.5C 47.916 364.917 61.916 350.75 83.5 344C 97.9602 339.125 112.294 333.958 126.5 328.5z" stroke="none" fill="#753616" fill-rule="nonzero" fill-opacity="0.99215686" />
	</g>
	<g>
        <path d="M384.5 328.5C 400.027 334.621 415.694 340.455 431.5 346C 451.222 352.889 463.889 366.389 469.5 386.5C 460.778 402.622 450.112 417.288 437.5 430.5C 432.899 413.406 422.899 400.572 407.5 392C 402.186 390.74 398.353 392.574 396 397.5C 395.5 421.164 395.333 444.831 395.5 468.5C 360.006 493 320.673 507 277.5 510.5C 277.5 473.833 277.5 437.167 277.5 400.5C 278.977 402.807 280.977 404.64 283.5 406C 292.706 404.949 301.706 402.782 310.5 399.5C 310.333 420.169 310.5 440.836 311 461.5C 314.438 468.05 319.271 469.216 325.5 465C 326.861 463.416 327.528 461.582 327.5 459.5C 328.167 436.996 328.833 414.33 329.5 391.5C 337.853 387.972 345.853 383.805 353.5 379C 373.382 368.075 383.716 351.242 384.5 328.5z" stroke="none" fill="#945230" fill-rule="nonzero" fill-opacity="0.99607843" />
	</g>
	<g>
        <path d="M200.5 347.5C 203.298 354.634 206.964 361.301 211.5 367.5C 217.049 375.556 223.549 382.89 231 389.5C 232.903 391.441 233.736 393.774 233.5 396.5C 233.5 397.833 233.5 399.167 233.5 400.5C 231.323 404.676 227.823 406.676 223 406.5C 215.964 405.21 209.13 403.21 202.5 400.5C 201.833 420.663 201.167 440.663 200.5 460.5C 200.667 435.164 200.5 409.831 200 384.5C 193.775 378.628 188.442 379.295 184 386.5C 183.505 388.473 183.338 390.473 183.5 392.5C 174.74 389.286 166.406 385.286 158.5 380.5C 158.5 380.167 158.5 379.833 158.5 379.5C 156.683 362.609 164.016 352.442 180.5 349C 187.346 348.828 194.013 348.328 200.5 347.5z" stroke="none" fill="#B26948" fill-rule="nonzero" />
	</g>
	<g>
        <path d="M211.5 367.5C 212.167 367.5 212.833 367.5 213.5 367.5C 218.327 371.083 223.661 373.916 229.5 376C 254.091 382.944 277.424 380.111 299.5 367.5C 293.617 375.891 286.783 383.557 279 390.5C 278.209 391.745 277.709 393.078 277.5 394.5C 276.523 397.287 276.19 400.287 276.5 403.5C 262.493 406.141 248.493 406.141 234.5 403.5C 234.802 400.941 234.468 398.607 233.5 396.5C 233.736 393.774 232.903 391.441 231 389.5C 223.549 382.89 217.049 375.556 211.5 367.5z" stroke="none" fill="#FEDC41" fill-rule="nonzero" />
	</g>
	<g>
        <path d="M158.5 380.5C 166.406 385.286 174.74 389.286 183.5 392.5C 183.333 415.502 183.5 438.502 184 461.5C 187.04 467.368 191.54 468.868 197.5 466C 199.16 464.512 200.16 462.679 200.5 460.5C 201.167 440.663 201.833 420.663 202.5 400.5C 209.13 403.21 215.964 405.21 223 406.5C 227.823 406.676 231.323 404.676 233.5 400.5C 233.5 437.167 233.5 473.833 233.5 510.5C 188.475 506.94 147.809 491.94 111.5 465.5C 111.333 449.83 111.5 434.163 112 418.5C 112.466 413.102 114.133 408.102 117 403.5C 127.355 389.663 141.189 381.996 158.5 380.5z" stroke="none" fill="#93512F" fill-rule="nonzero" fill-opacity="0.99607843" />
	</g>
	<g>
        <path d="M200.5 460.5C 200.16 462.679 199.16 464.512 197.5 466C 191.54 468.868 187.04 467.368 184 461.5C 183.5 438.502 183.333 415.502 183.5 392.5C 183.338 390.473 183.505 388.473 184 386.5C 188.442 379.295 193.775 378.628 200 384.5C 200.5 409.831 200.667 435.164 200.5 460.5z" stroke="none" fill="#DCEBFB" fill-rule="nonzero" />
	</g>
	<g>
        <path d="M327.5 459.5C 327.528 461.582 326.861 463.416 325.5 465C 319.271 469.216 314.438 468.05 311 461.5C 310.5 440.836 310.333 420.169 310.5 399.5C 310.334 394.821 310.501 390.155 311 385.5C 311.833 384.5 312.667 383.5 313.5 382.5C 318.99 379.211 323.49 380.211 327 385.5C 327.5 410.164 327.667 434.831 327.5 459.5z" stroke="none" fill="#DDEBFC" fill-rule="nonzero" />
	</g>
	<g>
        <path d="M437.5 430.5C 433.098 436.409 428.098 441.909 422.5 447C 413.913 454.761 404.913 461.927 395.5 468.5C 395.333 444.831 395.5 421.164 396 397.5C 398.353 392.574 402.186 390.74 407.5 392C 422.899 400.572 432.899 413.406 437.5 430.5z" stroke="none" fill="#753616" fill-rule="nonzero" />
	</g>
	<g>
        <path d="M277.5 394.5C 277.5 396.5 277.5 398.5 277.5 400.5C 277.5 437.167 277.5 473.833 277.5 510.5C 277.5 510.833 277.5 511.167 277.5 511.5C 262.833 511.5 248.167 511.5 233.5 511.5C 233.5 511.167 233.5 510.833 233.5 510.5C 233.5 473.833 233.5 437.167 233.5 400.5C 233.5 399.167 233.5 397.833 233.5 396.5C 234.468 398.607 234.802 400.941 234.5 403.5C 248.493 406.141 262.493 406.141 276.5 403.5C 276.19 400.287 276.523 397.287 277.5 394.5z" stroke="none" fill="#FCC538" fill-rule="nonzero" fill-opacity="0.99607843" />
	</g>
</g>
</svg>