<?xml version="1.0" standalone="no"?>
<!DOCTYPE svg PUBLIC "-//W3C//DTD SVG 1.0//EN" "http://www.w3.org/TR/2001/REC-SVG-20010904/DTD/svg10.dtd">
<svg className="hover:cursor-pointer" xmlns="http://www.w3.org/2000/svg" id="body_1" width="41" height="41">

	<g transform="matrix(0.080078125 0 0 0.080078125 0 0)">
		<g>
			<path d="M233.5 -0.5C 248.167 -0.5 262.833 -0.5 277.5 -0.5C 377.805 11.9821 449.305 63.9821 492 155.5C 502.297 180.687 508.797 206.687 511.5 233.5C 511.5 236.167 511.5 238.833 511.5 241.5C 455.785 186.118 400.119 130.785 344.5 75.5C 344.19 74.2617 343.69 74.2617 343 75.5C 335.488 89.1938 327.988 102.86 320.5 116.5C 299.506 96.3398 279.006 75.6731 259 54.5C 258.601 54.7284 258.435 55.0618 258.5 55.5C 257.521 54.2347 256.521 52.9014 255.5 51.5C 254.893 51.6236 254.56 51.9569 254.5 52.5C 241.405 77.0286 228.071 101.362 214.5 125.5C 200.595 109.423 186.095 93.7562 171 78.5C 170.601 78.7284 170.435 79.0618 170.5 79.5C 169.356 77.8998 168.189 76.2331 167 74.5C 138.5 126.833 110 179.167 81.5 231.5C 95.1667 232.167 108.833 232.833 122.5 233.5C 122.376 234.107 122.043 234.44 121.5 234.5C 108.673 233.34 95.6732 233.173 82.5 234C 91.0573 242.062 99.7239 249.896 108.5 257.5C 88.3042 292.055 67.9709 326.555 47.5 361C 47.7284 361.399 48.0618 361.565 48.5 361.5C 94.7986 408.299 141.299 454.965 188 501.5C 188.464 502.094 188.631 502.761 188.5 503.5C 109.619 479.808 53.1189 430.475 19 355.5C 8.70332 330.313 2.20332 304.313 -0.5 277.5C -0.5 262.833 -0.5 248.167 -0.5 233.5C 11.9821 133.195 63.9821 61.6947 155.5 19C 180.687 8.70332 206.687 2.20332 233.5 -0.5z" stroke="none" fill="#FEDE46" fill-rule="nonzero" fill-opacity="0.9882353" />
		</g>
		<g>
			<path d="M254.5 52.5C 254.56 51.9569 254.893 51.6236 255.5 51.5C 256.521 52.9014 257.521 54.2347 258.5 55.5C 273.754 85.0172 289.754 114.017 306.5 142.5C 322.152 173.301 338.485 203.801 355.5 234C 339.49 234.167 323.49 234.667 307.5 235.5C 332.178 277.528 356.845 319.528 381.5 361.5C 385.696 368.722 390.03 375.889 394.5 383C 388.843 383.499 383.176 383.666 377.5 383.5C 354.833 383.5 332.167 383.5 309.5 383.5C 304.833 383.5 300.167 383.5 295.5 383.5C 295.167 383.5 294.833 383.5 294.5 383.5C 281.5 383.5 268.5 383.5 255.5 383.5C 255.833 272.999 255.499 162.665 254.5 52.5z" stroke="none" fill="#00A753" fill-rule="nonzero" />
		</g>
		<g>
			<path d="M254.5 52.5C 255.499 162.665 255.833 272.999 255.5 383.5C 242.5 383.5 229.5 383.5 216.5 383.5C 211.5 383.5 206.5 383.5 201.5 383.5C 178.833 383.5 156.167 383.5 133.5 383.5C 127.824 383.666 122.157 383.499 116.5 383C 120.97 375.889 125.304 368.722 129.5 361.5C 154.14 319.563 178.807 277.563 203.5 235.5C 187.51 234.667 171.51 234.167 155.5 234C 172.24 204.019 188.573 173.852 204.5 143.5C 208.325 137.857 211.658 131.857 214.5 125.5C 228.071 101.362 241.405 77.0286 254.5 52.5z" stroke="none" fill="#01C278" fill-rule="nonzero" />
		</g>
		<g>
			<path d="M320.5 116.5C 315.833 125.167 311.167 133.833 306.5 142.5C 289.754 114.017 273.754 85.0172 258.5 55.5C 258.435 55.0618 258.601 54.7284 259 54.5C 279.006 75.6731 299.506 96.3398 320.5 116.5z" stroke="none" fill="#FCC001" fill-rule="nonzero" />
		</g>
		<g>
			<path d="M170.5 79.5C 181.846 100.86 193.179 122.194 204.5 143.5C 188.573 173.852 172.24 204.019 155.5 234C 171.51 234.167 187.51 234.667 203.5 235.5C 178.807 277.563 154.14 319.563 129.5 361.5C 102.5 361.5 75.5 361.5 48.5 361.5C 48.0618 361.565 47.7284 361.399 47.5 361C 67.9709 326.555 88.3042 292.055 108.5 257.5C 113.087 249.996 117.42 242.329 121.5 234.5C 122.043 234.44 122.376 234.107 122.5 233.5C 108.833 232.833 95.1667 232.167 81.5 231.5C 110 179.167 138.5 126.833 167 74.5C 168.189 76.2331 169.356 77.8998 170.5 79.5z" stroke="none" fill="#02A752" fill-rule="nonzero" />
		</g>
		<g>
			<path d="M344.5 75.5C 372.821 127.473 401.154 179.473 429.5 231.5C 415.833 232.167 402.167 232.833 388.5 233.5C 413.374 276.082 438.374 318.582 463.5 361C 436.169 361.5 408.835 361.667 381.5 361.5C 356.845 319.528 332.178 277.528 307.5 235.5C 323.49 234.667 339.49 234.167 355.5 234C 338.485 203.801 322.152 173.301 306.5 142.5C 311.167 133.833 315.833 125.167 320.5 116.5C 327.988 102.86 335.488 89.1938 343 75.5C 343.69 74.2617 344.19 74.2617 344.5 75.5z" stroke="none" fill="#027F3F" fill-rule="nonzero" />
		</g>
		<g>
			<path d="M344.5 75.5C 400.119 130.785 455.785 186.118 511.5 241.5C 511.5 253.5 511.5 265.5 511.5 277.5C 499.018 377.805 447.018 449.305 355.5 492C 330.313 502.297 304.313 508.797 277.5 511.5C 262.833 511.5 248.167 511.5 233.5 511.5C 218.49 509.634 203.49 506.968 188.5 503.5C 188.631 502.761 188.464 502.094 188 501.5C 141.299 454.965 94.7986 408.299 48.5 361.5C 75.5 361.5 102.5 361.5 129.5 361.5C 125.304 368.722 120.97 375.889 116.5 383C 122.157 383.499 127.824 383.666 133.5 383.5C 133.5 398.167 133.5 412.833 133.5 427.5C 156.167 427.5 178.833 427.5 201.5 427.5C 201.5 412.833 201.5 398.167 201.5 383.5C 206.5 383.5 211.5 383.5 216.5 383.5C 216.5 408.833 216.5 434.167 216.5 459.5C 242.661 460.498 268.995 460.831 295.5 460.5C 295.5 434.833 295.5 409.167 295.5 383.5C 300.167 383.5 304.833 383.5 309.5 383.5C 309.5 398.167 309.5 412.833 309.5 427.5C 332.167 427.5 354.833 427.5 377.5 427.5C 377.5 412.833 377.5 398.167 377.5 383.5C 383.176 383.666 388.843 383.499 394.5 383C 390.03 375.889 385.696 368.722 381.5 361.5C 408.835 361.667 436.169 361.5 463.5 361C 438.374 318.582 413.374 276.082 388.5 233.5C 402.167 232.833 415.833 232.167 429.5 231.5C 401.154 179.473 372.821 127.473 344.5 75.5z" stroke="none" fill="#FDBF00" fill-rule="nonzero" />
		</g>
		<g>
			<path d="M214.5 125.5C 211.658 131.857 208.325 137.857 204.5 143.5C 193.179 122.194 181.846 100.86 170.5 79.5C 170.435 79.0618 170.601 78.7284 171 78.5C 186.095 93.7562 200.595 109.423 214.5 125.5z" stroke="none" fill="#FBC001" fill-rule="nonzero" />
		</g>
		<g>
			<path d="M121.5 234.5C 117.42 242.329 113.087 249.996 108.5 257.5C 99.7239 249.896 91.0573 242.062 82.5 234C 95.6732 233.173 108.673 233.34 121.5 234.5z" stroke="none" fill="#FDC001" fill-rule="nonzero" />
		</g>
		<g>
			<path d="M133.5 383.5C 156.167 383.5 178.833 383.5 201.5 383.5C 201.5 398.167 201.5 412.833 201.5 427.5C 178.833 427.5 156.167 427.5 133.5 427.5C 133.5 412.833 133.5 398.167 133.5 383.5z" stroke="none" fill="#9A4C00" fill-rule="nonzero" />
		</g>
		<g>
			<path d="M216.5 383.5C 229.5 383.5 242.5 383.5 255.5 383.5C 255.5 408.833 255.5 434.167 255.5 459.5C 242.5 459.5 229.5 459.5 216.5 459.5C 216.5 434.167 216.5 408.833 216.5 383.5z" stroke="none" fill="#BF6200" fill-rule="nonzero" />
		</g>
		<g>
			<path d="M255.5 383.5C 268.5 383.5 281.5 383.5 294.5 383.5C 294.5 408.833 294.5 434.167 294.5 459.5C 281.5 459.5 268.5 459.5 255.5 459.5C 255.5 434.167 255.5 408.833 255.5 383.5z" stroke="none" fill="#994C00" fill-rule="nonzero" />
		</g>
		<g>
			<path d="M309.5 383.5C 332.167 383.5 354.833 383.5 377.5 383.5C 377.5 398.167 377.5 412.833 377.5 427.5C 354.833 427.5 332.167 427.5 309.5 427.5C 309.5 412.833 309.5 398.167 309.5 383.5z" stroke="none" fill="#703700" fill-rule="nonzero" />
		</g>
		<g>
			<path d="M294.5 383.5C 294.833 383.5 295.167 383.5 295.5 383.5C 295.5 409.167 295.5 434.833 295.5 460.5C 268.995 460.831 242.661 460.498 216.5 459.5C 229.5 459.5 242.5 459.5 255.5 459.5C 268.5 459.5 281.5 459.5 294.5 459.5C 294.5 434.167 294.5 408.833 294.5 383.5z" stroke="none" fill="#C97C00" fill-rule="nonzero" />
		</g>
	</g>
</svg>