<?xml version="1.0" standalone="no"?>
<!DOCTYPE svg PUBLIC "-//W3C//DTD SVG 1.0//EN" "http://www.w3.org/TR/2001/REC-SVG-20010904/DTD/svg10.dtd">
<svg xmlns="http://www.w3.org/2000/svg" xmlns:xlink="http://www.w3.org/1999/xlink" id="body_1" width="40" height="40">

<g transform="matrix(0.078125 0 0 0.078125 0 0)">
	<g>
        <path d="M232.5 -0.5C 240.167 -0.5 247.833 -0.5 255.5 -0.5C 255.5 29.1667 255.5 58.8333 255.5 88.5C 251.298 88.1832 247.298 88.5166 243.5 89.5C 197.171 96.6575 167.004 122.658 153 167.5C 144.287 209.024 155.12 244.524 185.5 274C 188.333 276.167 191.167 278.333 194 280.5C 194.464 281.094 194.631 281.761 194.5 282.5C 141.095 304.073 105.929 342.406 89 397.5C 84.4026 413.182 82.5693 429.182 83.5 445.5C 34.5231 400.547 6.52311 344.88 -0.5 278.5C -0.5 263.167 -0.5 247.833 -0.5 232.5C 10.3875 142.857 54.7208 75.3573 132.5 30C 163.971 13.3053 197.304 3.1386 232.5 -0.5z" stroke="none" fill="#FEAA20" fill-rule="nonzero" fill-opacity="0.99607843" />
	</g>
	<g>
        <path d="M255.5 -0.5C 263.167 -0.5 270.833 -0.5 278.5 -0.5C 368.144 10.3879 435.644 54.7213 481 132.5C 497.695 163.971 507.861 197.304 511.5 232.5C 511.5 247.833 511.5 263.167 511.5 278.5C 504.566 344.369 476.899 399.702 428.5 444.5C 426.082 376.129 395.415 324.963 336.5 291C 330.014 287.673 323.347 284.84 316.5 282.5C 326.093 274.069 334.926 264.735 343 254.5C 368.312 213.058 367.645 172.058 341 131.5C 319.338 103.752 290.838 89.4187 255.5 88.5C 255.5 58.8333 255.5 29.1667 255.5 -0.5z" stroke="none" fill="#FE8900" fill-rule="nonzero" />
	</g>
	<g>
        <path d="M243.5 89.5C 247.298 88.5166 251.298 88.1832 255.5 88.5C 290.838 89.4187 319.338 103.752 341 131.5C 367.645 172.058 368.312 213.058 343 254.5C 334.926 264.735 326.093 274.069 316.5 282.5C 310.619 284.774 304.952 287.607 299.5 291C 285.458 297.042 270.792 300.208 255.5 300.5C 255.5 230.167 255.5 159.833 255.5 89.5C 251.5 89.5 247.5 89.5 243.5 89.5z" stroke="none" fill="#FEC373" fill-rule="nonzero" />
	</g>
	<g>
        <path d="M243.5 89.5C 247.5 89.5 251.5 89.5 255.5 89.5C 255.5 159.833 255.5 230.167 255.5 300.5C 242.025 300.505 229.025 298.005 216.5 293C 209.225 289.194 201.891 285.694 194.5 282.5C 194.631 281.761 194.464 281.094 194 280.5C 191.167 278.333 188.333 276.167 185.5 274C 155.12 244.524 144.287 209.024 153 167.5C 167.004 122.658 197.171 96.6575 243.5 89.5z" stroke="none" fill="#FEDAA8" fill-rule="nonzero" />
	</g>
	<g>
        <path d="M194.5 282.5C 201.891 285.694 209.225 289.194 216.5 293C 229.025 298.005 242.025 300.505 255.5 300.5C 255.5 370.833 255.5 441.167 255.5 511.5C 248.167 511.5 240.833 511.5 233.5 511.5C 176.14 505.811 126.14 483.811 83.5 445.5C 82.5693 429.182 84.4026 413.182 89 397.5C 105.929 342.406 141.095 304.073 194.5 282.5z" stroke="none" fill="#7985EA" fill-rule="nonzero" />
	</g>
	<g>
        <path d="M316.5 282.5C 323.347 284.84 330.014 287.673 336.5 291C 395.415 324.963 426.082 376.129 428.5 444.5C 385.7 483.392 335.367 505.725 277.5 511.5C 270.167 511.5 262.833 511.5 255.5 511.5C 255.5 441.167 255.5 370.833 255.5 300.5C 270.792 300.208 285.458 297.042 299.5 291C 304.952 287.607 310.619 284.774 316.5 282.5z" stroke="none" fill="#4C5BE5" fill-rule="nonzero" />
	</g>
</g>
</svg>