<?xml version="1.0" standalone="no"?>
<!DOCTYPE svg PUBLIC "-//W3C//DTD SVG 1.0//EN" "http://www.w3.org/TR/2001/REC-SVG-20010904/DTD/svg10.dtd">
<svg xmlns="http://www.w3.org/2000/svg" xmlns:xlink="http://www.w3.org/1999/xlink" id="body_1" width="36" height="36">

<g transform="matrix(0.140625 0 0 0.140625 0 0)">
	<g>
        <path d="M111.5 -0.5C 122.167 -0.5 132.833 -0.5 143.5 -0.5C 197.548 8.7041 233.382 39.3708 251 91.5C 252.715 98.2585 254.215 104.925 255.5 111.5C 255.5 115.5 255.5 119.5 255.5 123.5C 228.452 96.785 201.452 70.1183 174.5 43.5C 170.517 37.4932 165.183 35.9932 158.5 39C 152.626 45.9668 153.293 52.1335 160.5 57.5C 164.4 62.9076 168.9 67.9076 174 72.5C 174.186 75.0356 174.686 77.369 175.5 79.5C 200.833 105.5 226.5 131.167 252.5 156.5C 252.737 157.791 252.404 158.791 251.5 159.5C 251.631 158.761 251.464 158.094 251 157.5C 210.857 117.524 171.023 77.5241 131.5 37.5C 129.736 38.326 128.402 39.6593 127.5 41.5C 123.473 44.8604 119.806 48.5271 116.5 52.5C 111.5 47.8333 106.5 43.1667 101.5 38.5C 98.0381 37.5184 94.3714 37.185 90.5 37.5C 90.5 40.8333 90.5 44.1667 90.5 47.5C 95.8333 53.1667 101.167 58.8333 106.5 64.5C 102.135 70.5235 97.8013 76.5235 93.5 82.5C 88.8333 78.1667 84.1667 73.8333 79.5 69.5C 76.1667 69.5 72.8333 69.5 69.5 69.5C 69.5 72.8333 69.5 76.1667 69.5 79.5C 74.5 85.1667 79.8333 90.5 85.5 95.5C 83.5793 100.761 81.746 106.094 80 111.5C 79.8333 113.5 79.6667 115.5 79.5 117.5C 80.0825 122.913 81.0825 128.247 82.5 133.5C 82.5858 134.496 82.2524 135.329 81.5 136C 75.9553 138.275 70.6219 140.775 65.5 143.5C 47.8503 150.161 43.6836 161.828 53 178.5C 55.4784 180.639 57.9784 182.639 60.5 184.5C 60.0618 184.435 59.7284 184.601 59.5 185C 83.0349 208.368 106.368 231.868 129.5 255.5C 123.5 255.5 117.5 255.5 111.5 255.5C 57.4517 246.296 21.6184 215.629 4 163.5C 2.28494 156.741 0.784944 150.075 -0.5 143.5C -0.5 132.833 -0.5 122.167 -0.5 111.5C 8.7041 57.4517 39.3708 21.6184 91.5 4C 98.2585 2.28494 104.925 0.784944 111.5 -0.5z" stroke="none" fill="#537882" fill-rule="nonzero" fill-opacity="0.99215686" />
	</g>
	<g>
        <path d="M101.5 38.5C 101.5 41.5 101.5 44.5 101.5 47.5C 97.8333 47.5 94.1667 47.5 90.5 47.5C 90.5 44.1667 90.5 40.8333 90.5 37.5C 94.3714 37.185 98.0381 37.5184 101.5 38.5z" stroke="none" fill="#F6761A" fill-rule="nonzero" />
	</g>
	<g>
        <path d="M174.5 43.5C 176.167 54.5 171.5 59.1667 160.5 57.5C 153.293 52.1335 152.626 45.9668 158.5 39C 165.183 35.9932 170.517 37.4932 174.5 43.5z" stroke="none" fill="#F94C04" fill-rule="nonzero" />
	</g>
	<g>
        <path d="M101.5 38.5C 106.5 43.1667 111.5 47.8333 116.5 52.5C 113.514 56.817 110.18 60.817 106.5 64.5C 101.167 58.8333 95.8333 53.1667 90.5 47.5C 94.1667 47.5 97.8333 47.5 101.5 47.5C 101.5 44.5 101.5 41.5 101.5 38.5z" stroke="none" fill="#415958" fill-rule="nonzero" />
	</g>
	<g>
        <path d="M131.5 37.5C 133.258 51.2323 135.425 64.899 138 78.5C 139.733 80.6015 141.733 80.9348 144 79.5C 145.73 75.0838 147.23 70.5838 148.5 66C 148.85 64.7425 149.517 64.4092 150.5 65C 163.534 80.2352 171.867 97.7352 175.5 117.5C 174.977 123.258 173.977 128.925 172.5 134.5C 167.245 145.657 159.245 154.324 148.5 160.5C 144.615 161.905 140.615 162.905 136.5 163.5C 145.391 158.047 149.225 150.047 148 139.5C 142.598 127.692 136.431 116.358 129.5 105.5C 127.529 84.3984 126.862 63.065 127.5 41.5C 128.402 39.6593 129.736 38.326 131.5 37.5z" stroke="none" fill="#FD4B01" fill-rule="nonzero" />
	</g>
	<g>
        <path d="M131.5 37.5C 171.023 77.5241 210.857 117.524 251 157.5C 251.464 158.094 251.631 158.761 251.5 159.5C 241.595 198.25 218.595 226.416 182.5 244C 169.878 249.567 156.878 253.4 143.5 255.5C 138.833 255.5 134.167 255.5 129.5 255.5C 106.368 231.868 83.0349 208.368 59.5 185C 59.7284 184.601 60.0618 184.435 60.5 184.5C 68.2704 186.465 75.6038 185.465 82.5 181.5C 90.4309 177.968 98.4309 174.635 106.5 171.5C 106.5 177.833 106.5 184.167 106.5 190.5C 104.953 208.598 112.953 217.598 130.5 217.5C 139.542 216.294 145.376 211.294 148 202.5C 148.499 198.514 148.666 194.514 148.5 190.5C 148.5 184.167 148.5 177.833 148.5 171.5C 156.5 174.833 164.5 178.167 172.5 181.5C 181.578 186.873 190.578 186.707 199.5 181C 206.925 172.852 208.425 163.686 204 153.5C 200.394 148.396 195.561 145.062 189.5 143.5C 183.675 140.755 178.008 137.755 172.5 134.5C 173.977 128.925 174.977 123.258 175.5 117.5C 171.867 97.7352 163.534 80.2352 150.5 65C 149.517 64.4092 148.85 64.7425 148.5 66C 147.23 70.5838 145.73 75.0838 144 79.5C 141.733 80.9348 139.733 80.6015 138 78.5C 135.425 64.899 133.258 51.2323 131.5 37.5z" stroke="none" fill="#3E5959" fill-rule="nonzero" />
	</g>
	<g>
        <path d="M127.5 41.5C 126.862 63.065 127.529 84.3984 129.5 105.5C 128.167 105.5 127.5 106.167 127.5 107.5C 120.08 116.444 113.58 126.11 108 136.5C 105.314 148.445 109.147 157.445 119.5 163.5C 101.774 160.103 89.4402 150.103 82.5 133.5C 81.0825 128.247 80.0825 122.913 79.5 117.5C 79.6667 115.5 79.8333 113.5 80 111.5C 81.746 106.094 83.5793 100.761 85.5 95.5C 88.4032 91.3699 91.0699 87.0366 93.5 82.5C 97.8013 76.5235 102.135 70.5235 106.5 64.5C 110.18 60.817 113.514 56.817 116.5 52.5C 119.806 48.5271 123.473 44.8604 127.5 41.5z" stroke="none" fill="#FE7816" fill-rule="nonzero" />
	</g>
	<g>
        <path d="M174.5 43.5C 201.452 70.1183 228.452 96.785 255.5 123.5C 255.5 130.167 255.5 136.833 255.5 143.5C 254.598 147.758 253.598 152.091 252.5 156.5C 226.5 131.167 200.833 105.5 175.5 79.5C 174.686 77.369 174.186 75.0356 174 72.5C 168.9 67.9076 164.4 62.9076 160.5 57.5C 171.5 59.1667 176.167 54.5 174.5 43.5z" stroke="none" fill="#3F5959" fill-rule="nonzero" />
	</g>
	<g>
        <path d="M79.5 69.5C 79.5 72.8333 79.5 76.1667 79.5 79.5C 76.1667 79.5 72.8333 79.5 69.5 79.5C 69.5 76.1667 69.5 72.8333 69.5 69.5C 72.8333 69.5 76.1667 69.5 79.5 69.5z" stroke="none" fill="#FE7815" fill-rule="nonzero" />
	</g>
	<g>
        <path d="M175.5 79.5C 175.5 76.1667 175.5 72.8333 175.5 69.5C 178.833 69.5 182.167 69.5 185.5 69.5C 185.5 72.8333 185.5 76.1667 185.5 79.5C 182.167 79.5 178.833 79.5 175.5 79.5z" stroke="none" fill="#FE4B00" fill-rule="nonzero" />
	</g>
	<g>
        <path d="M79.5 69.5C 84.1667 73.8333 88.8333 78.1667 93.5 82.5C 91.0699 87.0366 88.4032 91.3699 85.5 95.5C 79.8333 90.5 74.5 85.1667 69.5 79.5C 72.8333 79.5 76.1667 79.5 79.5 79.5C 79.5 76.1667 79.5 72.8333 79.5 69.5z" stroke="none" fill="#445A57" fill-rule="nonzero" />
	</g>
	<g>
        <path d="M129.5 105.5C 136.431 116.358 142.598 127.692 148 139.5C 149.225 150.047 145.391 158.047 136.5 163.5C 133.545 164.159 130.545 164.492 127.5 164.5C 127.5 145.5 127.5 126.5 127.5 107.5C 127.5 106.167 128.167 105.5 129.5 105.5z" stroke="none" fill="#FDBE00" fill-rule="nonzero" />
	</g>
	<g>
        <path d="M127.5 107.5C 127.5 126.5 127.5 145.5 127.5 164.5C 124.763 164.599 122.096 164.265 119.5 163.5C 109.147 157.445 105.314 148.445 108 136.5C 113.58 126.11 120.08 116.444 127.5 107.5z" stroke="none" fill="#FFD200" fill-rule="nonzero" />
	</g>
	<g>
        <path d="M82.5 133.5C 89.4402 150.103 101.774 160.103 119.5 163.5C 122.096 164.265 124.763 164.599 127.5 164.5C 130.545 164.492 133.545 164.159 136.5 163.5C 140.615 162.905 144.615 161.905 148.5 160.5C 148.5 164.167 148.5 167.833 148.5 171.5C 148.5 177.833 148.5 184.167 148.5 190.5C 144.57 181.241 137.57 176.241 127.5 175.5C 117.43 176.241 110.43 181.241 106.5 190.5C 106.5 184.167 106.5 177.833 106.5 171.5C 98.4309 174.635 90.4309 177.968 82.5 181.5C 93.4991 169.673 93.1657 158.173 81.5 147C 76.5661 144.062 71.2328 142.895 65.5 143.5C 70.6219 140.775 75.9553 138.275 81.5 136C 82.2524 135.329 82.5858 134.496 82.5 133.5z" stroke="none" fill="#B7634D" fill-rule="nonzero" />
	</g>
	<g>
        <path d="M172.5 134.5C 178.008 137.755 183.675 140.755 189.5 143.5C 172.226 143.607 164.059 152.274 165 169.5C 166.247 174.337 168.747 178.337 172.5 181.5C 164.5 178.167 156.5 174.833 148.5 171.5C 148.5 167.833 148.5 164.167 148.5 160.5C 159.245 154.324 167.245 145.657 172.5 134.5z" stroke="none" fill="#9A513D" fill-rule="nonzero" />
	</g>
	<g>
        <path d="M65.5 143.5C 71.2328 142.895 76.5661 144.062 81.5 147C 93.1657 158.173 93.4991 169.673 82.5 181.5C 75.6038 185.465 68.2704 186.465 60.5 184.5C 57.9784 182.639 55.4784 180.639 53 178.5C 43.6836 161.828 47.8503 150.161 65.5 143.5z" stroke="none" fill="#FDCCBD" fill-rule="nonzero" />
	</g>
	<g>
        <path d="M189.5 143.5C 195.561 145.062 200.394 148.396 204 153.5C 208.425 163.686 206.925 172.852 199.5 181C 190.578 186.707 181.578 186.873 172.5 181.5C 168.747 178.337 166.247 174.337 165 169.5C 164.059 152.274 172.226 143.607 189.5 143.5z" stroke="none" fill="#FCB79A" fill-rule="nonzero" />
	</g>
	<g>
        <path d="M64.5 154.5C 76.8856 153.377 81.3856 158.71 78 170.5C 70.3436 177.768 64.0102 176.768 59 167.5C 58.1138 161.946 59.9471 157.613 64.5 154.5z" stroke="none" fill="#FFB99C" fill-rule="nonzero" />
	</g>
	<g>
        <path d="M181.5 154.5C 194.47 153.785 198.636 159.452 194 171.5C 186.914 177.351 180.914 176.351 176 168.5C 174.268 162.314 176.101 157.647 181.5 154.5z" stroke="none" fill="#FF9469" fill-rule="nonzero" />
	</g>
	<g>
        <path d="M127.5 175.5C 127.5 179.167 127.5 182.833 127.5 186.5C 120.937 186.897 117.604 190.397 117.5 197C 117.559 203.56 120.892 207.06 127.5 207.5C 127.5 210.833 127.5 214.167 127.5 217.5C 128.5 217.5 129.5 217.5 130.5 217.5C 112.953 217.598 104.953 208.598 106.5 190.5C 110.43 181.241 117.43 176.241 127.5 175.5z" stroke="none" fill="#FBCBBC" fill-rule="nonzero" />
	</g>
	<g>
        <path d="M127.5 175.5C 137.57 176.241 144.57 181.241 148.5 190.5C 148.666 194.514 148.499 198.514 148 202.5C 145.376 211.294 139.542 216.294 130.5 217.5C 129.5 217.5 128.5 217.5 127.5 217.5C 127.5 214.167 127.5 210.833 127.5 207.5C 137.192 205.45 140.025 199.784 136 190.5C 133.859 187.679 131.025 186.346 127.5 186.5C 127.5 182.833 127.5 179.167 127.5 175.5z" stroke="none" fill="#FDB89B" fill-rule="nonzero" />
	</g>
	<g>
        <path d="M127.5 186.5C 127.5 193.5 127.5 200.5 127.5 207.5C 120.892 207.06 117.559 203.56 117.5 197C 117.604 190.397 120.937 186.897 127.5 186.5z" stroke="none" fill="#FFB99C" fill-rule="nonzero" />
	</g>
	<g>
        <path d="M127.5 186.5C 131.025 186.346 133.859 187.679 136 190.5C 140.025 199.784 137.192 205.45 127.5 207.5C 127.5 200.5 127.5 193.5 127.5 186.5z" stroke="none" fill="#FF9469" fill-rule="nonzero" />
	</g>
</g>
</svg>