<?xml version="1.0" standalone="no"?>
<!DOCTYPE svg PUBLIC "-//W3C//DTD SVG 1.0//EN" "http://www.w3.org/TR/2001/REC-SVG-20010904/DTD/svg10.dtd">
<svg xmlns="http://www.w3.org/2000/svg" id="body_1" width="36" height="36">

<g transform="matrix(0.140625 0 0 0.140625 0 0)">
	<g>
        <path d="M111.5 -0.5C 122.167 -0.5 132.833 -0.5 143.5 -0.5C 197.548 8.7041 233.382 39.3708 251 91.5C 252.715 98.2585 254.215 104.925 255.5 111.5C 255.5 122.167 255.5 132.833 255.5 143.5C 253.75 154.497 250.75 165.163 246.5 175.5C 218.919 146.417 190.752 117.751 162 89.5C 161.502 92.4816 161.335 95.4816 161.5 98.5C 160.521 95.3752 160.187 92.0419 160.5 88.5C 159.167 88.5 157.833 88.5 156.5 88.5C 144.5 75.4905 132.166 63.4905 119.5 52.5C 114.823 42.6622 107.157 38.9955 96.5 41.5C 89.7274 50.2591 83.394 59.2591 77.5 68.5C 69.6807 78.1363 62.3474 88.1363 55.5 98.5C 51.942 103.262 48.6086 108.262 45.5 113.5C 47.8815 116.548 50.5482 119.215 53.5 121.5C 73.2913 142.8 93.958 163.967 115.5 185C 118.146 185.497 120.813 185.664 123.5 185.5C 123.5 189.167 123.5 192.833 123.5 196.5C 106.991 196.83 90.6581 196.496 74.5 195.5C 90.5 195.5 106.5 195.5 122.5 195.5C 122.5 192.5 122.5 189.5 122.5 186.5C 106.5 186.5 90.5 186.5 74.5 186.5C 86.6599 185.669 98.9932 185.169 111.5 185C 105.631 178.964 99.6314 173.13 93.5 167.5C 77.3419 166.504 61.0085 166.17 44.5 166.5C 44.1872 170.042 44.5206 173.375 45.5 176.5C 71.5 202.833 97.5 229.167 123.5 255.5C 119.5 255.5 115.5 255.5 111.5 255.5C 57.4517 246.296 21.6184 215.629 4 163.5C 2.28494 156.741 0.784944 150.075 -0.5 143.5C -0.5 132.833 -0.5 122.167 -0.5 111.5C 8.7041 57.4517 39.3708 21.6184 91.5 4C 98.2585 2.28494 104.925 0.784944 111.5 -0.5z" stroke="none" fill="#537883" fill-rule="nonzero" fill-opacity="0.99215686" />
	</g>
	<g>
        <path d="M119.5 52.5C 120.176 61.5259 122.843 69.8592 127.5 77.5C 127.5 103.5 127.5 129.5 127.5 155.5C 113.897 145.237 100.564 134.57 87.5 123.5C 87.9526 119.307 89.1192 115.307 91 111.5C 94.0128 94.7094 89.5128 80.376 77.5 68.5C 83.394 59.2591 89.7274 50.2591 96.5 41.5C 107.157 38.9955 114.823 42.6622 119.5 52.5z" stroke="none" fill="#60D6A7" fill-rule="nonzero" />
	</g>
	<g>
        <path d="M156.5 88.5C 152.085 88.6946 147.751 88.1946 143.5 87C 137.648 84.5793 132.315 81.4126 127.5 77.5C 122.843 69.8592 120.176 61.5259 119.5 52.5C 132.166 63.4905 144.5 75.4905 156.5 88.5z" stroke="none" fill="#3E5959" fill-rule="nonzero" />
	</g>
	<g>
        <path d="M77.5 68.5C 89.5128 80.376 94.0128 94.7094 91 111.5C 89.1192 115.307 87.9526 119.307 87.5 123.5C 76.8333 115.167 66.1667 106.833 55.5 98.5C 62.3474 88.1363 69.6807 78.1363 77.5 68.5z" stroke="none" fill="#05AB94" fill-rule="nonzero" />
	</g>
	<g>
        <path d="M127.5 77.5C 132.315 81.4126 137.648 84.5793 143.5 87C 147.751 88.1946 152.085 88.6946 156.5 88.5C 157.833 88.5 159.167 88.5 160.5 88.5C 160.187 92.0419 160.521 95.3752 161.5 98.5C 161.5 101.167 161.5 103.833 161.5 106.5C 154.37 108.767 147.37 111.433 140.5 114.5C 141.543 117.501 143.043 120.168 145 122.5C 151.467 120.014 157.967 117.68 164.5 115.5C 166.25 116.659 167.25 118.326 167.5 120.5C 162.69 125.464 158.19 130.464 154 135.5C 156 137.5 158 139.5 160 141.5C 164.703 136.965 169.203 132.298 173.5 127.5C 175.167 128.5 176.5 129.833 177.5 131.5C 173.577 137.668 170.577 144.001 168.5 150.5C 170.972 152.251 173.639 153.085 176.5 153C 179.861 147.448 182.527 141.614 184.5 135.5C 202.774 143.046 211.774 156.713 211.5 176.5C 191.497 176.667 171.497 176.5 151.5 176C 143.959 169.62 136.292 163.453 128.5 157.5C 127.662 157.158 127.328 156.492 127.5 155.5C 127.5 129.5 127.5 103.5 127.5 77.5z" stroke="none" fill="#07AB94" fill-rule="nonzero" />
	</g>
	<g>
        <path d="M246.5 175.5C 226.734 220.933 192.401 247.6 143.5 255.5C 136.833 255.5 130.167 255.5 123.5 255.5C 97.5 229.167 71.5 202.833 45.5 176.5C 61.5 176.5 77.5 176.5 93.5 176.5C 93.5 173.5 93.5 170.5 93.5 167.5C 99.6314 173.13 105.631 178.964 111.5 185C 98.9932 185.169 86.6599 185.669 74.5 186.5C 74.5 189.5 74.5 192.5 74.5 195.5C 90.6581 196.496 106.991 196.83 123.5 196.5C 123.5 192.833 123.5 189.167 123.5 185.5C 120.813 185.664 118.146 185.497 115.5 185C 93.958 163.967 73.2913 142.8 53.5 121.5C 78.5 141.5 103.5 161.5 128.5 181.5C 133.723 186.789 139.39 191.623 145.5 196C 167.497 196.5 189.497 196.667 211.5 196.5C 211.5 189.833 211.5 183.167 211.5 176.5C 211.774 156.713 202.774 143.046 184.5 135.5C 182.031 134.431 179.698 133.098 177.5 131.5C 176.5 129.833 175.167 128.5 173.5 127.5C 171.471 125.142 169.471 122.808 167.5 120.5C 167.25 118.326 166.25 116.659 164.5 115.5C 164.095 112.285 163.095 109.285 161.5 106.5C 161.5 103.833 161.5 101.167 161.5 98.5C 161.335 95.4816 161.502 92.4816 162 89.5C 190.752 117.751 218.919 146.417 246.5 175.5z" stroke="none" fill="#3E5959" fill-rule="nonzero" />
	</g>
	<g>
        <path d="M55.5 98.5C 66.1667 106.833 76.8333 115.167 87.5 123.5C 100.564 134.57 113.897 145.237 127.5 155.5C 127.328 156.492 127.662 157.158 128.5 157.5C 128.5 165.5 128.5 173.5 128.5 181.5C 103.5 161.5 78.5 141.5 53.5 121.5C 50.5482 119.215 47.8815 116.548 45.5 113.5C 48.6086 108.262 51.942 103.262 55.5 98.5z" stroke="none" fill="#DBEAEF" fill-rule="nonzero" />
	</g>
	<g>
        <path d="M161.5 106.5C 163.095 109.285 164.095 112.285 164.5 115.5C 157.967 117.68 151.467 120.014 145 122.5C 143.043 120.168 141.543 117.501 140.5 114.5C 147.37 111.433 154.37 108.767 161.5 106.5z" stroke="none" fill="#C1D1DB" fill-rule="nonzero" />
	</g>
	<g>
        <path d="M167.5 120.5C 169.471 122.808 171.471 125.142 173.5 127.5C 169.203 132.298 164.703 136.965 160 141.5C 158 139.5 156 137.5 154 135.5C 158.19 130.464 162.69 125.464 167.5 120.5z" stroke="none" fill="#C0D1DA" fill-rule="nonzero" />
	</g>
	<g>
        <path d="M177.5 131.5C 179.698 133.098 182.031 134.431 184.5 135.5C 182.527 141.614 179.861 147.448 176.5 153C 173.639 153.085 170.972 152.251 168.5 150.5C 170.577 144.001 173.577 137.668 177.5 131.5z" stroke="none" fill="#C1D1DB" fill-rule="nonzero" />
	</g>
	<g>
        <path d="M128.5 157.5C 136.292 163.453 143.959 169.62 151.5 176C 171.497 176.5 191.497 176.667 211.5 176.5C 211.5 183.167 211.5 189.833 211.5 196.5C 189.497 196.667 167.497 196.5 145.5 196C 139.39 191.623 133.723 186.789 128.5 181.5C 128.5 173.5 128.5 165.5 128.5 157.5z" stroke="none" fill="#C3D1DB" fill-rule="nonzero" />
	</g>
	<g>
        <path d="M93.5 167.5C 93.5 170.5 93.5 173.5 93.5 176.5C 77.5 176.5 61.5 176.5 45.5 176.5C 44.5206 173.375 44.1872 170.042 44.5 166.5C 61.0085 166.17 77.3419 166.504 93.5 167.5z" stroke="none" fill="#C1D0DA" fill-rule="nonzero" />
	</g>
	<g>
        <path d="M74.5 186.5C 90.5 186.5 106.5 186.5 122.5 186.5C 122.5 189.5 122.5 192.5 122.5 195.5C 106.5 195.5 90.5 195.5 74.5 195.5C 74.5 192.5 74.5 189.5 74.5 186.5z" stroke="none" fill="#C4D3DC" fill-rule="nonzero" />
	</g>
</g>
</svg>