<?xml version="1.0" standalone="no"?>
<!DOCTYPE svg PUBLIC "-//W3C//DTD SVG 1.0//EN" "http://www.w3.org/TR/2001/REC-SVG-20010904/DTD/svg10.dtd">
<svg xmlns="http://www.w3.org/2000/svg" xmlns:xlink="http://www.w3.org/1999/xlink" id="body_1" width="36" height="36">

<g transform="matrix(0.140625 0 0 0.140625 0 0)">
	<g>
        <path d="M111.5 -0.5C 122.167 -0.5 132.833 -0.5 143.5 -0.5C 197.548 8.7041 233.382 39.3708 251 91.5C 252.715 98.2585 254.215 104.925 255.5 111.5C 255.5 118.5 255.5 125.5 255.5 132.5C 234.368 111.868 213.368 91.035 192.5 70C 191.906 69.5357 191.239 69.369 190.5 69.5C 187.553 65.0582 183.553 61.8915 178.5 60C 169.833 59.3333 161.167 59.3333 152.5 60C 155.8 70.0689 158.8 80.2355 161.5 90.5C 155.158 90.6662 148.825 90.4995 142.5 90C 135.965 83.2973 129.298 76.7973 122.5 70.5C 109.833 69.1667 97.1667 69.1667 84.5 70.5C 84.5 73.8333 84.5 77.1667 84.5 80.5C 87.1667 80.5 89.8333 80.5 92.5 80.5C 94.6843 85.7044 97.0177 90.8711 99.5 96C 93.6097 106.288 87.6097 116.455 81.5 126.5C 60.192 119.77 45.3587 126.77 37 147.5C 34.3333 163.033 39.5 175.033 52.5 183.5C 52.369 184.239 52.5357 184.906 53 185.5C 76.3683 208.701 99.5349 232.035 122.5 255.5C 118.833 255.5 115.167 255.5 111.5 255.5C 57.4517 246.296 21.6184 215.629 4 163.5C 2.28494 156.741 0.784944 150.075 -0.5 143.5C -0.5 132.833 -0.5 122.167 -0.5 111.5C 8.7041 57.4517 39.3708 21.6184 91.5 4C 98.2585 2.28494 104.925 0.784944 111.5 -0.5z" stroke="none" fill="#FED92C" fill-rule="nonzero" fill-opacity="0.99215686" />
	</g>
	<g>
        <path d="M190.5 69.5C 194.234 75.7191 194.401 82.0524 191 88.5C 188.579 87.0394 186.079 85.7061 183.5 84.5C 183.21 79.9113 181.877 75.7446 179.5 72C 178.255 71.2086 176.922 70.7086 175.5 70.5C 172.645 69.1968 169.645 69.1968 166.5 70.5C 166.624 71.1067 166.957 71.44 167.5 71.5C 169.481 78.0893 171.147 84.7559 172.5 91.5C 168.833 91.5 165.167 91.5 161.5 91.5C 161.5 91.1667 161.5 90.8333 161.5 90.5C 158.8 80.2355 155.8 70.0689 152.5 60C 161.167 59.3333 169.833 59.3333 178.5 60C 183.553 61.8915 187.553 65.0582 190.5 69.5z" stroke="none" fill="#415A57" fill-rule="nonzero" />
	</g>
	<g>
        <path d="M84.5 70.5C 97.1667 69.1667 109.833 69.1667 122.5 70.5C 122.813 74.0419 122.479 77.3752 121.5 80.5C 121.5 77.1667 121.5 73.8333 121.5 70.5C 109.167 70.5 96.8333 70.5 84.5 70.5z" stroke="none" fill="#A6A655" fill-rule="nonzero" />
	</g>
	<g>
        <path d="M175.5 70.5C 172.615 70.1936 169.948 70.5269 167.5 71.5C 166.957 71.44 166.624 71.1067 166.5 70.5C 169.645 69.1968 172.645 69.1968 175.5 70.5z" stroke="none" fill="#8A8532" fill-rule="nonzero" />
	</g>
	<g>
        <path d="M84.5 70.5C 96.8333 70.5 109.167 70.5 121.5 70.5C 121.5 73.8333 121.5 77.1667 121.5 80.5C 115.833 80.5 110.167 80.5 104.5 80.5C 100.5 80.5 96.5 80.5 92.5 80.5C 89.8333 80.5 87.1667 80.5 84.5 80.5C 84.5 77.1667 84.5 73.8333 84.5 70.5z" stroke="none" fill="#547982" fill-rule="nonzero" />
	</g>
	<g>
        <path d="M190.5 69.5C 191.239 69.369 191.906 69.5357 192.5 70C 213.368 91.035 234.368 111.868 255.5 132.5C 255.5 136.167 255.5 139.833 255.5 143.5C 246.296 197.548 215.629 233.382 163.5 251C 156.741 252.715 150.075 254.215 143.5 255.5C 136.5 255.5 129.5 255.5 122.5 255.5C 99.5349 232.035 76.3683 208.701 53 185.5C 52.5357 184.906 52.369 184.239 52.5 183.5C 66.9807 190.198 80.1474 188.198 92 177.5C 94.6822 174.135 96.8488 170.469 98.5 166.5C 109.172 166.667 119.839 166.5 130.5 166C 140.886 163.075 145.052 156.242 143 145.5C 141.694 142.379 139.86 139.713 137.5 137.5C 146.431 127.067 155.931 117.067 166 107.5C 168.275 114.158 170.442 120.825 172.5 127.5C 160.353 132.931 154.353 142.431 154.5 156C 156.333 175.167 166.833 185.667 186 187.5C 209.191 184.788 219.858 171.788 218 148.5C 212.443 131.466 200.61 123.133 182.5 123.5C 179.765 112.536 176.432 101.869 172.5 91.5C 171.147 84.7559 169.481 78.0893 167.5 71.5C 169.948 70.5269 172.615 70.1936 175.5 70.5C 176.922 70.7086 178.255 71.2086 179.5 72C 181.877 75.7446 183.21 79.9113 183.5 84.5C 186.079 85.7061 188.579 87.0394 191 88.5C 194.401 82.0524 194.234 75.7191 190.5 69.5z" stroke="none" fill="#EDBE00" fill-rule="nonzero" />
	</g>
	<g>
        <path d="M122.5 70.5C 129.298 76.7973 135.965 83.2973 142.5 90C 148.825 90.4995 155.158 90.6662 161.5 90.5C 161.5 90.8333 161.5 91.1667 161.5 91.5C 144.163 91.6666 126.83 91.4999 109.5 91C 108.361 89.2196 107.361 87.3863 106.5 85.5C 105.559 83.9505 104.893 82.2838 104.5 80.5C 110.167 80.5 115.833 80.5 121.5 80.5C 122.479 77.3752 122.813 74.0419 122.5 70.5z" stroke="none" fill="#EDBD04" fill-rule="nonzero" />
	</g>
	<g>
        <path d="M92.5 80.5C 96.5 80.5 100.5 80.5 104.5 80.5C 104.893 82.2838 105.559 83.9505 106.5 85.5C 105.216 93.3713 105.216 101.371 106.5 109.5C 105.883 109.389 105.383 109.056 105 108.5C 100.156 116.195 95.3225 123.861 90.5 131.5C 87.6884 129.592 84.6884 127.925 81.5 126.5C 87.6097 116.455 93.6097 106.288 99.5 96C 97.0177 90.8711 94.6843 85.7044 92.5 80.5z" stroke="none" fill="#FD661A" fill-rule="nonzero" />
	</g>
	<g>
        <path d="M106.5 85.5C 107.361 87.3863 108.361 89.2196 109.5 91C 126.83 91.4999 144.163 91.6666 161.5 91.5C 165.167 91.5 168.833 91.5 172.5 91.5C 176.432 101.869 179.765 112.536 182.5 123.5C 183.692 127.302 185.025 130.969 186.5 134.5C 187.036 138.314 188.036 141.981 189.5 145.5C 185.556 145.113 181.889 145.78 178.5 147.5C 177.101 144.301 176.101 140.968 175.5 137.5C 174.193 134.275 173.193 130.941 172.5 127.5C 170.442 120.825 168.275 114.158 166 107.5C 155.931 117.067 146.431 127.067 137.5 137.5C 131.719 134.024 125.386 132.691 118.5 133.5C 114.5 125.5 110.5 117.5 106.5 109.5C 105.216 101.371 105.216 93.3713 106.5 85.5z" stroke="none" fill="#EF3B00" fill-rule="nonzero" />
	</g>
	<g>
        <path d="M115.5 102.5C 128.504 102.333 141.504 102.5 154.5 103C 146.364 112.137 137.864 120.97 129 129.5C 123.962 120.757 119.462 111.757 115.5 102.5z" stroke="none" fill="#EEBD00" fill-rule="nonzero" />
	</g>
	<g>
        <path d="M106.5 109.5C 110.5 117.5 114.5 125.5 118.5 133.5C 109.114 133.78 99.7803 133.447 90.5 132.5C 90.5 132.167 90.5 131.833 90.5 131.5C 95.3225 123.861 100.156 116.195 105 108.5C 105.383 109.056 105.883 109.389 106.5 109.5z" stroke="none" fill="#EEBC00" fill-rule="nonzero" />
	</g>
	<g>
        <path d="M81.5 126.5C 84.6884 127.925 87.6884 129.592 90.5 131.5C 90.5 131.833 90.5 132.167 90.5 132.5C 90.8333 133.167 91.1667 133.833 91.5 134.5C 86.2709 134.015 81.2709 134.682 76.5 136.5C 63.4628 131.797 53.9628 135.797 48 148.5C 44.6747 161.53 49.1747 170.697 61.5 176C 72.2388 178.595 80.5722 175.428 86.5 166.5C 90.5 166.5 94.5 166.5 98.5 166.5C 96.8488 170.469 94.6822 174.135 92 177.5C 80.1474 188.198 66.9807 190.198 52.5 183.5C 39.5 175.033 34.3333 163.033 37 147.5C 45.3587 126.77 60.192 119.77 81.5 126.5z" stroke="none" fill="#567A81" fill-rule="nonzero" />
	</g>
	<g>
        <path d="M182.5 123.5C 200.61 123.133 212.443 131.466 218 148.5C 219.858 171.788 209.191 184.788 186 187.5C 166.833 185.667 156.333 175.167 154.5 156C 154.353 142.431 160.353 132.931 172.5 127.5C 173.193 130.941 174.193 134.275 175.5 137.5C 163.725 145.691 161.558 156.024 169 168.5C 177.134 176.954 186.634 178.788 197.5 174C 210.732 163.379 211.732 151.712 200.5 139C 196.353 135.962 191.686 134.462 186.5 134.5C 185.025 130.969 183.692 127.302 182.5 123.5z" stroke="none" fill="#415A57" fill-rule="nonzero" />
	</g>
	<g>
        <path d="M90.5 132.5C 99.7803 133.447 109.114 133.78 118.5 133.5C 114.702 134.483 110.702 134.817 106.5 134.5C 101.5 134.5 96.5 134.5 91.5 134.5C 91.1667 133.833 90.8333 133.167 90.5 132.5z" stroke="none" fill="#D7BF56" fill-rule="nonzero" />
	</g>
	<g>
        <path d="M91.5 134.5C 96.5 134.5 101.5 134.5 106.5 134.5C 106.5 144.833 106.5 155.167 106.5 165.5C 103.615 165.194 100.948 165.527 98.5 166.5C 94.5 166.5 90.5 166.5 86.5 166.5C 74.0708 165.572 68.2374 158.906 69 146.5C 70.2939 142.238 72.7939 138.905 76.5 136.5C 81.2709 134.682 86.2709 134.015 91.5 134.5z" stroke="none" fill="#C4D2DB" fill-rule="nonzero" />
	</g>
	<g>
        <path d="M118.5 133.5C 125.386 132.691 131.719 134.024 137.5 137.5C 139.86 139.713 141.694 142.379 143 145.5C 145.052 156.242 140.886 163.075 130.5 166C 119.839 166.5 109.172 166.667 98.5 166.5C 100.948 165.527 103.615 165.194 106.5 165.5C 106.5 155.167 106.5 144.833 106.5 134.5C 110.702 134.817 114.702 134.483 118.5 133.5z" stroke="none" fill="#A0ACB8" fill-rule="nonzero" />
	</g>
	<g>
        <path d="M186.5 134.5C 191.686 134.462 196.353 135.962 200.5 139C 211.732 151.712 210.732 163.379 197.5 174C 186.634 178.788 177.134 176.954 169 168.5C 161.558 156.024 163.725 145.691 175.5 137.5C 176.101 140.968 177.101 144.301 178.5 147.5C 173.196 156.895 175.696 163.228 186 166.5C 194.507 164.987 197.84 159.987 196 151.5C 194.615 148.614 192.449 146.614 189.5 145.5C 188.036 141.981 187.036 138.314 186.5 134.5z" stroke="none" fill="#E8BB06" fill-rule="nonzero" />
	</g>
	<g>
        <path d="M76.5 136.5C 72.7939 138.905 70.2939 142.238 69 146.5C 68.2374 158.906 74.0708 165.572 86.5 166.5C 80.5722 175.428 72.2388 178.595 61.5 176C 49.1747 170.697 44.6747 161.53 48 148.5C 53.9628 135.797 63.4628 131.797 76.5 136.5z" stroke="none" fill="#EABD09" fill-rule="nonzero" />
	</g>
	<g>
        <path d="M189.5 145.5C 192.449 146.614 194.615 148.614 196 151.5C 197.84 159.987 194.507 164.987 186 166.5C 175.696 163.228 173.196 156.895 178.5 147.5C 181.889 145.78 185.556 145.113 189.5 145.5z" stroke="none" fill="#5A6062" fill-rule="nonzero" />
	</g>
</g>
</svg>