<?xml version="1.0" standalone="no"?>
<!DOCTYPE svg PUBLIC "-//W3C//DTD SVG 1.0//EN" "http://www.w3.org/TR/2001/REC-SVG-20010904/DTD/svg10.dtd">
<svg xmlns="http://www.w3.org/2000/svg" id="body_1" width="36" height="36">

<g transform="matrix(0.140625 0 0 0.140625 0 0)">
	<g>
        <path d="M111.5 -0.5C 122.167 -0.5 132.833 -0.5 143.5 -0.5C 192.338 7.49258 226.838 34.1592 247 79.5C 249.017 84.7127 250.517 90.046 251.5 95.5C 235.119 79.4515 218.786 63.4515 202.5 47.5C 193.307 35.9445 181.974 33.4445 168.5 40C 166.833 41.6667 165.167 43.3333 163.5 45C 144.729 45.609 137.396 55.109 141.5 73.5C 175.299 107.799 209.299 141.965 243.5 176C 244.865 175.857 246.198 175.357 247.5 174.5C 245.819 177.907 244.153 181.241 242.5 184.5C 207.473 150.14 172.806 115.473 138.5 80.5C 135.86 79.1799 133.193 77.8466 130.5 76.5C 128.295 79.5766 126.628 82.9099 125.5 86.5C 123.734 83.8121 122.067 80.9788 120.5 78C 117.137 78.0065 114.137 79.1732 111.5 81.5C 113.847 86.1932 116.18 90.8599 118.5 95.5C 118.539 98.089 117.539 100.089 115.5 101.5C 105.946 92.6938 95.2793 91.1938 83.5 97C 79.4179 101.948 74.0845 103.948 67.5 103C 55.5265 108.741 51.8599 117.908 56.5 130.5C 65.5558 139.553 74.2225 148.886 82.5 158.5C 79.737 163.701 76.737 168.701 73.5 173.5C 73.5 171.833 73.5 170.167 73.5 168.5C 70.1667 168.5 66.8333 168.5 63.5 168.5C 63.5 174.833 63.5 181.167 63.5 187.5C 57.1667 187.5 50.8333 187.5 44.5 187.5C 44.1872 191.042 44.5206 194.375 45.5 197.5C 63.5 215.833 81.5 234.167 99.5 252.5C 56.1027 242.278 25.6027 216.611 8 175.5C 4.19792 164.95 1.36459 154.284 -0.5 143.5C -0.5 132.833 -0.5 122.167 -0.5 111.5C 8.7041 57.4517 39.3708 21.6184 91.5 4C 98.2585 2.28494 104.925 0.784944 111.5 -0.5z" stroke="none" fill="#FED92D" fill-rule="nonzero" fill-opacity="0.99215686" />
	</g>
	<g>
        <path d="M202.5 47.5C 206.671 55.9826 206.337 64.3159 201.5 72.5C 181.511 73.4996 161.511 73.833 141.5 73.5C 137.396 55.109 144.729 45.609 163.5 45C 165.167 43.3333 166.833 41.6667 168.5 40C 181.974 33.4445 193.307 35.9445 202.5 47.5z" stroke="none" fill="#C5D2DC" fill-rule="nonzero" />
	</g>
	<g>
        <path d="M202.5 47.5C 218.786 63.4515 235.119 79.4515 251.5 95.5C 253.216 100.749 254.549 106.083 255.5 111.5C 255.5 122.167 255.5 132.833 255.5 143.5C 253.643 153.923 250.977 164.256 247.5 174.5C 246.198 175.357 244.865 175.857 243.5 176C 209.299 141.965 175.299 107.799 141.5 73.5C 161.511 73.833 181.511 73.4996 201.5 72.5C 206.337 64.3159 206.671 55.9826 202.5 47.5z" stroke="none" fill="#EEBF01" fill-rule="nonzero" />
	</g>
	<g>
        <path d="M138.5 80.5C 136.438 85.6248 134.104 90.6248 131.5 95.5C 130.624 95.6309 129.957 95.2975 129.5 94.5C 127.703 92.0447 126.37 89.378 125.5 86.5C 126.628 82.9099 128.295 79.5766 130.5 76.5C 133.193 77.8466 135.86 79.1799 138.5 80.5z" stroke="none" fill="#F03E01" fill-rule="nonzero" />
	</g>
	<g>
        <path d="M138.5 80.5C 172.806 115.473 207.473 150.14 242.5 184.5C 221.494 224.833 188.494 248.499 143.5 255.5C 132.833 255.5 122.167 255.5 111.5 255.5C 107.461 254.684 103.461 253.684 99.5 252.5C 81.5 234.167 63.5 215.833 45.5 197.5C 99.0026 197.832 152.336 197.499 205.5 196.5C 205.5 193.5 205.5 190.5 205.5 187.5C 199.167 187.5 192.833 187.5 186.5 187.5C 186.5 181.167 186.5 174.833 186.5 168.5C 183.167 168.5 179.833 168.5 176.5 168.5C 176.5 170.167 176.5 171.833 176.5 173.5C 162.863 151.004 149.363 128.337 136 105.5C 134.191 102.222 132.691 98.8888 131.5 95.5C 134.104 90.6248 136.438 85.6248 138.5 80.5z" stroke="none" fill="#EEBF00" fill-rule="nonzero" />
	</g>
	<g>
        <path d="M124.5 135.5C 124.5 135.833 124.5 136.167 124.5 136.5C 114.916 153.332 105.583 170.332 96.5 187.5C 86.1667 187.5 75.8333 187.5 65.5 187.5C 67.8333 183.5 70.1667 179.5 72.5 175.5C 73.3382 175.158 73.6716 174.492 73.5 173.5C 76.737 168.701 79.737 163.701 82.5 158.5C 88.3357 149.5 93.6691 140.167 98.5 130.5C 104.92 121.334 110.587 111.668 115.5 101.5C 117.539 100.089 118.539 98.089 118.5 95.5C 120.776 93.6694 122.609 91.3361 124 88.5C 124.5 104.163 124.667 119.83 124.5 135.5z" stroke="none" fill="#FE9102" fill-rule="nonzero" />
	</g>
	<g>
        <path d="M125.5 86.5C 126.37 89.378 127.703 92.0447 129.5 94.5C 129.957 95.2975 130.624 95.6309 131.5 95.5C 132.691 98.8888 134.191 102.222 136 105.5C 149.363 128.337 162.863 151.004 176.5 173.5C 176.5 174.167 176.833 174.5 177.5 174.5C 179.566 178.966 181.9 183.299 184.5 187.5C 174.5 187.5 164.5 187.5 154.5 187.5C 145.167 170.833 135.833 154.167 126.5 137.5C 126.167 136.5 125.5 135.833 124.5 135.5C 124.667 119.83 124.5 104.163 124 88.5C 122.609 91.3361 120.776 93.6694 118.5 95.5C 116.18 90.8599 113.847 86.1932 111.5 81.5C 114.137 79.1732 117.137 78.0065 120.5 78C 122.067 80.9788 123.734 83.8121 125.5 86.5z" stroke="none" fill="#FE651A" fill-rule="nonzero" />
	</g>
	<g>
        <path d="M115.5 101.5C 110.587 111.668 104.92 121.334 98.5 130.5C 84.5 130.5 70.5 130.5 56.5 130.5C 51.8599 117.908 55.5265 108.741 67.5 103C 74.0845 103.948 79.4179 101.948 83.5 97C 95.2793 91.1938 105.946 92.6938 115.5 101.5z" stroke="none" fill="#DEEBEF" fill-rule="nonzero" />
	</g>
	<g>
        <path d="M56.5 130.5C 70.5 130.5 84.5 130.5 98.5 130.5C 93.6691 140.167 88.3357 149.5 82.5 158.5C 74.2225 148.886 65.5558 139.553 56.5 130.5z" stroke="none" fill="#EEBF03" fill-rule="nonzero" />
	</g>
	<g>
        <path d="M124.5 135.5C 125.5 135.833 126.167 136.5 126.5 137.5C 125.503 153.992 125.17 170.658 125.5 187.5C 125.167 187.5 124.833 187.5 124.5 187.5C 124.5 170.5 124.5 153.5 124.5 136.5C 124.5 136.167 124.5 135.833 124.5 135.5z" stroke="none" fill="#8EA2A3" fill-rule="nonzero" />
	</g>
	<g>
        <path d="M124.5 136.5C 124.5 153.5 124.5 170.5 124.5 187.5C 115.167 187.5 105.833 187.5 96.5 187.5C 105.583 170.332 114.916 153.332 124.5 136.5z" stroke="none" fill="#DEEBEE" fill-rule="nonzero" />
	</g>
	<g>
        <path d="M126.5 137.5C 135.833 154.167 145.167 170.833 154.5 187.5C 144.833 187.5 135.167 187.5 125.5 187.5C 125.17 170.658 125.503 153.992 126.5 137.5z" stroke="none" fill="#405A59" fill-rule="nonzero" />
	</g>
	<g>
        <path d="M73.5 173.5C 73.6716 174.492 73.3382 175.158 72.5 175.5C 72.5 173.5 72.5 171.5 72.5 169.5C 69.8333 169.5 67.1667 169.5 64.5 169.5C 64.5 175.5 64.5 181.5 64.5 187.5C 64.1667 187.5 63.8333 187.5 63.5 187.5C 63.5 181.167 63.5 174.833 63.5 168.5C 66.8333 168.5 70.1667 168.5 73.5 168.5C 73.5 170.167 73.5 171.833 73.5 173.5z" stroke="none" fill="#7A7756" fill-rule="nonzero" />
	</g>
	<g>
        <path d="M72.5 175.5C 70.1667 179.5 67.8333 183.5 65.5 187.5C 65.1667 187.5 64.8333 187.5 64.5 187.5C 64.5 181.5 64.5 175.5 64.5 169.5C 67.1667 169.5 69.8333 169.5 72.5 169.5C 72.5 171.5 72.5 173.5 72.5 175.5z" stroke="none" fill="#595F62" fill-rule="nonzero" />
	</g>
	<g>
        <path d="M185.5 187.5C 185.167 187.5 184.833 187.5 184.5 187.5C 181.9 183.299 179.566 178.966 177.5 174.5C 177.5 172.833 177.5 171.167 177.5 169.5C 180.167 169.5 182.833 169.5 185.5 169.5C 185.5 175.5 185.5 181.5 185.5 187.5z" stroke="none" fill="#405958" fill-rule="nonzero" />
	</g>
	<g>
        <path d="M186.5 187.5C 186.167 187.5 185.833 187.5 185.5 187.5C 185.5 181.5 185.5 175.5 185.5 169.5C 182.833 169.5 180.167 169.5 177.5 169.5C 177.5 171.167 177.5 172.833 177.5 174.5C 176.833 174.5 176.5 174.167 176.5 173.5C 176.5 171.833 176.5 170.167 176.5 168.5C 179.833 168.5 183.167 168.5 186.5 168.5C 186.5 174.833 186.5 181.167 186.5 187.5z" stroke="none" fill="#626D47" fill-rule="nonzero" />
	</g>
	<g>
        <path d="M124.5 187.5C 124.833 187.5 125.167 187.5 125.5 187.5C 135.167 187.5 144.833 187.5 154.5 187.5C 164.5 187.5 174.5 187.5 184.5 187.5C 184.833 187.5 185.167 187.5 185.5 187.5C 185.833 187.5 186.167 187.5 186.5 187.5C 192.833 187.5 199.167 187.5 205.5 187.5C 205.5 190.5 205.5 193.5 205.5 196.5C 178.5 196.5 151.5 196.5 124.5 196.5C 124.5 193.5 124.5 190.5 124.5 187.5z" stroke="none" fill="#01AB94" fill-rule="nonzero" />
	</g>
	<g>
        <path d="M63.5 187.5C 63.8333 187.5 64.1667 187.5 64.5 187.5C 64.8333 187.5 65.1667 187.5 65.5 187.5C 75.8333 187.5 86.1667 187.5 96.5 187.5C 105.833 187.5 115.167 187.5 124.5 187.5C 124.5 190.5 124.5 193.5 124.5 196.5C 151.5 196.5 178.5 196.5 205.5 196.5C 152.336 197.499 99.0026 197.832 45.5 197.5C 44.5206 194.375 44.1872 191.042 44.5 187.5C 50.8333 187.5 57.1667 187.5 63.5 187.5z" stroke="none" fill="#66D39E" fill-rule="nonzero" />
	</g>
</g>
</svg>