<?xml version="1.0" standalone="no"?>
<!DOCTYPE svg PUBLIC "-//W3C//DTD SVG 1.0//EN" "http://www.w3.org/TR/2001/REC-SVG-20010904/DTD/svg10.dtd">
<svg xmlns="http://www.w3.org/2000/svg" xmlns:xlink="http://www.w3.org/1999/xlink" id="body_1" width="36" height="36">

<g transform="matrix(0.140625 0 0 0.140625 0 0)">
	<g>
        <path d="M111.5 -0.5C 122.167 -0.5 132.833 -0.5 143.5 -0.5C 197.548 8.7041 233.382 39.3708 251 91.5C 252.715 98.2585 254.215 104.925 255.5 111.5C 255.5 112.833 255.5 114.167 255.5 115.5C 254.761 115.631 254.094 115.464 253.5 115C 231.632 92.965 209.632 71.1317 187.5 49.5C 147.5 48.1667 107.5 48.1667 67.5 49.5C 67.5 101.5 67.5 153.5 67.5 205.5C 67.5 206.167 67.8333 206.5 68.5 206.5C 83.7982 222.299 99.2982 237.965 115 253.5C 115.464 254.094 115.631 254.761 115.5 255.5C 114.167 255.5 112.833 255.5 111.5 255.5C 57.4517 246.296 21.6184 215.629 4 163.5C 2.28494 156.741 0.784944 150.075 -0.5 143.5C -0.5 132.833 -0.5 122.167 -0.5 111.5C 8.7041 57.4517 39.3708 21.6184 91.5 4C 98.2585 2.28494 104.925 0.784944 111.5 -0.5z" stroke="none" fill="#537883" fill-rule="nonzero" fill-opacity="0.9882353" />
	</g>
	<g>
        <path d="M67.5 49.5C 107.5 48.1667 147.5 48.1667 187.5 49.5C 187.5 101.833 187.5 154.167 187.5 206.5C 147.833 206.5 108.167 206.5 68.5 206.5C 67.8333 206.5 67.5 206.167 67.5 205.5C 87.5 205.5 107.5 205.5 127.5 205.5C 127.5 202.833 127.5 200.167 127.5 197.5C 119.648 197.825 111.982 197.492 104.5 196.5C 112.167 196.5 119.833 196.5 127.5 196.5C 135.167 196.5 142.833 196.5 150.5 196.5C 150.5 193.5 150.5 190.5 150.5 187.5C 142.833 187.5 135.167 187.5 127.5 187.5C 127.5 184.5 127.5 181.5 127.5 178.5C 129.857 178.663 132.19 178.497 134.5 178C 132.281 174.955 129.281 173.789 125.5 174.5C 127.242 171.855 127.909 168.855 127.5 165.5C 126.167 165.5 124.833 165.5 123.5 165.5C 124.568 164.566 125.901 164.232 127.5 164.5C 136.516 165.019 142.516 169.519 145.5 178C 150.155 178.499 154.821 178.666 159.5 178.5C 159.5 184.5 159.5 190.5 159.5 196.5C 165.833 196.5 172.167 196.5 178.5 196.5C 178.5 175.167 178.5 153.833 178.5 132.5C 170.5 132.5 162.5 132.5 154.5 132.5C 151.362 146.92 142.362 154.586 127.5 155.5C 127.5 152.5 127.5 149.5 127.5 146.5C 126.209 146.737 125.209 146.404 124.5 145.5C 125.5 145.5 126.5 145.5 127.5 145.5C 136.38 145.278 142.047 140.945 144.5 132.5C 138.833 132.5 133.167 132.5 127.5 132.5C 121.642 132.178 115.975 132.511 110.5 133.5C 109.957 133.44 109.624 133.107 109.5 132.5C 115.463 131.504 121.463 131.171 127.5 131.5C 127.5 128.833 127.5 126.167 127.5 123.5C 121.463 123.829 115.463 123.496 109.5 122.5C 109.624 121.893 109.957 121.56 110.5 121.5C 115.975 122.489 121.642 122.822 127.5 122.5C 133.167 122.5 138.833 122.5 144.5 122.5C 142.047 114.055 136.38 109.722 127.5 109.5C 126.5 109.5 125.5 109.5 124.5 109.5C 125.209 108.596 126.209 108.263 127.5 108.5C 127.5 105.5 127.5 102.5 127.5 99.5C 142.362 100.414 151.362 108.08 154.5 122.5C 162.5 122.5 170.5 122.5 178.5 122.5C 178.5 101.167 178.5 79.8333 178.5 58.5C 172.167 58.5 165.833 58.5 159.5 58.5C 159.5 64.5 159.5 70.5 159.5 76.5C 154.821 76.3342 150.155 76.5008 145.5 77C 142.516 85.4806 136.516 89.9806 127.5 90.5C 125.901 90.7678 124.568 90.4345 123.5 89.5C 124.833 89.5 126.167 89.5 127.5 89.5C 127.909 86.1445 127.242 83.1445 125.5 80.5C 129.281 81.2114 132.281 80.0447 134.5 77C 132.19 76.5034 129.857 76.3367 127.5 76.5C 127.5 73.5 127.5 70.5 127.5 67.5C 135.167 67.5 142.833 67.5 150.5 67.5C 150.5 64.5 150.5 61.5 150.5 58.5C 142.833 58.5 135.167 58.5 127.5 58.5C 119.833 58.5 112.167 58.5 104.5 58.5C 111.982 57.508 119.648 57.1746 127.5 57.5C 127.5 54.8333 127.5 52.1667 127.5 49.5C 107.5 49.5 87.5 49.5 67.5 49.5z" stroke="none" fill="#C2D3DC" fill-rule="nonzero" />
	</g>
	<g>
        <path d="M67.5 49.5C 87.5 49.5 107.5 49.5 127.5 49.5C 127.5 52.1667 127.5 54.8333 127.5 57.5C 119.648 57.1746 111.982 57.508 104.5 58.5C 104.5 61.5 104.5 64.5 104.5 67.5C 112.167 67.5 119.833 67.5 127.5 67.5C 127.5 70.5 127.5 73.5 127.5 76.5C 125.076 76.1924 122.743 76.5258 120.5 77.5C 121.688 79.2623 123.355 80.2623 125.5 80.5C 127.242 83.1445 127.909 86.1445 127.5 89.5C 126.167 89.5 124.833 89.5 123.5 89.5C 116.167 88.1667 111.833 83.8333 110.5 76.5C 105.5 76.5 100.5 76.5 95.5 76.5C 95.5 70.1667 95.5 63.8333 95.5 57.5C 89.1667 57.5 82.8333 57.5 76.5 57.5C 76.5 79.5 76.5 101.5 76.5 123.5C 84.6841 123.826 92.6841 123.492 100.5 122.5C 104.241 108.766 113.241 101.099 127.5 99.5C 127.5 102.5 127.5 105.5 127.5 108.5C 126.209 108.263 125.209 108.596 124.5 109.5C 117.65 111.021 112.983 115.021 110.5 121.5C 109.957 121.56 109.624 121.893 109.5 122.5C 115.463 123.496 121.463 123.829 127.5 123.5C 127.5 126.167 127.5 128.833 127.5 131.5C 121.463 131.171 115.463 131.504 109.5 132.5C 109.624 133.107 109.957 133.44 110.5 133.5C 112.983 139.979 117.65 143.979 124.5 145.5C 125.209 146.404 126.209 146.737 127.5 146.5C 127.5 149.5 127.5 152.5 127.5 155.5C 113.25 153.911 104.25 146.245 100.5 132.5C 92.6841 131.508 84.6841 131.174 76.5 131.5C 76.5 153.5 76.5 175.5 76.5 197.5C 82.8333 197.5 89.1667 197.5 95.5 197.5C 95.5 191.167 95.5 184.833 95.5 178.5C 100.179 178.666 104.845 178.499 109.5 178C 111.854 171.141 116.521 166.974 123.5 165.5C 124.833 165.5 126.167 165.5 127.5 165.5C 127.909 168.855 127.242 171.855 125.5 174.5C 123.355 174.738 121.688 175.738 120.5 177.5C 122.743 178.474 125.076 178.808 127.5 178.5C 127.5 181.5 127.5 184.5 127.5 187.5C 119.833 187.5 112.167 187.5 104.5 187.5C 104.5 190.5 104.5 193.5 104.5 196.5C 111.982 197.492 119.648 197.825 127.5 197.5C 127.5 200.167 127.5 202.833 127.5 205.5C 107.5 205.5 87.5 205.5 67.5 205.5C 67.5 153.5 67.5 101.5 67.5 49.5z" stroke="none" fill="#DDEBF0" fill-rule="nonzero" />
	</g>
	<g>
        <path d="M187.5 49.5C 209.632 71.1317 231.632 92.965 253.5 115C 254.094 115.464 254.761 115.631 255.5 115.5C 255.5 124.833 255.5 134.167 255.5 143.5C 246.296 197.548 215.629 233.382 163.5 251C 156.741 252.715 150.075 254.215 143.5 255.5C 134.167 255.5 124.833 255.5 115.5 255.5C 115.631 254.761 115.464 254.094 115 253.5C 99.2982 237.965 83.7982 222.299 68.5 206.5C 108.167 206.5 147.833 206.5 187.5 206.5C 187.5 154.167 187.5 101.833 187.5 49.5z" stroke="none" fill="#3E5959" fill-rule="nonzero" />
	</g>
	<g>
        <path d="M95.5 76.5C 94.5104 70.69 94.1771 64.69 94.5 58.5C 88.8333 58.5 83.1667 58.5 77.5 58.5C 77.5 79.8333 77.5 101.167 77.5 122.5C 85.1667 122.5 92.8333 122.5 100.5 122.5C 92.6841 123.492 84.6841 123.826 76.5 123.5C 76.5 101.5 76.5 79.5 76.5 57.5C 82.8333 57.5 89.1667 57.5 95.5 57.5C 95.5 63.8333 95.5 70.1667 95.5 76.5z" stroke="none" fill="#8ADDBF" fill-rule="nonzero" />
	</g>
	<g>
        <path d="M95.5 76.5C 100.5 76.5 105.5 76.5 110.5 76.5C 111.833 83.8333 116.167 88.1667 123.5 89.5C 124.568 90.4345 125.901 90.7678 127.5 90.5C 127.5 93.5 127.5 96.5 127.5 99.5C 113.241 101.099 104.241 108.766 100.5 122.5C 92.8333 122.5 85.1667 122.5 77.5 122.5C 77.5 101.167 77.5 79.8333 77.5 58.5C 83.1667 58.5 88.8333 58.5 94.5 58.5C 94.1771 64.69 94.5104 70.69 95.5 76.5z" stroke="none" fill="#61D7A8" fill-rule="nonzero" />
	</g>
	<g>
        <path d="M104.5 58.5C 112.167 58.5 119.833 58.5 127.5 58.5C 127.5 61.5 127.5 64.5 127.5 67.5C 119.833 67.5 112.167 67.5 104.5 67.5C 104.5 64.5 104.5 61.5 104.5 58.5z" stroke="none" fill="#65D7AA" fill-rule="nonzero" />
	</g>
	<g>
        <path d="M127.5 58.5C 135.167 58.5 142.833 58.5 150.5 58.5C 150.5 61.5 150.5 64.5 150.5 67.5C 142.833 67.5 135.167 67.5 127.5 67.5C 127.5 64.5 127.5 61.5 127.5 58.5z" stroke="none" fill="#1DAD98" fill-rule="nonzero" />
	</g>
	<g>
        <path d="M127.5 99.5C 127.5 96.5 127.5 93.5 127.5 90.5C 136.516 89.9806 142.516 85.4806 145.5 77C 150.155 76.5008 154.821 76.3342 159.5 76.5C 159.5 70.5 159.5 64.5 159.5 58.5C 165.833 58.5 172.167 58.5 178.5 58.5C 178.5 79.8333 178.5 101.167 178.5 122.5C 170.5 122.5 162.5 122.5 154.5 122.5C 151.362 108.08 142.362 100.414 127.5 99.5z" stroke="none" fill="#0CAC95" fill-rule="nonzero" />
	</g>
	<g>
        <path d="M127.5 76.5C 129.857 76.3367 132.19 76.5034 134.5 77C 132.281 80.0447 129.281 81.2114 125.5 80.5C 123.355 80.2623 121.688 79.2623 120.5 77.5C 122.743 76.5258 125.076 76.1924 127.5 76.5z" stroke="none" fill="#38BA9C" fill-rule="nonzero" />
	</g>
	<g>
        <path d="M124.5 109.5C 125.5 109.5 126.5 109.5 127.5 109.5C 127.5 113.833 127.5 118.167 127.5 122.5C 121.642 122.822 115.975 122.489 110.5 121.5C 112.983 115.021 117.65 111.021 124.5 109.5z" stroke="none" fill="#62D7A8" fill-rule="nonzero" />
	</g>
	<g>
        <path d="M127.5 109.5C 136.38 109.722 142.047 114.055 144.5 122.5C 138.833 122.5 133.167 122.5 127.5 122.5C 127.5 118.167 127.5 113.833 127.5 109.5z" stroke="none" fill="#06AB95" fill-rule="nonzero" />
	</g>
	<g>
        <path d="M100.5 132.5C 92.8333 132.5 85.1667 132.5 77.5 132.5C 77.5 153.833 77.5 175.167 77.5 196.5C 83.1667 196.5 88.8333 196.5 94.5 196.5C 94.1771 190.31 94.5104 184.31 95.5 178.5C 95.5 184.833 95.5 191.167 95.5 197.5C 89.1667 197.5 82.8333 197.5 76.5 197.5C 76.5 175.5 76.5 153.5 76.5 131.5C 84.6841 131.174 92.6841 131.508 100.5 132.5z" stroke="none" fill="#8BDEC0" fill-rule="nonzero" />
	</g>
	<g>
        <path d="M100.5 132.5C 104.25 146.245 113.25 153.911 127.5 155.5C 127.5 158.5 127.5 161.5 127.5 164.5C 125.901 164.232 124.568 164.566 123.5 165.5C 116.521 166.974 111.854 171.141 109.5 178C 104.845 178.499 100.179 178.666 95.5 178.5C 94.5104 184.31 94.1771 190.31 94.5 196.5C 88.8333 196.5 83.1667 196.5 77.5 196.5C 77.5 175.167 77.5 153.833 77.5 132.5C 85.1667 132.5 92.8333 132.5 100.5 132.5z" stroke="none" fill="#61D7A8" fill-rule="nonzero" />
	</g>
	<g>
        <path d="M127.5 132.5C 127.5 136.833 127.5 141.167 127.5 145.5C 126.5 145.5 125.5 145.5 124.5 145.5C 117.65 143.979 112.983 139.979 110.5 133.5C 115.975 132.511 121.642 132.178 127.5 132.5z" stroke="none" fill="#62D7A8" fill-rule="nonzero" />
	</g>
	<g>
        <path d="M127.5 132.5C 133.167 132.5 138.833 132.5 144.5 132.5C 142.047 140.945 136.38 145.278 127.5 145.5C 127.5 141.167 127.5 136.833 127.5 132.5z" stroke="none" fill="#06AB95" fill-rule="nonzero" />
	</g>
	<g>
        <path d="M127.5 164.5C 127.5 161.5 127.5 158.5 127.5 155.5C 142.362 154.586 151.362 146.92 154.5 132.5C 162.5 132.5 170.5 132.5 178.5 132.5C 178.5 153.833 178.5 175.167 178.5 196.5C 172.167 196.5 165.833 196.5 159.5 196.5C 159.5 190.5 159.5 184.5 159.5 178.5C 154.821 178.666 150.155 178.499 145.5 178C 142.516 169.519 136.516 165.019 127.5 164.5z" stroke="none" fill="#0BAC95" fill-rule="nonzero" />
	</g>
	<g>
        <path d="M125.5 174.5C 129.281 173.789 132.281 174.955 134.5 178C 132.19 178.497 129.857 178.663 127.5 178.5C 125.076 178.808 122.743 178.474 120.5 177.5C 121.688 175.738 123.355 174.738 125.5 174.5z" stroke="none" fill="#37BA9C" fill-rule="nonzero" />
	</g>
	<g>
        <path d="M127.5 187.5C 127.5 190.5 127.5 193.5 127.5 196.5C 119.833 196.5 112.167 196.5 104.5 196.5C 104.5 193.5 104.5 190.5 104.5 187.5C 112.167 187.5 119.833 187.5 127.5 187.5z" stroke="none" fill="#65D7AA" fill-rule="nonzero" />
	</g>
	<g>
        <path d="M127.5 187.5C 135.167 187.5 142.833 187.5 150.5 187.5C 150.5 190.5 150.5 193.5 150.5 196.5C 142.833 196.5 135.167 196.5 127.5 196.5C 127.5 193.5 127.5 190.5 127.5 187.5z" stroke="none" fill="#1DAD98" fill-rule="nonzero" />
	</g>
</g>
</svg>