<?xml version="1.0" standalone="no"?>
<!DOCTYPE svg PUBLIC "-//W3C//DTD SVG 1.0//EN" "http://www.w3.org/TR/2001/REC-SVG-20010904/DTD/svg10.dtd">
<svg xmlns="http://www.w3.org/2000/svg" id="body_1" width="36" height="36">

<g transform="matrix(0.140625 0 0 0.140625 0 0)">
	<g>
        <path d="M111.5 -0.5C 122.167 -0.5 132.833 -0.5 143.5 -0.5C 197.548 8.7041 233.382 39.3708 251 91.5C 252.715 98.2585 254.215 104.925 255.5 111.5C 255.5 122.167 255.5 132.833 255.5 143.5C 254.437 149.13 253.104 154.797 251.5 160.5C 225.701 135.202 200.035 109.702 174.5 84C 173.906 83.5357 173.239 83.369 172.5 83.5C 163.667 72.3345 153.001 63.3345 140.5 56.5C 135.893 50.2238 130.559 44.5572 124.5 39.5C 123.167 39.5 121.833 39.5 120.5 39.5C 118.833 39.5 117.167 39.5 115.5 39.5C 115.5 42.8333 115.5 46.1667 115.5 49.5C 103.829 49.3335 92.1619 49.5001 80.5 50C 85.0153 54.3482 89.3487 58.8482 93.5 63.5C 89.4781 67.8535 85.4781 72.1869 81.5 76.5C 80.475 76.8966 80.3083 77.5632 81 78.5C 87.3685 85.036 93.8685 91.3694 100.5 97.5C 88.0691 113.107 75.4024 128.607 62.5 144C 62.7284 144.399 63.0618 144.565 63.5 144.5C 69.1667 150.5 74.8333 156.5 80.5 162.5C 69.8126 162.168 59.1459 162.501 48.5 163.5C 48.6236 164.107 48.9569 164.44 49.5 164.5C 57.4409 177.396 66.1076 189.73 75.5 201.5C 93.1667 219.5 110.833 237.5 128.5 255.5C 122.833 255.5 117.167 255.5 111.5 255.5C 57.4517 246.296 21.6184 215.629 4 163.5C 2.28494 156.741 0.784944 150.075 -0.5 143.5C -0.5 132.833 -0.5 122.167 -0.5 111.5C 8.7041 57.4517 39.3708 21.6184 91.5 4C 98.2585 2.28494 104.925 0.784944 111.5 -0.5z" stroke="none" fill="#FED92D" fill-rule="nonzero" fill-opacity="0.99215686" />
	</g>
	<g>
        <path d="M120.5 39.5C 120.5 80.5 120.5 121.5 120.5 162.5C 121.833 162.5 123.167 162.5 124.5 162.5C 124.5 162.833 124.5 163.167 124.5 163.5C 122.833 163.5 121.167 163.5 119.5 163.5C 118.167 163.5 116.833 163.5 115.5 163.5C 115.5 157.167 115.5 150.833 115.5 144.5C 115.5 123.5 115.5 102.5 115.5 81.5C 115.5 80.1667 115.5 78.8333 115.5 77.5C 115.5 68.1667 115.5 58.8333 115.5 49.5C 115.5 46.1667 115.5 42.8333 115.5 39.5C 117.167 39.5 118.833 39.5 120.5 39.5z" stroke="none" fill="#50767F" fill-rule="nonzero" />
	</g>
	<g>
        <path d="M120.5 39.5C 121.833 39.5 123.167 39.5 124.5 39.5C 124.5 43.1667 124.5 46.8333 124.5 50.5C 124.5 81.8333 124.5 113.167 124.5 144.5C 124.5 150.5 124.5 156.5 124.5 162.5C 123.167 162.5 121.833 162.5 120.5 162.5C 120.5 121.5 120.5 80.5 120.5 39.5z" stroke="none" fill="#3E5958" fill-rule="nonzero" />
	</g>
	<g>
        <path d="M124.5 39.5C 130.559 44.5572 135.893 50.2238 140.5 56.5C 135.228 54.2988 129.895 52.2988 124.5 50.5C 124.5 46.8333 124.5 43.1667 124.5 39.5z" stroke="none" fill="#E6BC18" fill-rule="nonzero" />
	</g>
	<g>
        <path d="M115.5 49.5C 115.5 58.8333 115.5 68.1667 115.5 77.5C 103.988 77.8281 92.6544 77.4948 81.5 76.5C 85.4781 72.1869 89.4781 67.8535 93.5 63.5C 89.3487 58.8482 85.0153 54.3482 80.5 50C 92.1619 49.5001 103.829 49.3335 115.5 49.5z" stroke="none" fill="#FD9102" fill-rule="nonzero" />
	</g>
	<g>
        <path d="M124.5 50.5C 129.895 52.2988 135.228 54.2988 140.5 56.5C 153.001 63.3345 163.667 72.3345 172.5 83.5C 182.617 97.1778 188.617 112.511 190.5 129.5C 190.5 134.167 190.5 138.833 190.5 143.5C 168.66 143.169 146.994 143.503 125.5 144.5C 125.167 144.5 124.833 144.5 124.5 144.5C 124.5 113.167 124.5 81.8333 124.5 50.5z" stroke="none" fill="#C4D1DB" fill-rule="nonzero" />
	</g>
	<g>
        <path d="M81.5 76.5C 92.6544 77.4948 103.988 77.8281 115.5 77.5C 115.5 78.8333 115.5 80.1667 115.5 81.5C 110.5 86.8333 105.5 92.1667 100.5 97.5C 93.8685 91.3694 87.3685 85.036 81 78.5C 80.3083 77.5632 80.475 76.8966 81.5 76.5z" stroke="none" fill="#EEBE04" fill-rule="nonzero" />
	</g>
	<g>
        <path d="M115.5 81.5C 115.5 102.5 115.5 123.5 115.5 144.5C 115.167 144.5 114.833 144.5 114.5 144.5C 97.5 144.5 80.5 144.5 63.5 144.5C 63.0618 144.565 62.7284 144.399 62.5 144C 75.4024 128.607 88.0691 113.107 100.5 97.5C 105.5 92.1667 110.5 86.8333 115.5 81.5z" stroke="none" fill="#DDEAEC" fill-rule="nonzero" />
	</g>
	<g>
        <path d="M172.5 83.5C 173.239 83.369 173.906 83.5357 174.5 84C 200.035 109.702 225.701 135.202 251.5 160.5C 241.144 198.698 218.144 226.531 182.5 244C 169.878 249.567 156.878 253.4 143.5 255.5C 138.5 255.5 133.5 255.5 128.5 255.5C 110.833 237.5 93.1667 219.5 75.5 201.5C 90.1667 201.5 104.833 201.5 119.5 201.5C 141.169 201.667 162.836 201.5 184.5 201C 193.3 188.558 201.966 176.058 210.5 163.5C 182.338 162.502 154.005 162.169 125.5 162.5C 125.5 156.5 125.5 150.5 125.5 144.5C 147.5 144.5 169.5 144.5 191.5 144.5C 191.821 139.305 191.487 134.305 190.5 129.5C 188.617 112.511 182.617 97.1778 172.5 83.5z" stroke="none" fill="#EDBF01" fill-rule="nonzero" />
	</g>
	<g>
        <path d="M190.5 129.5C 191.487 134.305 191.821 139.305 191.5 144.5C 169.5 144.5 147.5 144.5 125.5 144.5C 146.994 143.503 168.66 143.169 190.5 143.5C 190.5 138.833 190.5 134.167 190.5 129.5z" stroke="none" fill="#D0CD9E" fill-rule="nonzero" />
	</g>
	<g>
        <path d="M63.5 144.5C 80.5 144.5 97.5 144.5 114.5 144.5C 114.5 150.5 114.5 156.5 114.5 162.5C 103.167 162.5 91.8333 162.5 80.5 162.5C 74.8333 156.5 69.1667 150.5 63.5 144.5z" stroke="none" fill="#EDBF00" fill-rule="nonzero" />
	</g>
	<g>
        <path d="M114.5 144.5C 114.833 144.5 115.167 144.5 115.5 144.5C 115.5 150.833 115.5 157.167 115.5 163.5C 93.327 163.169 71.327 163.503 49.5 164.5C 48.9569 164.44 48.6236 164.107 48.5 163.5C 59.1459 162.501 69.8126 162.168 80.5 162.5C 91.8333 162.5 103.167 162.5 114.5 162.5C 114.5 156.5 114.5 150.5 114.5 144.5z" stroke="none" fill="#CBC535" fill-rule="nonzero" />
	</g>
	<g>
        <path d="M124.5 144.5C 124.833 144.5 125.167 144.5 125.5 144.5C 125.5 150.5 125.5 156.5 125.5 162.5C 154.005 162.169 182.338 162.502 210.5 163.5C 181.833 163.5 153.167 163.5 124.5 163.5C 124.5 163.167 124.5 162.833 124.5 162.5C 124.5 156.5 124.5 150.5 124.5 144.5z" stroke="none" fill="#96B844" fill-rule="nonzero" />
	</g>
	<g>
        <path d="M115.5 163.5C 116.833 163.5 118.167 163.5 119.5 163.5C 119.5 176.167 119.5 188.833 119.5 201.5C 104.833 201.5 90.1667 201.5 75.5 201.5C 66.1076 189.73 57.4409 177.396 49.5 164.5C 71.327 163.503 93.327 163.169 115.5 163.5z" stroke="none" fill="#61D7A7" fill-rule="nonzero" />
	</g>
	<g>
        <path d="M119.5 163.5C 121.167 163.5 122.833 163.5 124.5 163.5C 153.167 163.5 181.833 163.5 210.5 163.5C 201.966 176.058 193.3 188.558 184.5 201C 162.836 201.5 141.169 201.667 119.5 201.5C 119.5 188.833 119.5 176.167 119.5 163.5z" stroke="none" fill="#02AB93" fill-rule="nonzero" />
	</g>
</g>
</svg>