<?xml version="1.0" standalone="no"?>
<!DOCTYPE svg PUBLIC "-//W3C//DTD SVG 1.0//EN" "http://www.w3.org/TR/2001/REC-SVG-20010904/DTD/svg10.dtd">
<svg xmlns="http://www.w3.org/2000/svg" xmlns:xlink="http://www.w3.org/1999/xlink" id="body_1" width="36" height="36">

<g transform="matrix(0.140625 0 0 0.140625 0 0)">
	<g>
        <path d="M111.5 -0.5C 122.167 -0.5 132.833 -0.5 143.5 -0.5C 197.548 8.7041 233.382 39.3708 251 91.5C 252.715 98.2585 254.215 104.925 255.5 111.5C 255.5 122.167 255.5 132.833 255.5 143.5C 254.262 151.35 252.262 159.017 249.5 166.5C 215.806 133.473 182.473 100.14 149.5 66.5C 142.582 63.3052 135.582 60.3052 128.5 57.5C 113.66 50.4434 98.6596 43.7767 83.5 37.5C 83.5 57.5 83.5 77.5 83.5 97.5C 83.5 106.167 83.5 114.833 83.5 123.5C 70.9092 126.877 60.0759 133.21 51 142.5C 41.3703 154.218 41.037 166.218 50 178.5C 53.7288 182.398 57.5621 186.065 61.5 189.5C 83.1183 211.452 104.785 233.452 126.5 255.5C 121.5 255.5 116.5 255.5 111.5 255.5C 57.4517 246.296 21.6184 215.629 4 163.5C 2.28494 156.741 0.784944 150.075 -0.5 143.5C -0.5 132.833 -0.5 122.167 -0.5 111.5C 8.7041 57.4517 39.3708 21.6184 91.5 4C 98.2585 2.28494 104.925 0.784944 111.5 -0.5z" stroke="none" fill="#FED92C" fill-rule="nonzero" fill-opacity="0.99215686" />
	</g>
	<g>
        <path d="M128.5 57.5C 128.5 64.1667 128.5 70.8333 128.5 77.5C 116.833 82.8333 105.167 88.1667 93.5 93.5C 90.3965 95.3843 87.0632 96.7176 83.5 97.5C 83.5 77.5 83.5 57.5 83.5 37.5C 98.6596 43.7767 113.66 50.4434 128.5 57.5z" stroke="none" fill="#FE661A" fill-rule="nonzero" />
	</g>
	<g>
        <path d="M128.5 57.5C 135.582 60.3052 142.582 63.3052 149.5 66.5C 149.631 67.3764 149.298 68.0431 148.5 68.5C 141.807 71.5144 135.141 74.5144 128.5 77.5C 128.5 70.8333 128.5 64.1667 128.5 57.5z" stroke="none" fill="#F03D00" fill-rule="nonzero" />
	</g>
	<g>
        <path d="M149.5 66.5C 182.473 100.14 215.806 133.473 249.5 166.5C 238.143 201.699 215.81 227.532 182.5 244C 169.878 249.567 156.878 253.4 143.5 255.5C 137.833 255.5 132.167 255.5 126.5 255.5C 104.785 233.452 83.1183 211.452 61.5 189.5C 82.2538 201.186 104.587 206.52 128.5 205.5C 153.727 206.859 177.06 200.692 198.5 187C 217.513 170.947 218.18 154.281 200.5 137C 178.841 122.414 154.841 115.581 128.5 116.5C 116.639 116.521 104.973 117.855 93.5 120.5C 93.5 111.5 93.5 102.5 93.5 93.5C 105.167 88.1667 116.833 82.8333 128.5 77.5C 135.141 74.5144 141.807 71.5144 148.5 68.5C 149.298 68.0431 149.631 67.3764 149.5 66.5z" stroke="none" fill="#EDBF01" fill-rule="nonzero" />
	</g>
	<g>
        <path d="M93.5 93.5C 93.5 102.5 93.5 111.5 93.5 120.5C 93.3335 129.839 93.5002 139.173 94 148.5C 102.558 145.406 110.725 146.239 118.5 151C 126.171 161.671 123.838 169.671 111.5 175C 99.425 178.529 90.2583 175.029 84 164.5C 83.5001 150.837 83.3334 137.171 83.5 123.5C 83.5 114.833 83.5 106.167 83.5 97.5C 87.0632 96.7176 90.3965 95.3843 93.5 93.5z" stroke="none" fill="#3F5B5A" fill-rule="nonzero" />
	</g>
	<g>
        <path d="M128.5 116.5C 128.5 146.167 128.5 175.833 128.5 205.5C 104.587 206.52 82.2538 201.186 61.5 189.5C 57.5621 186.065 53.7288 182.398 50 178.5C 41.037 166.218 41.3703 154.218 51 142.5C 60.0759 133.21 70.9092 126.877 83.5 123.5C 83.3334 137.171 83.5001 150.837 84 164.5C 90.2583 175.029 99.425 178.529 111.5 175C 123.838 169.671 126.171 161.671 118.5 151C 110.725 146.239 102.558 145.406 94 148.5C 93.5002 139.173 93.3335 129.839 93.5 120.5C 104.973 117.855 116.639 116.521 128.5 116.5z" stroke="none" fill="#62D6A6" fill-rule="nonzero" />
	</g>
	<g>
        <path d="M128.5 116.5C 154.841 115.581 178.841 122.414 200.5 137C 218.18 154.281 217.513 170.947 198.5 187C 177.06 200.692 153.727 206.859 128.5 205.5C 128.5 175.833 128.5 146.167 128.5 116.5z" stroke="none" fill="#07AB93" fill-rule="nonzero" />
	</g>
	<g>
        <path d="M153.5 146.5C 170.342 146.829 175.842 154.829 170 170.5C 165.034 175.089 159.2 176.589 152.5 175C 144.457 170.207 141.957 163.373 145 154.5C 147.074 150.923 149.907 148.256 153.5 146.5z" stroke="none" fill="#C3D2DC" fill-rule="nonzero" />
	</g>
</g>
</svg>