<?xml version="1.0" standalone="no"?>
<!DOCTYPE svg PUBLIC "-//W3C//DTD SVG 1.0//EN" "http://www.w3.org/TR/2001/REC-SVG-20010904/DTD/svg10.dtd">
<svg xmlns="http://www.w3.org/2000/svg" xmlns:xlink="http://www.w3.org/1999/xlink" id="body_1" width="36" height="36">

<g transform="matrix(0.140625 0 0 0.140625 0 0)">
	<g>
        <path d="M111.5 -0.5C 122.167 -0.5 132.833 -0.5 143.5 -0.5C 197.548 8.7041 233.382 39.3708 251 91.5C 252.715 98.2585 254.215 104.925 255.5 111.5C 255.5 122.167 255.5 132.833 255.5 143.5C 254.833 145.833 254.167 148.167 253.5 150.5C 253.662 148.473 253.495 146.473 253 144.5C 222.249 113.248 191.083 82.5814 159.5 52.5C 152.892 41.6902 143.225 35.6902 130.5 34.5C 108.98 32.7987 94.1472 42.1321 86 62.5C 84.4942 69.4333 84.1609 76.4333 85 83.5C 86.9456 89.1692 88.779 94.8359 90.5 100.5C 80.1803 104.95 77.6803 112.283 83 122.5C 84.9719 124.232 87.1386 125.565 89.5 126.5C 87.8774 128.951 85.7107 130.951 83 132.5C 79.6667 138.167 79.6667 143.833 83 149.5C 85.4659 151.758 87.6326 154.091 89.5 156.5C 84.3768 168.061 83.2101 180.061 86 192.5C 88.737 201.313 93.9037 208.313 101.5 213.5C 101.369 214.239 101.536 214.906 102 215.5C 115.369 228.701 128.535 242.035 141.5 255.5C 131.5 255.5 121.5 255.5 111.5 255.5C 57.4517 246.296 21.6184 215.629 4 163.5C 2.28494 156.741 0.784944 150.075 -0.5 143.5C -0.5 132.833 -0.5 122.167 -0.5 111.5C 8.7041 57.4517 39.3708 21.6184 91.5 4C 98.2585 2.28494 104.925 0.784944 111.5 -0.5z" stroke="none" fill="#FED92D" fill-rule="nonzero" fill-opacity="0.99215686" />
	</g>
	<g>
        <path d="M130.5 34.5C 128.833 34.5 127.167 34.5 125.5 34.5C 125.5 43.5 125.5 52.5 125.5 61.5C 114.49 62.4957 109.99 68.4957 112 79.5C 114.673 86.0191 116.84 92.6858 118.5 99.5C 122.833 99.5 127.167 99.5 131.5 99.5C 131.5 99.8333 131.5 100.167 131.5 100.5C 129.5 100.5 127.5 100.5 125.5 100.5C 113.833 100.5 102.167 100.5 90.5 100.5C 88.779 94.8359 86.9456 89.1692 85 83.5C 84.1609 76.4333 84.4942 69.4333 86 62.5C 94.1472 42.1321 108.98 32.7987 130.5 34.5z" stroke="none" fill="#C67159" fill-rule="nonzero" />
	</g>
	<g>
        <path d="M130.5 34.5C 143.225 35.6902 152.892 41.6902 159.5 52.5C 163.956 58.9269 166.289 66.0936 166.5 74C 165.364 83.3745 163.364 92.5412 160.5 101.5C 150.916 100.527 141.25 100.194 131.5 100.5C 131.5 100.167 131.5 99.8333 131.5 99.5C 133.761 92.5481 135.928 85.5481 138 78.5C 139.669 68.4959 135.503 62.8293 125.5 61.5C 125.5 52.5 125.5 43.5 125.5 34.5C 127.167 34.5 128.833 34.5 130.5 34.5z" stroke="none" fill="#B35F48" fill-rule="nonzero" />
	</g>
	<g>
        <path d="M159.5 52.5C 191.083 82.5814 222.249 113.248 253 144.5C 253.495 146.473 253.662 148.473 253.5 150.5C 245.205 193.301 221.538 224.467 182.5 244C 169.878 249.567 156.878 253.4 143.5 255.5C 142.833 255.5 142.167 255.5 141.5 255.5C 128.535 242.035 115.369 228.701 102 215.5C 101.536 214.906 101.369 214.239 101.5 213.5C 110.294 220.054 119.96 222.387 130.5 220.5C 142.055 218.923 151.388 213.589 158.5 204.5C 164.264 206.976 170.264 208.643 176.5 209.5C 180.97 210.486 185.637 210.819 190.5 210.5C 190.827 200.985 190.494 191.652 189.5 182.5C 181.623 183.5 174.289 182 167.5 178C 166.901 176.378 166.234 174.878 165.5 173.5C 164.242 167.391 162.575 161.391 160.5 155.5C 162.423 152.397 164.59 149.397 167 146.5C 168.907 137.285 165.74 130.619 157.5 126.5C 162.305 125.868 165.472 123.201 167 118.5C 169.208 111.061 167.042 105.394 160.5 101.5C 163.364 92.5412 165.364 83.3745 166.5 74C 166.289 66.0936 163.956 58.9269 159.5 52.5z" stroke="none" fill="#EEBF00" fill-rule="nonzero" />
	</g>
	<g>
        <path d="M125.5 61.5C 135.503 62.8293 139.669 68.4959 138 78.5C 135.928 85.5481 133.761 92.5481 131.5 99.5C 127.167 99.5 122.833 99.5 118.5 99.5C 116.84 92.6858 114.673 86.0191 112 79.5C 109.99 68.4957 114.49 62.4957 125.5 61.5z" stroke="none" fill="#EDBD02" fill-rule="nonzero" />
	</g>
	<g>
        <path d="M90.5 100.5C 102.167 100.5 113.833 100.5 125.5 100.5C 125.5 109.5 125.5 118.5 125.5 127.5C 113.469 127.749 101.469 127.416 89.5 126.5C 87.1386 125.565 84.9719 124.232 83 122.5C 77.6803 112.283 80.1803 104.95 90.5 100.5z" stroke="none" fill="#B35F48" fill-rule="nonzero" />
	</g>
	<g>
        <path d="M125.5 100.5C 127.5 100.5 129.5 100.5 131.5 100.5C 141.25 100.194 150.916 100.527 160.5 101.5C 167.042 105.394 169.208 111.061 167 118.5C 165.472 123.201 162.305 125.868 157.5 126.5C 146.915 127.476 136.248 127.809 125.5 127.5C 125.5 118.5 125.5 109.5 125.5 100.5z" stroke="none" fill="#99503C" fill-rule="nonzero" />
	</g>
	<g>
        <path d="M157.5 126.5C 165.74 130.619 168.907 137.285 167 146.5C 164.59 149.397 162.423 152.397 160.5 155.5C 157.67 154.541 155.004 154.874 152.5 156.5C 143.765 154.572 134.765 153.905 125.5 154.5C 125.5 145.5 125.5 136.5 125.5 127.5C 136.248 127.809 146.915 127.476 157.5 126.5z" stroke="none" fill="#B35F48" fill-rule="nonzero" />
	</g>
	<g>
        <path d="M160.5 155.5C 162.575 161.391 164.242 167.391 165.5 173.5C 165.649 174.552 165.483 175.552 165 176.5C 158.533 171.224 154.366 164.557 152.5 156.5C 155.004 154.874 157.67 154.541 160.5 155.5z" stroke="none" fill="#9A513D" fill-rule="nonzero" />
	</g>
	<g>
        <path d="M118.5 154.5C 116.643 161.573 114.476 168.573 112 175.5C 110 186.531 114.5 192.531 125.5 193.5C 125.5 202.5 125.5 211.5 125.5 220.5C 127.167 220.5 128.833 220.5 130.5 220.5C 119.96 222.387 110.294 220.054 101.5 213.5C 93.9037 208.313 88.737 201.313 86 192.5C 83.2101 180.061 84.3768 168.061 89.5 156.5C 98.9053 154.567 108.572 153.9 118.5 154.5z" stroke="none" fill="#B35F48" fill-rule="nonzero" />
	</g>
	<g>
        <path d="M118.5 154.5C 120.5 154.5 122.5 154.5 124.5 154.5C 125.743 166.568 129.743 177.568 136.5 187.5C 133.89 191.307 130.223 193.307 125.5 193.5C 114.5 192.531 110 186.531 112 175.5C 114.476 168.573 116.643 161.573 118.5 154.5z" stroke="none" fill="#ECBC04" fill-rule="nonzero" />
	</g>
	<g>
        <path d="M89.5 126.5C 101.469 127.416 113.469 127.749 125.5 127.5C 125.5 136.5 125.5 145.5 125.5 154.5C 134.765 153.905 143.765 154.572 152.5 156.5C 154.366 164.557 158.533 171.224 165 176.5C 165.483 175.552 165.649 174.552 165.5 173.5C 166.234 174.878 166.901 176.378 167.5 178C 174.289 182 181.623 183.5 189.5 182.5C 189.5 191.5 189.5 200.5 189.5 209.5C 185.167 209.5 180.833 209.5 176.5 209.5C 170.264 208.643 164.264 206.976 158.5 204.5C 150.483 199.813 143.15 194.146 136.5 187.5C 129.743 177.568 125.743 166.568 124.5 154.5C 122.5 154.5 120.5 154.5 118.5 154.5C 108.572 153.9 98.9053 154.567 89.5 156.5C 87.6326 154.091 85.4659 151.758 83 149.5C 79.6667 143.833 79.6667 138.167 83 132.5C 85.7107 130.951 87.8774 128.951 89.5 126.5z" stroke="none" fill="#C57159" fill-rule="nonzero" />
	</g>
	<g>
        <path d="M189.5 182.5C 190.494 191.652 190.827 200.985 190.5 210.5C 185.637 210.819 180.97 210.486 176.5 209.5C 180.833 209.5 185.167 209.5 189.5 209.5C 189.5 200.5 189.5 191.5 189.5 182.5z" stroke="none" fill="#DD9E26" fill-rule="nonzero" />
	</g>
	<g>
        <path d="M136.5 187.5C 143.15 194.146 150.483 199.813 158.5 204.5C 151.388 213.589 142.055 218.923 130.5 220.5C 128.833 220.5 127.167 220.5 125.5 220.5C 125.5 211.5 125.5 202.5 125.5 193.5C 130.223 193.307 133.89 191.307 136.5 187.5z" stroke="none" fill="#99503C" fill-rule="nonzero" />
	</g>
</g>
</svg>