<?xml version="1.0" standalone="no"?>
<!DOCTYPE svg PUBLIC "-//W3C//DTD SVG 1.0//EN" "http://www.w3.org/TR/2001/REC-SVG-20010904/DTD/svg10.dtd">
<svg xmlns="http://www.w3.org/2000/svg" xmlns:xlink="http://www.w3.org/1999/xlink" id="body_1" width="36" height="36">

<g transform="matrix(0.140625 0 0 0.140625 0 0)">
	<g>
        <path d="M111.5 -0.5C 122.167 -0.5 132.833 -0.5 143.5 -0.5C 197.548 8.7041 233.382 39.3708 251 91.5C 252.715 98.2585 254.215 104.925 255.5 111.5C 255.5 116.833 255.5 122.167 255.5 127.5C 240.5 112.833 225.5 98.1667 210.5 83.5C 207.038 82.5184 203.371 82.185 199.5 82.5C 193.87 76.3686 188.036 70.3686 182 64.5C 181.501 70.4908 181.334 76.4908 181.5 82.5C 181.167 82.5 180.833 82.5 180.5 82.5C 180.5 76.1667 180.5 69.8333 180.5 63.5C 169.167 63.5 157.833 63.5 146.5 63.5C 135.5 63.5 124.5 63.5 113.5 63.5C 112.51 69.6446 112.177 75.9779 112.5 82.5C 109.167 82.5 105.833 82.5 102.5 82.5C 96.5216 76.1871 90.5216 69.8538 84.5 63.5C 74.6746 62.1775 65.008 62.1775 55.5 63.5C 55.5 69.8333 55.5 76.1667 55.5 82.5C 52.1667 82.5 48.8333 82.5 45.5 82.5C 45.5 117.833 45.5 153.167 45.5 188.5C 67.1667 210.5 88.8333 232.5 110.5 254.5C 56.7651 245.604 21.2651 215.271 4 163.5C 2.28494 156.741 0.784944 150.075 -0.5 143.5C -0.5 132.833 -0.5 122.167 -0.5 111.5C 8.7041 57.4517 39.3708 21.6184 91.5 4C 98.2585 2.28494 104.925 0.784944 111.5 -0.5z" stroke="none" fill="#61D6A7" fill-rule="nonzero" fill-opacity="0.9882353" />
	</g>
	<g>
        <path d="M55.5 63.5C 64.8333 63.5 74.1667 63.5 83.5 63.5C 83.5 69.8333 83.5 76.1667 83.5 82.5C 74.1667 82.5 64.8333 82.5 55.5 82.5C 55.5 76.1667 55.5 69.8333 55.5 63.5z" stroke="none" fill="#9EACB9" fill-rule="nonzero" />
	</g>
	<g>
        <path d="M113.5 63.5C 124.5 63.5 135.5 63.5 146.5 63.5C 146.5 69.8333 146.5 76.1667 146.5 82.5C 135.5 82.5 124.5 82.5 113.5 82.5C 113.5 76.1667 113.5 69.8333 113.5 63.5z" stroke="none" fill="#EDBF00" fill-rule="nonzero" />
	</g>
	<g>
        <path d="M146.5 63.5C 157.833 63.5 169.167 63.5 180.5 63.5C 180.5 69.8333 180.5 76.1667 180.5 82.5C 169.167 82.5 157.833 82.5 146.5 82.5C 146.5 76.1667 146.5 69.8333 146.5 63.5z" stroke="none" fill="#DC9E00" fill-rule="nonzero" />
	</g>
	<g>
        <path d="M55.5 63.5C 65.008 62.1775 74.6746 62.1775 84.5 63.5C 90.5216 69.8538 96.5216 76.1871 102.5 82.5C 99.8333 82.5 97.1667 82.5 94.5 82.5C 94.1667 82.5 93.8333 82.5 93.5 82.5C 90.1667 82.5 86.8333 82.5 83.5 82.5C 83.5 76.1667 83.5 69.8333 83.5 63.5C 74.1667 63.5 64.8333 63.5 55.5 63.5z" stroke="none" fill="#27AE98" fill-rule="nonzero" />
	</g>
	<g>
        <path d="M199.5 82.5C 193.5 82.5 187.5 82.5 181.5 82.5C 181.334 76.4908 181.501 70.4908 182 64.5C 188.036 70.3686 193.87 76.3686 199.5 82.5z" stroke="none" fill="#01AB94" fill-rule="nonzero" />
	</g>
	<g>
        <path d="M55.5 82.5C 64.8333 82.5 74.1667 82.5 83.5 82.5C 86.8333 82.5 90.1667 82.5 93.5 82.5C 93.5 95.5 93.5 108.5 93.5 121.5C 93.5 143.833 93.5 166.167 93.5 188.5C 77.5 188.5 61.5 188.5 45.5 188.5C 45.5 153.167 45.5 117.833 45.5 82.5C 48.8333 82.5 52.1667 82.5 55.5 82.5z" stroke="none" fill="#537982" fill-rule="nonzero" />
	</g>
	<g>
        <path d="M113.5 63.5C 113.5 69.8333 113.5 76.1667 113.5 82.5C 124.5 82.5 135.5 82.5 146.5 82.5C 146.5 88.8333 146.5 95.1667 146.5 101.5C 144.585 101.216 142.919 101.549 141.5 102.5C 130.358 104.648 122.024 110.648 116.5 120.5C 109.167 120.5 101.833 120.5 94.5 120.5C 94.5 107.833 94.5 95.1667 94.5 82.5C 97.1667 82.5 99.8333 82.5 102.5 82.5C 105.833 82.5 109.167 82.5 112.5 82.5C 112.177 75.9779 112.51 69.6446 113.5 63.5z" stroke="none" fill="#FDD92D" fill-rule="nonzero" />
	</g>
	<g>
        <path d="M146.5 82.5C 157.833 82.5 169.167 82.5 180.5 82.5C 180.833 82.5 181.167 82.5 181.5 82.5C 187.5 82.5 193.5 82.5 199.5 82.5C 203.371 82.185 207.038 82.5184 210.5 83.5C 210.5 96.1667 210.5 108.833 210.5 121.5C 199.5 121.5 188.5 121.5 177.5 121.5C 171.34 108.575 161.007 101.908 146.5 101.5C 146.5 95.1667 146.5 88.8333 146.5 82.5z" stroke="none" fill="#ECBF09" fill-rule="nonzero" />
	</g>
	<g>
        <path d="M93.5 82.5C 93.8333 82.5 94.1667 82.5 94.5 82.5C 94.5 95.1667 94.5 107.833 94.5 120.5C 101.833 120.5 109.167 120.5 116.5 120.5C 116.5 121.167 116.167 121.5 115.5 121.5C 108.167 121.5 100.833 121.5 93.5 121.5C 93.5 108.5 93.5 95.5 93.5 82.5z" stroke="none" fill="#E6CE4A" fill-rule="nonzero" />
	</g>
	<g>
        <path d="M210.5 83.5C 225.5 98.1667 240.5 112.833 255.5 127.5C 255.5 132.833 255.5 138.167 255.5 143.5C 246.296 197.548 215.629 233.382 163.5 251C 156.741 252.715 150.075 254.215 143.5 255.5C 132.833 255.5 122.167 255.5 111.5 255.5C 111.5 254.833 111.167 254.5 110.5 254.5C 88.8333 232.5 67.1667 210.5 45.5 188.5C 61.5 188.5 77.5 188.5 93.5 188.5C 111.167 188.5 128.833 188.5 146.5 188.5C 167.833 188.5 189.167 188.5 210.5 188.5C 210.5 166.167 210.5 143.833 210.5 121.5C 210.5 108.833 210.5 96.1667 210.5 83.5z" stroke="none" fill="#04AB94" fill-rule="nonzero" />
	</g>
	<g>
        <path d="M141.5 102.5C 143.167 102.5 144.833 102.5 146.5 102.5C 146.5 105.5 146.5 108.5 146.5 111.5C 129.663 113.839 121.83 123.506 123 140.5C 126.587 152.268 134.42 158.601 146.5 159.5C 147.5 159.5 148.5 159.5 149.5 159.5C 148.791 160.404 147.791 160.737 146.5 160.5C 146.5 163.5 146.5 166.5 146.5 169.5C 121.684 165.906 110.851 151.572 114 126.5C 114.608 124.846 115.108 123.179 115.5 121.5C 116.167 121.5 116.5 121.167 116.5 120.5C 122.024 110.648 130.358 104.648 141.5 102.5z" stroke="none" fill="#557B83" fill-rule="nonzero" />
	</g>
	<g>
        <path d="M141.5 102.5C 142.919 101.549 144.585 101.216 146.5 101.5C 161.007 101.908 171.34 108.575 177.5 121.5C 184.997 144.672 177.331 160.505 154.5 169C 151.854 169.497 149.187 169.664 146.5 169.5C 146.5 166.5 146.5 163.5 146.5 160.5C 147.791 160.737 148.791 160.404 149.5 159.5C 166.649 155.549 173.483 144.883 170 127.5C 165.608 117.058 157.775 111.725 146.5 111.5C 146.5 108.5 146.5 105.5 146.5 102.5C 144.833 102.5 143.167 102.5 141.5 102.5z" stroke="none" fill="#405B5A" fill-rule="nonzero" />
	</g>
	<g>
        <path d="M180.5 101.5C 183.833 101.5 187.167 101.5 190.5 101.5C 190.5 104.833 190.5 108.167 190.5 111.5C 187.167 111.5 183.833 111.5 180.5 111.5C 180.5 108.167 180.5 104.833 180.5 101.5z" stroke="none" fill="#EF3F00" fill-rule="nonzero" />
	</g>
	<g>
        <path d="M146.5 111.5C 157.775 111.725 165.608 117.058 170 127.5C 173.483 144.883 166.649 155.549 149.5 159.5C 148.5 159.5 147.5 159.5 146.5 159.5C 146.5 156.5 146.5 153.5 146.5 150.5C 159.618 147.592 163.785 139.926 159 127.5C 156.536 124.353 153.37 122.353 149.5 121.5C 148.5 121.5 147.5 121.5 146.5 121.5C 146.5 118.167 146.5 114.833 146.5 111.5z" stroke="none" fill="#07AA93" fill-rule="nonzero" />
	</g>
	<g>
        <path d="M146.5 111.5C 146.5 114.833 146.5 118.167 146.5 121.5C 145.833 121.5 145.167 121.5 144.5 121.5C 132.72 125.484 129.553 133.151 135 144.5C 138.043 148.049 141.876 150.049 146.5 150.5C 146.5 153.5 146.5 156.5 146.5 159.5C 134.42 158.601 126.587 152.268 123 140.5C 121.83 123.506 129.663 113.839 146.5 111.5z" stroke="none" fill="#60D5A7" fill-rule="nonzero" />
	</g>
	<g>
        <path d="M93.5 121.5C 100.833 121.5 108.167 121.5 115.5 121.5C 115.108 123.179 114.608 124.846 114 126.5C 110.851 151.572 121.684 165.906 146.5 169.5C 146.5 175.833 146.5 182.167 146.5 188.5C 128.833 188.5 111.167 188.5 93.5 188.5C 93.5 166.167 93.5 143.833 93.5 121.5z" stroke="none" fill="#DCEAF0" fill-rule="nonzero" />
	</g>
	<g>
        <path d="M144.5 121.5C 145.167 121.5 145.833 121.5 146.5 121.5C 147.5 121.5 148.5 121.5 149.5 121.5C 151.333 123.496 151.833 125.829 151 128.5C 149.89 130.037 148.39 130.703 146.5 130.5C 142.028 128.485 141.361 125.485 144.5 121.5z" stroke="none" fill="#CCDBE3" fill-rule="nonzero" />
	</g>
	<g>
        <path d="M177.5 121.5C 188.5 121.5 199.5 121.5 210.5 121.5C 210.5 143.833 210.5 166.167 210.5 188.5C 189.167 188.5 167.833 188.5 146.5 188.5C 146.5 182.167 146.5 175.833 146.5 169.5C 149.187 169.664 151.854 169.497 154.5 169C 177.331 160.505 184.997 144.672 177.5 121.5z" stroke="none" fill="#C3D2DC" fill-rule="nonzero" />
	</g>
	<g>
        <path d="M144.5 121.5C 141.361 125.485 142.028 128.485 146.5 130.5C 146.5 137.167 146.5 143.833 146.5 150.5C 141.876 150.049 138.043 148.049 135 144.5C 129.553 133.151 132.72 125.484 144.5 121.5z" stroke="none" fill="#0AAC95" fill-rule="nonzero" />
	</g>
	<g>
        <path d="M149.5 121.5C 153.37 122.353 156.536 124.353 159 127.5C 163.785 139.926 159.618 147.592 146.5 150.5C 146.5 143.833 146.5 137.167 146.5 130.5C 148.39 130.703 149.89 130.037 151 128.5C 151.833 125.829 151.333 123.496 149.5 121.5z" stroke="none" fill="#029285" fill-rule="nonzero" />
	</g>
</g>
</svg>