<?xml version="1.0" standalone="no"?>
<!DOCTYPE svg PUBLIC "-//W3C//DTD SVG 1.0//EN" "http://www.w3.org/TR/2001/REC-SVG-20010904/DTD/svg10.dtd">
<svg xmlns="http://www.w3.org/2000/svg" xmlns:xlink="http://www.w3.org/1999/xlink" id="body_1" width="36" height="36">

<g transform="matrix(0.140625 0 0 0.140625 0 0)">
	<g>
        <path d="M111.5 -0.5C 122.167 -0.5 132.833 -0.5 143.5 -0.5C 197.548 8.7041 233.382 39.3708 251 91.5C 252.715 98.2585 254.215 104.925 255.5 111.5C 255.5 114.833 255.5 118.167 255.5 121.5C 233.5 99.8333 211.5 78.1667 189.5 56.5C 185.167 55.1667 180.833 55.1667 176.5 56.5C 166.616 58.0505 159.616 63.3838 155.5 72.5C 149.5 66.8333 143.5 61.1667 137.5 55.5C 114.888 53.7906 102.888 64.1239 101.5 86.5C 81.1667 86.5 60.8333 86.5 40.5 86.5C 40.5 108.167 40.5 129.833 40.5 151.5C 40.3343 155.846 40.501 160.179 41 164.5C 41.9947 165.066 42.828 165.733 43.5 166.5C 43.0618 166.435 42.7284 166.601 42.5 167C 45.7635 170.773 49.4302 173.94 53.5 176.5C 48.4857 178.532 44.4857 177.199 41.5 172.5C 41.44 171.957 41.1067 171.624 40.5 171.5C 39.1889 175.984 39.1889 180.317 40.5 184.5C 41.8333 185.5 43.1667 186.5 44.5 187.5C 44.0618 187.435 43.7284 187.601 43.5 188C 65.7016 210.035 87.7016 232.201 109.5 254.5C 61.5205 246.355 27.6871 220.022 8 175.5C 4.19792 164.95 1.36459 154.284 -0.5 143.5C -0.5 132.833 -0.5 122.167 -0.5 111.5C 8.7041 57.4517 39.3708 21.6184 91.5 4C 98.2585 2.28494 104.925 0.784944 111.5 -0.5z" stroke="none" fill="#FED92D" fill-rule="nonzero" fill-opacity="0.99215686" />
	</g>
	<g>
        <path d="M137.5 55.5C 137.5 58.8333 137.5 62.1667 137.5 65.5C 121.444 63.5691 113.11 70.5691 112.5 86.5C 117.5 86.5 122.5 86.5 127.5 86.5C 127.5 89.8333 127.5 93.1667 127.5 96.5C 122.5 96.5 117.5 96.5 112.5 96.5C 112.5 99.8333 112.5 103.167 112.5 106.5C 117.5 106.5 122.5 106.5 127.5 106.5C 136.167 106.5 144.833 106.5 153.5 106.5C 145.016 107.493 136.349 107.826 127.5 107.5C 127.5 110.5 127.5 113.5 127.5 116.5C 136.349 116.174 145.016 116.507 153.5 117.5C 144.833 117.5 136.167 117.5 127.5 117.5C 122.5 117.5 117.5 117.5 112.5 117.5C 112.5 120.833 112.5 124.167 112.5 127.5C 117.5 127.5 122.5 127.5 127.5 127.5C 127.5 130.833 127.5 134.167 127.5 137.5C 122.5 137.5 117.5 137.5 112.5 137.5C 112.5 141.5 112.5 145.5 112.5 149.5C 108.731 149.244 105.064 149.577 101.5 150.5C 101.5 129.167 101.5 107.833 101.5 86.5C 102.888 64.1239 114.888 53.7906 137.5 55.5z" stroke="none" fill="#587C85" fill-rule="nonzero" />
	</g>
	<g>
        <path d="M176.5 56.5C 180.5 56.5 184.5 56.5 188.5 56.5C 188.5 59.5 188.5 62.5 188.5 65.5C 172.462 63.5483 164.129 70.5483 163.5 86.5C 163.5 109.833 163.5 133.167 163.5 156.5C 160.143 154.134 156.81 151.801 153.5 149.5C 153.5 145.5 153.5 141.5 153.5 137.5C 144.833 137.5 136.167 137.5 127.5 137.5C 127.5 134.167 127.5 130.833 127.5 127.5C 136.167 127.5 144.833 127.5 153.5 127.5C 153.5 124.167 153.5 120.833 153.5 117.5C 145.016 116.507 136.349 116.174 127.5 116.5C 127.5 113.5 127.5 110.5 127.5 107.5C 136.349 107.826 145.016 107.493 153.5 106.5C 153.5 103.167 153.5 99.8333 153.5 96.5C 144.833 96.5 136.167 96.5 127.5 96.5C 127.5 93.1667 127.5 89.8333 127.5 86.5C 136.167 86.5 144.833 86.5 153.5 86.5C 154.074 81.8169 154.74 77.1502 155.5 72.5C 159.616 63.3838 166.616 58.0505 176.5 56.5z" stroke="none" fill="#3F5959" fill-rule="nonzero" />
	</g>
	<g>
        <path d="M176.5 56.5C 180.833 55.1667 185.167 55.1667 189.5 56.5C 189.81 59.7131 189.477 62.7131 188.5 65.5C 188.5 62.5 188.5 59.5 188.5 56.5C 184.5 56.5 180.5 56.5 176.5 56.5z" stroke="none" fill="#89853A" fill-rule="nonzero" />
	</g>
	<g>
        <path d="M137.5 55.5C 143.5 61.1667 149.5 66.8333 155.5 72.5C 154.74 77.1502 154.074 81.8169 153.5 86.5C 144.833 86.5 136.167 86.5 127.5 86.5C 122.5 86.5 117.5 86.5 112.5 86.5C 113.11 70.5691 121.444 63.5691 137.5 65.5C 137.5 62.1667 137.5 58.8333 137.5 55.5z" stroke="none" fill="#EABD08" fill-rule="nonzero" />
	</g>
	<g>
        <path d="M189.5 56.5C 211.5 78.1667 233.5 99.8333 255.5 121.5C 255.5 128.833 255.5 136.167 255.5 143.5C 246.296 197.548 215.629 233.382 163.5 251C 156.741 252.715 150.075 254.215 143.5 255.5C 132.833 255.5 122.167 255.5 111.5 255.5C 111.158 254.662 110.492 254.328 109.5 254.5C 87.7016 232.201 65.7016 210.035 43.5 188C 43.7284 187.601 44.0618 187.435 44.5 187.5C 48.5138 187.666 52.5138 187.499 56.5 187C 60.6579 183.839 65.1579 181.339 70 179.5C 74.462 181.937 78.962 184.437 83.5 187C 86.8333 187.667 90.1667 187.667 93.5 187C 98.5994 184.873 103.433 182.373 108 179.5C 112.842 181.339 117.342 183.839 121.5 187C 123.473 187.495 125.473 187.662 127.5 187.5C 133.438 187.532 138.438 185.365 142.5 181C 145.167 180.333 147.833 180.333 150.5 181C 157.393 187.583 165.393 189.25 174.5 186C 181.575 178.735 188.575 178.735 195.5 186C 201.957 189.365 208.29 189.198 214.5 185.5C 215.65 180.684 215.816 175.684 215 170.5C 214.283 171.044 213.783 171.711 213.5 172.5C 209.801 177.396 205.134 178.563 199.5 176C 193.256 169.638 185.923 167.971 177.5 171C 173.885 173.629 170.052 175.796 166 177.5C 161.948 175.796 158.115 173.629 154.5 171C 146.031 167.843 138.698 169.51 132.5 176C 130.846 176.608 129.179 177.108 127.5 177.5C 125.692 177.509 124.025 177.009 122.5 176C 112.214 167.105 102.214 167.438 92.5 177C 90.1667 177.667 87.8333 177.667 85.5 177C 74.9724 167.226 64.3057 167.06 53.5 176.5C 49.4302 173.94 45.7635 170.773 42.5 167C 42.7284 166.601 43.0618 166.435 43.5 166.5C 51.5392 168.574 58.5392 166.74 64.5 161C 67.366 159.543 70.366 159.21 73.5 160C 83.8333 170 94.1667 170 104.5 160C 106.833 159.333 109.167 159.333 111.5 160C 114.876 163.356 118.876 165.69 123.5 167C 126.367 167.801 129.034 167.634 131.5 166.5C 136.731 164.586 141.731 162.253 146.5 159.5C 151.448 161.974 156.448 164.474 161.5 167C 164.167 167.667 166.833 167.667 169.5 167C 174.995 164.751 180.329 162.251 185.5 159.5C 187.299 159.577 188.966 160.077 190.5 161C 197.786 168.148 205.952 169.315 215 164.5C 215.499 159.511 215.666 154.511 215.5 149.5C 215.5 128.5 215.5 107.5 215.5 86.5C 198.167 86.5 180.833 86.5 163.5 86.5C 164.129 70.5483 172.462 63.5483 188.5 65.5C 189.477 62.7131 189.81 59.7131 189.5 56.5z" stroke="none" fill="#EDBF01" fill-rule="nonzero" />
	</g>
	<g>
        <path d="M101.5 86.5C 101.5 107.833 101.5 129.167 101.5 150.5C 97.4572 153.04 93.2905 155.373 89 157.5C 84.4064 154.582 79.5731 152.082 74.5 150C 70.8333 149.333 67.1667 149.333 63.5 150C 59.4715 153.365 54.9715 155.865 50 157.5C 46.1643 156.486 42.9976 154.486 40.5 151.5C 40.5 129.833 40.5 108.167 40.5 86.5C 60.8333 86.5 81.1667 86.5 101.5 86.5z" stroke="none" fill="#DDEBF0" fill-rule="nonzero" />
	</g>
	<g>
        <path d="M163.5 86.5C 180.833 86.5 198.167 86.5 215.5 86.5C 215.5 107.5 215.5 128.5 215.5 149.5C 212.225 155.468 207.225 157.634 200.5 156C 190.167 146 179.833 146 169.5 156C 167.527 156.495 165.527 156.662 163.5 156.5C 163.5 133.167 163.5 109.833 163.5 86.5z" stroke="none" fill="#C5D2DC" fill-rule="nonzero" />
	</g>
	<g>
        <path d="M127.5 96.5C 127.5 99.8333 127.5 103.167 127.5 106.5C 122.5 106.5 117.5 106.5 112.5 106.5C 112.5 103.167 112.5 99.8333 112.5 96.5C 117.5 96.5 122.5 96.5 127.5 96.5z" stroke="none" fill="#DBEAEF" fill-rule="nonzero" />
	</g>
	<g>
        <path d="M127.5 96.5C 136.167 96.5 144.833 96.5 153.5 96.5C 153.5 99.8333 153.5 103.167 153.5 106.5C 144.833 106.5 136.167 106.5 127.5 106.5C 127.5 103.167 127.5 99.8333 127.5 96.5z" stroke="none" fill="#C0CED8" fill-rule="nonzero" />
	</g>
	<g>
        <path d="M127.5 117.5C 127.5 120.833 127.5 124.167 127.5 127.5C 122.5 127.5 117.5 127.5 112.5 127.5C 112.5 124.167 112.5 120.833 112.5 117.5C 117.5 117.5 122.5 117.5 127.5 117.5z" stroke="none" fill="#DCEBF0" fill-rule="nonzero" />
	</g>
	<g>
        <path d="M127.5 117.5C 136.167 117.5 144.833 117.5 153.5 117.5C 153.5 120.833 153.5 124.167 153.5 127.5C 144.833 127.5 136.167 127.5 127.5 127.5C 127.5 124.167 127.5 120.833 127.5 117.5z" stroke="none" fill="#C1D0D9" fill-rule="nonzero" />
	</g>
	<g>
        <path d="M127.5 137.5C 127.5 143.833 127.5 150.167 127.5 156.5C 126.833 156.5 126.167 156.5 125.5 156.5C 121.416 153.76 117.082 151.426 112.5 149.5C 112.5 145.5 112.5 141.5 112.5 137.5C 117.5 137.5 122.5 137.5 127.5 137.5z" stroke="none" fill="#DBEAEF" fill-rule="nonzero" />
	</g>
	<g>
        <path d="M127.5 137.5C 136.167 137.5 144.833 137.5 153.5 137.5C 153.5 141.5 153.5 145.5 153.5 149.5C 144.932 147.523 137.599 149.69 131.5 156C 130.207 156.49 128.873 156.657 127.5 156.5C 127.5 150.167 127.5 143.833 127.5 137.5z" stroke="none" fill="#C0CFD9" fill-rule="nonzero" />
	</g>
	<g>
        <path d="M101.5 150.5C 105.064 149.577 108.731 149.244 112.5 149.5C 117.082 151.426 121.416 153.76 125.5 156.5C 127.273 159.488 127.94 162.821 127.5 166.5C 128.833 166.5 130.167 166.5 131.5 166.5C 129.034 167.634 126.367 167.801 123.5 167C 118.876 165.69 114.876 163.356 111.5 160C 109.167 159.333 106.833 159.333 104.5 160C 94.1667 170 83.8333 170 73.5 160C 70.366 159.21 67.366 159.543 64.5 161C 58.5392 166.74 51.5392 168.574 43.5 166.5C 42.828 165.733 41.9947 165.066 41 164.5C 40.501 160.179 40.3343 155.846 40.5 151.5C 42.9976 154.486 46.1643 156.486 50 157.5C 54.9715 155.865 59.4715 153.365 63.5 150C 67.1667 149.333 70.8333 149.333 74.5 150C 79.5731 152.082 84.4064 154.582 89 157.5C 93.2905 155.373 97.4572 153.04 101.5 150.5z" stroke="none" fill="#65D6A5" fill-rule="nonzero" />
	</g>
	<g>
        <path d="M153.5 149.5C 156.81 151.801 160.143 154.134 163.5 156.5C 165.527 156.662 167.527 156.495 169.5 156C 179.833 146 190.167 146 200.5 156C 207.225 157.634 212.225 155.468 215.5 149.5C 215.666 154.511 215.499 159.511 215 164.5C 205.952 169.315 197.786 168.148 190.5 161C 188.966 160.077 187.299 159.577 185.5 159.5C 180.329 162.251 174.995 164.751 169.5 167C 166.833 167.667 164.167 167.667 161.5 167C 156.448 164.474 151.448 161.974 146.5 159.5C 141.731 162.253 136.731 164.586 131.5 166.5C 130.167 166.5 128.833 166.5 127.5 166.5C 127.94 162.821 127.273 159.488 125.5 156.5C 126.167 156.5 126.833 156.5 127.5 156.5C 128.873 156.657 130.207 156.49 131.5 156C 137.599 149.69 144.932 147.523 153.5 149.5z" stroke="none" fill="#17AD94" fill-rule="nonzero" />
	</g>
	<g>
        <path d="M127.5 177.5C 127.5 180.833 127.5 184.167 127.5 187.5C 125.473 187.662 123.473 187.495 121.5 187C 117.342 183.839 112.842 181.339 108 179.5C 103.433 182.373 98.5994 184.873 93.5 187C 90.1667 187.667 86.8333 187.667 83.5 187C 78.962 184.437 74.462 181.937 70 179.5C 65.1579 181.339 60.6579 183.839 56.5 187C 52.5138 187.499 48.5138 187.666 44.5 187.5C 43.1667 186.5 41.8333 185.5 40.5 184.5C 40.1832 180.298 40.5166 176.298 41.5 172.5C 44.4857 177.199 48.4857 178.532 53.5 176.5C 64.3057 167.06 74.9724 167.226 85.5 177C 87.8333 177.667 90.1667 177.667 92.5 177C 102.214 167.438 112.214 167.105 122.5 176C 124.025 177.009 125.692 177.509 127.5 177.5z" stroke="none" fill="#65D6A4" fill-rule="nonzero" />
	</g>
	<g>
        <path d="M213.5 172.5C 214.485 176.634 214.818 180.968 214.5 185.5C 208.29 189.198 201.957 189.365 195.5 186C 188.575 178.735 181.575 178.735 174.5 186C 165.393 189.25 157.393 187.583 150.5 181C 147.833 180.333 145.167 180.333 142.5 181C 138.438 185.365 133.438 187.532 127.5 187.5C 127.5 184.167 127.5 180.833 127.5 177.5C 129.179 177.108 130.846 176.608 132.5 176C 138.698 169.51 146.031 167.843 154.5 171C 158.115 173.629 161.948 175.796 166 177.5C 170.052 175.796 173.885 173.629 177.5 171C 185.923 167.971 193.256 169.638 199.5 176C 205.134 178.563 209.801 177.396 213.5 172.5z" stroke="none" fill="#17AC91" fill-rule="nonzero" />
	</g>
	<g>
        <path d="M214.5 185.5C 214.818 180.968 214.485 176.634 213.5 172.5C 213.783 171.711 214.283 171.044 215 170.5C 215.816 175.684 215.65 180.684 214.5 185.5z" stroke="none" fill="#5CBB6F" fill-rule="nonzero" />
	</g>
	<g>
        <path d="M41.5 172.5C 40.5166 176.298 40.1832 180.298 40.5 184.5C 39.1889 180.317 39.1889 175.984 40.5 171.5C 41.1067 171.624 41.44 171.957 41.5 172.5z" stroke="none" fill="#B2D869" fill-rule="nonzero" />
	</g>
</g>
</svg>