<?xml version="1.0" standalone="no"?>
<!DOCTYPE svg PUBLIC "-//W3C//DTD SVG 1.0//EN" "http://www.w3.org/TR/2001/REC-SVG-20010904/DTD/svg10.dtd">
<svg xmlns="http://www.w3.org/2000/svg" id="body_1" width="36" height="36">

<g transform="matrix(0.140625 0 0 0.140625 0 0)">
	<g>
        <path d="M111.5 -0.5C 122.167 -0.5 132.833 -0.5 143.5 -0.5C 197.548 8.7041 233.382 39.3708 251 91.5C 252.715 98.2585 254.215 104.925 255.5 111.5C 255.5 121.167 255.5 130.833 255.5 140.5C 238.368 123.868 221.368 107.035 204.5 90C 203.906 89.5357 203.239 89.369 202.5 89.5C 196.947 80.6144 189.281 74.2811 179.5 70.5C 177.784 70.3713 176.117 70.038 174.5 69.5C 172.052 68.5269 169.385 68.1936 166.5 68.5C 155.266 67.0109 144.933 69.6775 135.5 76.5C 126.194 68.8612 117.527 60.5278 109.5 51.5C 107.519 49.8564 105.519 48.1897 103.5 46.5C 101.814 47.8569 100.148 49.1902 98.5 50.5C 95.5 46.8333 92.1667 43.5 88.5 40.5C 85.7131 39.5233 82.7131 39.19 79.5 39.5C 79.5 42.5 79.5 45.5 79.5 48.5C 82.8333 52.1667 86.1667 55.8333 89.5 59.5C 80.403 56.7446 73.903 59.7446 70 68.5C 69.3658 71.5547 69.5325 74.5547 70.5 77.5C 67.1667 74.5 63.8333 71.5 60.5 68.5C 57.7131 67.5233 54.7131 67.19 51.5 67.5C 51.5 70.5 51.5 73.5 51.5 76.5C 54.8333 80.1667 58.1667 83.8333 61.5 87.5C 60.3747 89.1288 59.0414 90.6288 57.5 92C 59.7032 94.3722 62.0365 96.5389 64.5 98.5C 82.2174 117.218 100.551 135.218 119.5 152.5C 98.3499 157.731 82.3499 169.731 71.5 188.5C 65.195 185.21 58.5283 182.877 51.5 181.5C 51.19 184.713 51.5233 187.713 52.5 190.5C 73.0834 211.584 93.9168 232.584 115 253.5C 115.464 254.094 115.631 254.761 115.5 255.5C 114.167 255.5 112.833 255.5 111.5 255.5C 57.4517 246.296 21.6184 215.629 4 163.5C 2.28494 156.741 0.784944 150.075 -0.5 143.5C -0.5 132.833 -0.5 122.167 -0.5 111.5C 8.7041 57.4517 39.3708 21.6184 91.5 4C 98.2585 2.28494 104.925 0.784944 111.5 -0.5z" stroke="none" fill="#DDEBF0" fill-rule="nonzero" fill-opacity="0.9882353" />
	</g>
	<g>
        <path d="M88.5 40.5C 88.5 43.1667 88.5 45.8333 88.5 48.5C 85.5 48.5 82.5 48.5 79.5 48.5C 79.5 45.5 79.5 42.5 79.5 39.5C 82.7131 39.19 85.7131 39.5233 88.5 40.5z" stroke="none" fill="#FD9207" fill-rule="nonzero" />
	</g>
	<g>
        <path d="M88.5 40.5C 92.1667 43.5 95.5 46.8333 98.5 50.5C 97.6971 51.4232 97.5304 52.4232 98 53.5C 102.853 60.1873 106.686 59.5206 109.5 51.5C 117.527 60.5278 126.194 68.8612 135.5 76.5C 123.933 85.6301 117.599 97.6301 116.5 112.5C 122.898 113.113 129.231 114.113 135.5 115.5C 142.475 116.94 149.475 118.274 156.5 119.5C 154.059 130.483 151.725 141.483 149.5 152.5C 143.211 151.628 136.878 151.295 130.5 151.5C 126.821 151.724 123.154 152.058 119.5 152.5C 100.551 135.218 82.2174 117.218 64.5 98.5C 66.2941 96.2034 68.2941 94.0367 70.5 92C 68.3333 89.8333 66.1667 87.6667 64 85.5C 63.2917 86.3805 62.4584 87.0472 61.5 87.5C 58.1667 83.8333 54.8333 80.1667 51.5 76.5C 54.5 76.5 57.5 76.5 60.5 76.5C 60.5 73.8333 60.5 71.1667 60.5 68.5C 63.8333 71.5 67.1667 74.5 70.5 77.5C 75.4867 85.9863 82.4867 88.153 91.5 84C 97.8476 78.0526 99.0143 71.2193 95 63.5C 93.5679 61.5612 91.7346 60.2279 89.5 59.5C 86.1667 55.8333 82.8333 52.1667 79.5 48.5C 82.5 48.5 85.5 48.5 88.5 48.5C 88.5 45.8333 88.5 43.1667 88.5 40.5z" stroke="none" fill="#C5D2DB" fill-rule="nonzero" />
	</g>
	<g>
        <path d="M62.5 46.5C 72.213 49.5508 72.713 53.5508 64 58.5C 61.3688 57.0367 59.2021 55.0367 57.5 52.5C 59.1897 50.4807 60.8564 48.4807 62.5 46.5z" stroke="none" fill="#FB9928" fill-rule="nonzero" />
	</g>
	<g>
        <path d="M109.5 51.5C 106.686 59.5206 102.853 60.1873 98 53.5C 97.5304 52.4232 97.6971 51.4232 98.5 50.5C 100.148 49.1902 101.814 47.8569 103.5 46.5C 105.519 48.1897 107.519 49.8564 109.5 51.5z" stroke="none" fill="#FD9206" fill-rule="nonzero" />
	</g>
	<g>
        <path d="M89.5 59.5C 91.7346 60.2279 93.5679 61.5612 95 63.5C 99.0143 71.2193 97.8476 78.0526 91.5 84C 82.4867 88.153 75.4867 85.9863 70.5 77.5C 69.5325 74.5547 69.3658 71.5547 70 68.5C 73.903 59.7446 80.403 56.7446 89.5 59.5z" stroke="none" fill="#FDDA33" fill-rule="nonzero" />
	</g>
	<g>
        <path d="M60.5 68.5C 60.5 71.1667 60.5 73.8333 60.5 76.5C 57.5 76.5 54.5 76.5 51.5 76.5C 51.5 73.5 51.5 70.5 51.5 67.5C 54.7131 67.19 57.7131 67.5233 60.5 68.5z" stroke="none" fill="#FE9101" fill-rule="nonzero" />
	</g>
	<g>
        <path d="M107.5 67.5C 110.5 67.5 113.5 67.5 116.5 67.5C 116.5 70.5 116.5 73.5 116.5 76.5C 116.5 73.5 116.5 70.5 116.5 67.5C 113.5 67.5 110.5 67.5 107.5 67.5z" stroke="none" fill="#FD920A" fill-rule="nonzero" />
	</g>
	<g>
        <path d="M166.5 68.5C 161.643 68.5077 157.31 70.0077 153.5 73C 141.579 84.5811 135.579 98.7478 135.5 115.5C 129.231 114.113 122.898 113.113 116.5 112.5C 117.599 97.6301 123.933 85.6301 135.5 76.5C 144.933 69.6775 155.266 67.0109 166.5 68.5z" stroke="none" fill="#10AC96" fill-rule="nonzero" />
	</g>
	<g>
        <path d="M166.5 68.5C 169.385 68.1936 172.052 68.5269 174.5 69.5C 172.66 71.6586 171.493 74.3253 171 77.5C 167.723 91.8247 164.557 106.158 161.5 120.5C 159.784 120.371 158.117 120.038 156.5 119.5C 149.475 118.274 142.475 116.94 135.5 115.5C 135.579 98.7478 141.579 84.5811 153.5 73C 157.31 70.0077 161.643 68.5077 166.5 68.5z" stroke="none" fill="#60D6A7" fill-rule="nonzero" />
	</g>
	<g>
        <path d="M174.5 69.5C 176.117 70.038 177.784 70.3713 179.5 70.5C 190.444 82.2369 194.611 96.2369 192 112.5C 191.484 117.243 190.651 121.91 189.5 126.5C 181.419 125.084 173.419 123.417 165.5 121.5C 163.901 121.768 162.568 121.434 161.5 120.5C 164.557 106.158 167.723 91.8247 171 77.5C 171.493 74.3253 172.66 71.6586 174.5 69.5z" stroke="none" fill="#05AB94" fill-rule="nonzero" />
	</g>
	<g>
        <path d="M179.5 70.5C 189.281 74.2811 196.947 80.6144 202.5 89.5C 209.614 101.621 211.447 114.621 208 128.5C 207.107 129.081 206.107 129.415 205 129.5C 199.832 128.433 194.666 127.433 189.5 126.5C 190.651 121.91 191.484 117.243 192 112.5C 194.611 96.2369 190.444 82.2369 179.5 70.5z" stroke="none" fill="#099285" fill-rule="nonzero" />
	</g>
	<g>
        <path d="M107.5 67.5C 107.5 70.5 107.5 73.5 107.5 76.5C 110.5 76.5 113.5 76.5 116.5 76.5C 113.375 77.4794 110.042 77.8128 106.5 77.5C 106.187 73.9581 106.521 70.6248 107.5 67.5z" stroke="none" fill="#DCB987" fill-rule="nonzero" />
	</g>
	<g>
        <path d="M64.5 98.5C 62.0365 96.5389 59.7032 94.3722 57.5 92C 59.0414 90.6288 60.3747 89.1288 61.5 87.5C 62.4584 87.0472 63.2917 86.3805 64 85.5C 66.1667 87.6667 68.3333 89.8333 70.5 92C 68.2941 94.0367 66.2941 96.2034 64.5 98.5z" stroke="none" fill="#FD9309" fill-rule="nonzero" />
	</g>
	<g>
        <path d="M102.5 85.5C 105.407 86.7341 107.741 88.7341 109.5 91.5C 107.5 93.8333 105.5 96.1667 103.5 98.5C 100.963 96.7979 98.9633 94.6312 97.5 92C 98.9852 89.683 100.652 87.5164 102.5 85.5z" stroke="none" fill="#FA9620" fill-rule="nonzero" />
	</g>
	<g>
        <path d="M202.5 89.5C 203.239 89.369 203.906 89.5357 204.5 90C 221.368 107.035 238.368 123.868 255.5 140.5C 255.5 141.5 255.5 142.5 255.5 143.5C 246.296 197.548 215.629 233.382 163.5 251C 156.741 252.715 150.075 254.215 143.5 255.5C 134.167 255.5 124.833 255.5 115.5 255.5C 115.631 254.761 115.464 254.094 115 253.5C 93.9168 232.584 73.0834 211.584 52.5 190.5C 56.7802 192.64 61.1136 194.807 65.5 197C 70.0947 198.393 74.7613 198.726 79.5 198C 85.7357 195.883 91.7357 193.216 97.5 190C 99 189.833 100.5 189.667 102 189.5C 109.99 191.747 117.824 194.414 125.5 197.5C 128.64 198.641 131.973 198.808 135.5 198C 142.952 195.358 150.285 192.525 157.5 189.5C 160.912 190.02 164.245 190.853 167.5 192C 175.977 198.382 185.311 200.049 195.5 197C 200.269 194.282 205.269 192.115 210.5 190.5C 210.5 187.167 210.5 183.833 210.5 180.5C 206.035 181.433 201.702 182.766 197.5 184.5C 187.379 170.707 174.379 160.707 158.5 154.5C 160.707 143.465 163.04 132.465 165.5 121.5C 173.419 123.417 181.419 125.084 189.5 126.5C 194.666 127.433 199.832 128.433 205 129.5C 206.107 129.415 207.107 129.081 208 128.5C 211.447 114.621 209.614 101.621 202.5 89.5z" stroke="none" fill="#C4D3DC" fill-rule="nonzero" />
	</g>
	<g>
        <path d="M79.5 95.5C 82.5 95.5 85.5 95.5 88.5 95.5C 88.5 98.5 88.5 101.5 88.5 104.5C 85.5 104.5 82.5 104.5 79.5 104.5C 79.5 101.5 79.5 98.5 79.5 95.5z" stroke="none" fill="#FE9103" fill-rule="nonzero" />
	</g>
	<g>
        <path d="M156.5 119.5C 158.117 120.038 159.784 120.371 161.5 120.5C 162.568 121.434 163.901 121.768 165.5 121.5C 163.04 132.465 160.707 143.465 158.5 154.5C 155.417 154.084 152.417 153.417 149.5 152.5C 151.725 141.483 154.059 130.483 156.5 119.5z" stroke="none" fill="#415B5B" fill-rule="nonzero" />
	</g>
	<g>
        <path d="M130.5 151.5C 136.878 151.295 143.211 151.628 149.5 152.5C 152.417 153.417 155.417 154.084 158.5 154.5C 174.379 160.707 187.379 170.707 197.5 184.5C 192.498 188.148 186.831 189.315 180.5 188C 166.656 178.475 152.656 178.141 138.5 187C 135.883 187.822 133.216 188.322 130.5 188.5C 130.5 176.167 130.5 163.833 130.5 151.5z" stroke="none" fill="#EDBF04" fill-rule="nonzero" />
	</g>
	<g>
        <path d="M130.5 151.5C 130.5 163.833 130.5 176.167 130.5 188.5C 128.473 188.662 126.473 188.495 124.5 188C 117.806 183.479 110.473 180.979 102.5 180.5C 100.167 180.667 97.8333 180.833 95.5 181C 90.1667 183.333 84.8333 185.667 79.5 188C 76.854 188.497 74.1873 188.664 71.5 188.5C 82.3499 169.731 98.3499 157.731 119.5 152.5C 123.154 152.058 126.821 151.724 130.5 151.5z" stroke="none" fill="#FEDA30" fill-rule="nonzero" />
	</g>
	<g>
        <path d="M130.5 188.5C 130.5 191.5 130.5 194.5 130.5 197.5C 128.833 197.5 127.167 197.5 125.5 197.5C 117.824 194.414 109.99 191.747 102 189.5C 100.5 189.667 99 189.833 97.5 190C 91.7357 193.216 85.7357 195.883 79.5 198C 74.7613 198.726 70.0947 198.393 65.5 197C 61.1136 194.807 56.7802 192.64 52.5 190.5C 51.5233 187.713 51.19 184.713 51.5 181.5C 58.5283 182.877 65.195 185.21 71.5 188.5C 74.1873 188.664 76.854 188.497 79.5 188C 84.8333 185.667 90.1667 183.333 95.5 181C 97.8333 180.833 100.167 180.667 102.5 180.5C 110.473 180.979 117.806 183.479 124.5 188C 126.473 188.495 128.473 188.662 130.5 188.5z" stroke="none" fill="#65D7A7" fill-rule="nonzero" />
	</g>
	<g>
        <path d="M197.5 184.5C 201.702 182.766 206.035 181.433 210.5 180.5C 210.5 183.833 210.5 187.167 210.5 190.5C 205.269 192.115 200.269 194.282 195.5 197C 185.311 200.049 175.977 198.382 167.5 192C 164.245 190.853 160.912 190.02 157.5 189.5C 150.285 192.525 142.952 195.358 135.5 198C 131.973 198.808 128.64 198.641 125.5 197.5C 127.167 197.5 128.833 197.5 130.5 197.5C 130.5 194.5 130.5 191.5 130.5 188.5C 133.216 188.322 135.883 187.822 138.5 187C 152.656 178.141 166.656 178.475 180.5 188C 186.831 189.315 192.498 188.148 197.5 184.5z" stroke="none" fill="#18AD95" fill-rule="nonzero" />
	</g>
</g>
</svg>