<?xml version="1.0" standalone="no"?>
<!DOCTYPE svg PUBLIC "-//W3C//DTD SVG 1.0//EN" "http://www.w3.org/TR/2001/REC-SVG-20010904/DTD/svg10.dtd">
<svg xmlns="http://www.w3.org/2000/svg" id="body_1" width="36" height="36">

<g transform="matrix(0.140625 0 0 0.140625 0 0)">
	<g>
        <path d="M111.5 -0.5C 122.167 -0.5 132.833 -0.5 143.5 -0.5C 197.548 8.7041 233.382 39.3708 251 91.5C 252.715 98.2585 254.215 104.925 255.5 111.5C 255.5 115.5 255.5 119.5 255.5 123.5C 231.5 99.8333 207.5 76.1667 183.5 52.5C 166.341 51.5033 149.008 51.17 131.5 51.5C 131.5 54.1667 131.5 56.8333 131.5 59.5C 128.833 57.1667 126.167 54.8333 123.5 52.5C 106.341 51.5033 89.008 51.17 71.5 51.5C 71.19 54.7131 71.5233 57.7131 72.5 60.5C 75.1667 60.5 77.8333 60.5 80.5 60.5C 80.5 69.1667 80.5 77.8333 80.5 86.5C 77.8333 86.5 75.1667 86.5 72.5 86.5C 69.62 109.178 66.62 131.844 63.5 154.5C 63.5 154.833 63.5 155.167 63.5 155.5C 63.5 158.167 63.5 160.833 63.5 163.5C 60.5 163.5 57.5 163.5 54.5 163.5C 54.5 174.833 54.5 186.167 54.5 197.5C 74.5 197.5 94.5 197.5 114.5 197.5C 95.0043 198.332 75.3376 198.832 55.5 199C 74.0351 217.368 92.3684 235.868 110.5 254.5C 56.7651 245.604 21.2651 215.271 4 163.5C 2.28494 156.741 0.784944 150.075 -0.5 143.5C -0.5 132.833 -0.5 122.167 -0.5 111.5C 8.7041 57.4517 39.3708 21.6184 91.5 4C 98.2585 2.28494 104.925 0.784944 111.5 -0.5z" stroke="none" fill="#FE631A" fill-rule="nonzero" fill-opacity="0.9882353" />
	</g>
	<g>
        <path d="M123.5 52.5C 123.806 55.3854 123.473 58.0521 122.5 60.5C 122.5 57.8333 122.5 55.1667 122.5 52.5C 105.833 52.5 89.1667 52.5 72.5 52.5C 72.5 55.1667 72.5 57.8333 72.5 60.5C 71.5233 57.7131 71.19 54.7131 71.5 51.5C 89.008 51.17 106.341 51.5033 123.5 52.5z" stroke="none" fill="#A36E51" fill-rule="nonzero" />
	</g>
	<g>
        <path d="M183.5 52.5C 183.806 55.3854 183.473 58.0521 182.5 60.5C 182.5 57.8333 182.5 55.1667 182.5 52.5C 165.833 52.5 149.167 52.5 132.5 52.5C 132.5 55.1667 132.5 57.8333 132.5 60.5C 131.833 60.5 131.5 60.1667 131.5 59.5C 131.5 56.8333 131.5 54.1667 131.5 51.5C 149.008 51.17 166.341 51.5033 183.5 52.5z" stroke="none" fill="#975C3A" fill-rule="nonzero" />
	</g>
	<g>
        <path d="M122.5 60.5C 119.833 60.5 117.167 60.5 114.5 60.5C 103.167 60.5 91.8333 60.5 80.5 60.5C 77.8333 60.5 75.1667 60.5 72.5 60.5C 72.5 57.8333 72.5 55.1667 72.5 52.5C 89.1667 52.5 105.833 52.5 122.5 52.5C 122.5 55.1667 122.5 57.8333 122.5 60.5z" stroke="none" fill="#537982" fill-rule="nonzero" />
	</g>
	<g>
        <path d="M182.5 60.5C 179.833 60.5 177.167 60.5 174.5 60.5C 163.167 60.5 151.833 60.5 140.5 60.5C 137.833 60.5 135.167 60.5 132.5 60.5C 132.5 57.8333 132.5 55.1667 132.5 52.5C 149.167 52.5 165.833 52.5 182.5 52.5C 182.5 55.1667 182.5 57.8333 182.5 60.5z" stroke="none" fill="#3E5958" fill-rule="nonzero" />
	</g>
	<g>
        <path d="M123.5 52.5C 126.167 54.8333 128.833 57.1667 131.5 59.5C 131.5 60.1667 131.833 60.5 132.5 60.5C 135.167 60.5 137.833 60.5 140.5 60.5C 140.5 69.1667 140.5 77.8333 140.5 86.5C 140.5 89.1667 140.5 91.8333 140.5 94.5C 131.833 94.5 123.167 94.5 114.5 94.5C 114.5 91.8333 114.5 89.1667 114.5 86.5C 114.5 77.8333 114.5 69.1667 114.5 60.5C 117.167 60.5 119.833 60.5 122.5 60.5C 123.473 58.0521 123.806 55.3854 123.5 52.5z" stroke="none" fill="#EE3800" fill-rule="nonzero" />
	</g>
	<g>
        <path d="M183.5 52.5C 207.5 76.1667 231.5 99.8333 255.5 123.5C 255.5 130.167 255.5 136.833 255.5 143.5C 246.296 197.548 215.629 233.382 163.5 251C 156.741 252.715 150.075 254.215 143.5 255.5C 132.833 255.5 122.167 255.5 111.5 255.5C 111.5 254.833 111.167 254.5 110.5 254.5C 92.3684 235.868 74.0351 217.368 55.5 199C 75.3376 198.832 95.0043 198.332 114.5 197.5C 114.5 186.167 114.5 174.833 114.5 163.5C 111.833 163.5 109.167 163.5 106.5 163.5C 106.5 160.5 106.5 157.5 106.5 154.5C 109.167 154.5 111.833 154.5 114.5 154.5C 114.5 151.833 114.5 149.167 114.5 146.5C 118.833 146.5 123.167 146.5 127.5 146.5C 131.833 146.5 136.167 146.5 140.5 146.5C 140.5 149.167 140.5 151.833 140.5 154.5C 143.167 154.5 145.833 154.5 148.5 154.5C 148.5 157.5 148.5 160.5 148.5 163.5C 145.833 163.5 143.167 163.5 140.5 163.5C 140.5 174.833 140.5 186.167 140.5 197.5C 160.5 197.5 180.5 197.5 200.5 197.5C 200.5 186.167 200.5 174.833 200.5 163.5C 197.5 163.5 194.5 163.5 191.5 163.5C 191.5 160.833 191.5 158.167 191.5 155.5C 191.5 155.167 191.5 154.833 191.5 154.5C 189.062 131.766 186.062 109.099 182.5 86.5C 179.833 86.5 177.167 86.5 174.5 86.5C 174.5 77.8333 174.5 69.1667 174.5 60.5C 177.167 60.5 179.833 60.5 182.5 60.5C 183.473 58.0521 183.806 55.3854 183.5 52.5z" stroke="none" fill="#EF3800" fill-rule="nonzero" />
	</g>
	<g>
        <path d="M140.5 60.5C 151.833 60.5 163.167 60.5 174.5 60.5C 174.5 69.1667 174.5 77.8333 174.5 86.5C 163.167 86.5 151.833 86.5 140.5 86.5C 140.5 77.8333 140.5 69.1667 140.5 60.5z" stroke="none" fill="#293939" fill-rule="nonzero" />
	</g>
	<g>
        <path d="M80.5 60.5C 91.8333 60.5 103.167 60.5 114.5 60.5C 114.5 69.1667 114.5 77.8333 114.5 86.5C 103.167 86.5 91.8333 86.5 80.5 86.5C 80.5 77.8333 80.5 69.1667 80.5 60.5z" stroke="none" fill="#3E5959" fill-rule="nonzero" />
	</g>
	<g>
        <path d="M80.5 86.5C 91.8333 86.5 103.167 86.5 114.5 86.5C 114.5 89.1667 114.5 91.8333 114.5 94.5C 114.5 94.8333 114.5 95.1667 114.5 95.5C 114.5 112.5 114.5 129.5 114.5 146.5C 114.5 149.167 114.5 151.833 114.5 154.5C 111.833 154.5 109.167 154.5 106.5 154.5C 92.1667 154.5 77.8333 154.5 63.5 154.5C 66.62 131.844 69.62 109.178 72.5 86.5C 75.1667 86.5 77.8333 86.5 80.5 86.5z" stroke="none" fill="#FFD92C" fill-rule="nonzero" />
	</g>
	<g>
        <path d="M140.5 86.5C 151.833 86.5 163.167 86.5 174.5 86.5C 177.167 86.5 179.833 86.5 182.5 86.5C 186.062 109.099 189.062 131.766 191.5 154.5C 177.167 154.5 162.833 154.5 148.5 154.5C 145.833 154.5 143.167 154.5 140.5 154.5C 140.5 151.833 140.5 149.167 140.5 146.5C 140.5 129.167 140.5 111.833 140.5 94.5C 140.5 91.8333 140.5 89.1667 140.5 86.5z" stroke="none" fill="#EEBE00" fill-rule="nonzero" />
	</g>
	<g>
        <path d="M114.5 95.5C 118.833 95.5 123.167 95.5 127.5 95.5C 127.5 101.167 127.5 106.833 127.5 112.5C 126.167 112.5 124.833 112.5 123.5 112.5C 123.5 118.167 123.5 123.833 123.5 129.5C 124.833 129.5 126.167 129.5 127.5 129.5C 127.5 135.167 127.5 140.833 127.5 146.5C 123.167 146.5 118.833 146.5 114.5 146.5C 114.5 129.5 114.5 112.5 114.5 95.5z" stroke="none" fill="#ECBE02" fill-rule="nonzero" />
	</g>
	<g>
        <path d="M114.5 95.5C 114.5 95.1667 114.5 94.8333 114.5 94.5C 123.167 94.5 131.833 94.5 140.5 94.5C 140.5 111.833 140.5 129.167 140.5 146.5C 136.167 146.5 131.833 146.5 127.5 146.5C 127.5 140.833 127.5 135.167 127.5 129.5C 129.099 129.768 130.432 129.434 131.5 128.5C 131.5 123.167 131.5 117.833 131.5 112.5C 130.167 112.5 128.833 112.5 127.5 112.5C 127.5 106.833 127.5 101.167 127.5 95.5C 123.167 95.5 118.833 95.5 114.5 95.5z" stroke="none" fill="#D99B02" fill-rule="nonzero" />
	</g>
	<g>
        <path d="M127.5 112.5C 127.5 117.833 127.5 123.167 127.5 128.5C 128.833 128.5 130.167 128.5 131.5 128.5C 130.432 129.434 129.099 129.768 127.5 129.5C 126.167 129.5 124.833 129.5 123.5 129.5C 123.5 123.833 123.5 118.167 123.5 112.5C 124.833 112.5 126.167 112.5 127.5 112.5z" stroke="none" fill="#3E5856" fill-rule="nonzero" />
	</g>
	<g>
        <path d="M127.5 112.5C 128.833 112.5 130.167 112.5 131.5 112.5C 131.5 117.833 131.5 123.167 131.5 128.5C 130.167 128.5 128.833 128.5 127.5 128.5C 127.5 123.167 127.5 117.833 127.5 112.5z" stroke="none" fill="#283938" fill-rule="nonzero" />
	</g>
	<g>
        <path d="M63.5 155.5C 77.5 155.5 91.5 155.5 105.5 155.5C 105.5 158.167 105.5 160.833 105.5 163.5C 91.5 163.5 77.5 163.5 63.5 163.5C 63.5 160.833 63.5 158.167 63.5 155.5z" stroke="none" fill="#3E5959" fill-rule="nonzero" />
	</g>
	<g>
        <path d="M63.5 155.5C 63.5 155.167 63.5 154.833 63.5 154.5C 77.8333 154.5 92.1667 154.5 106.5 154.5C 106.5 157.5 106.5 160.5 106.5 163.5C 106.167 163.5 105.833 163.5 105.5 163.5C 105.5 160.833 105.5 158.167 105.5 155.5C 91.5 155.5 77.5 155.5 63.5 155.5z" stroke="none" fill="#8E6D3C" fill-rule="nonzero" />
	</g>
	<g>
        <path d="M148.5 154.5C 162.833 154.5 177.167 154.5 191.5 154.5C 191.5 154.833 191.5 155.167 191.5 155.5C 177.5 155.5 163.5 155.5 149.5 155.5C 149.5 158.167 149.5 160.833 149.5 163.5C 149.167 163.5 148.833 163.5 148.5 163.5C 148.5 160.5 148.5 157.5 148.5 154.5z" stroke="none" fill="#7E5522" fill-rule="nonzero" />
	</g>
	<g>
        <path d="M191.5 155.5C 191.5 158.167 191.5 160.833 191.5 163.5C 177.5 163.5 163.5 163.5 149.5 163.5C 149.5 160.833 149.5 158.167 149.5 155.5C 163.5 155.5 177.5 155.5 191.5 155.5z" stroke="none" fill="#283938" fill-rule="nonzero" />
	</g>
	<g>
        <path d="M63.5 163.5C 77.5 163.5 91.5 163.5 105.5 163.5C 105.833 163.5 106.167 163.5 106.5 163.5C 109.167 163.5 111.833 163.5 114.5 163.5C 114.5 174.833 114.5 186.167 114.5 197.5C 94.5 197.5 74.5 197.5 54.5 197.5C 54.5 186.167 54.5 174.833 54.5 163.5C 57.5 163.5 60.5 163.5 63.5 163.5z" stroke="none" fill="#537982" fill-rule="nonzero" />
	</g>
	<g>
        <path d="M148.5 163.5C 148.833 163.5 149.167 163.5 149.5 163.5C 163.5 163.5 177.5 163.5 191.5 163.5C 194.5 163.5 197.5 163.5 200.5 163.5C 200.5 174.833 200.5 186.167 200.5 197.5C 180.5 197.5 160.5 197.5 140.5 197.5C 140.5 186.167 140.5 174.833 140.5 163.5C 143.167 163.5 145.833 163.5 148.5 163.5z" stroke="none" fill="#3E5958" fill-rule="nonzero" />
	</g>
</g>
</svg>