<?xml version="1.0" standalone="no"?>
<!DOCTYPE svg PUBLIC "-//W3C//DTD SVG 1.0//EN" "http://www.w3.org/TR/2001/REC-SVG-20010904/DTD/svg10.dtd">
<svg xmlns="http://www.w3.org/2000/svg" id="body_1" width="36" height="36">

<g transform="matrix(0.140625 0 0 0.140625 0 0)">
	<g>
        <path d="M111.5 -0.5C 122.167 -0.5 132.833 -0.5 143.5 -0.5C 192.338 7.49258 226.838 34.1592 247 79.5C 250.13 88.0262 252.63 96.6929 254.5 105.5C 236.585 89.0874 219.085 72.0874 202 54.5C 201.5 89.4984 201.333 124.498 201.5 159.5C 201.167 159.5 200.833 159.5 200.5 159.5C 200.5 124.167 200.5 88.8333 200.5 53.5C 197.833 53.5 195.167 53.5 192.5 53.5C 191.527 55.9479 191.194 58.6146 191.5 61.5C 151.33 61.1681 111.33 61.5014 71.5 62.5C 68.5 62.5 65.5 62.5 62.5 62.5C 62.5 59.5 62.5 56.5 62.5 53.5C 59.5 53.5 56.5 53.5 53.5 53.5C 53.1683 89.0039 53.5016 124.337 54.5 159.5C 54.5 173.167 54.5 186.833 54.5 200.5C 71.4649 217.965 88.6316 235.299 106 252.5C 106.464 253.094 106.631 253.761 106.5 254.5C 60.0126 245.175 27.1792 218.842 8 175.5C 4.19792 164.95 1.36459 154.284 -0.5 143.5C -0.5 132.833 -0.5 122.167 -0.5 111.5C 8.7041 57.4517 39.3708 21.6184 91.5 4C 98.2585 2.28494 104.925 0.784944 111.5 -0.5z" stroke="none" fill="#FE631A" fill-rule="nonzero" fill-opacity="0.9882353" />
	</g>
	<g>
        <path d="M62.5 62.5C 62.5 65.5 62.5 68.5 62.5 71.5C 62.5 74.1667 62.5 76.8333 62.5 79.5C 62.5 82.5 62.5 85.5 62.5 88.5C 62.5 91.1667 62.5 93.8333 62.5 96.5C 62.5 99.5 62.5 102.5 62.5 105.5C 62.5 108.5 62.5 111.5 62.5 114.5C 62.5 117.167 62.5 119.833 62.5 122.5C 62.5 134.833 62.5 147.167 62.5 159.5C 59.8333 159.5 57.1667 159.5 54.5 159.5C 53.5016 124.337 53.1683 89.0039 53.5 53.5C 56.5 53.5 59.5 53.5 62.5 53.5C 62.5 56.5 62.5 59.5 62.5 62.5z" stroke="none" fill="#5F787D" fill-rule="nonzero" />
	</g>
	<g>
        <path d="M192.5 53.5C 195.167 53.5 197.833 53.5 200.5 53.5C 200.5 88.8333 200.5 124.167 200.5 159.5C 197.833 159.5 195.167 159.5 192.5 159.5C 192.5 147.5 192.5 135.5 192.5 123.5C 192.5 123.167 192.5 122.833 192.5 122.5C 192.5 119.5 192.5 116.5 192.5 113.5C 192.5 110.833 192.5 108.167 192.5 105.5C 192.5 102.5 192.5 99.5 192.5 96.5C 192.5 93.8333 192.5 91.1667 192.5 88.5C 192.5 85.5 192.5 82.5 192.5 79.5C 192.5 76.8333 192.5 74.1667 192.5 71.5C 192.5 68.5 192.5 65.5 192.5 62.5C 192.5 59.5 192.5 56.5 192.5 53.5z" stroke="none" fill="#3E5958" fill-rule="nonzero" />
	</g>
	<g>
        <path d="M254.5 105.5C 254.205 107.735 254.539 109.735 255.5 111.5C 255.5 122.167 255.5 132.833 255.5 143.5C 246.296 197.548 215.629 233.382 163.5 251C 156.741 252.715 150.075 254.215 143.5 255.5C 132.833 255.5 122.167 255.5 111.5 255.5C 110.081 254.549 108.415 254.216 106.5 254.5C 106.631 253.761 106.464 253.094 106 252.5C 88.6316 235.299 71.4649 217.965 54.5 200.5C 78.8333 200.5 103.167 200.5 127.5 200.5C 152.167 200.5 176.833 200.5 201.5 200.5C 201.5 186.833 201.5 173.167 201.5 159.5C 201.333 124.498 201.5 89.4984 202 54.5C 219.085 72.0874 236.585 89.0874 254.5 105.5z" stroke="none" fill="#F03800" fill-rule="nonzero" />
	</g>
	<g>
        <path d="M192.5 53.5C 192.5 56.5 192.5 59.5 192.5 62.5C 170.833 62.5 149.167 62.5 127.5 62.5C 108.833 62.5 90.1667 62.5 71.5 62.5C 111.33 61.5014 151.33 61.1681 191.5 61.5C 191.194 58.6146 191.527 55.9479 192.5 53.5z" stroke="none" fill="#F27135" fill-rule="nonzero" />
	</g>
	<g>
        <path d="M62.5 62.5C 65.5 62.5 68.5 62.5 71.5 62.5C 90.1667 62.5 108.833 62.5 127.5 62.5C 127.5 82.5 127.5 102.5 127.5 122.5C 105.833 122.5 84.1667 122.5 62.5 122.5C 62.5 119.833 62.5 117.167 62.5 114.5C 71.1667 114.5 79.8333 114.5 88.5 114.5C 88.5 111.5 88.5 108.5 88.5 105.5C 79.8333 105.5 71.1667 105.5 62.5 105.5C 62.5 102.5 62.5 99.5 62.5 96.5C 71.1667 96.5 79.8333 96.5 88.5 96.5C 88.5 93.8333 88.5 91.1667 88.5 88.5C 79.8333 88.5 71.1667 88.5 62.5 88.5C 62.5 85.5 62.5 82.5 62.5 79.5C 71.1667 79.5 79.8333 79.5 88.5 79.5C 88.5 76.8333 88.5 74.1667 88.5 71.5C 79.8333 71.5 71.1667 71.5 62.5 71.5C 62.5 68.5 62.5 65.5 62.5 62.5z" stroke="none" fill="#C6CFD7" fill-rule="nonzero" />
	</g>
	<g>
        <path d="M127.5 62.5C 149.167 62.5 170.833 62.5 192.5 62.5C 192.5 65.5 192.5 68.5 192.5 71.5C 183.833 71.5 175.167 71.5 166.5 71.5C 166.5 74.1667 166.5 76.8333 166.5 79.5C 175.167 79.5 183.833 79.5 192.5 79.5C 192.5 82.5 192.5 85.5 192.5 88.5C 183.833 88.5 175.167 88.5 166.5 88.5C 166.5 91.1667 166.5 93.8333 166.5 96.5C 175.167 96.5 183.833 96.5 192.5 96.5C 192.5 99.5 192.5 102.5 192.5 105.5C 183.833 105.5 175.167 105.5 166.5 105.5C 166.5 108.167 166.5 110.833 166.5 113.5C 175.167 113.5 183.833 113.5 192.5 113.5C 192.5 116.5 192.5 119.5 192.5 122.5C 170.833 122.5 149.167 122.5 127.5 122.5C 127.5 102.5 127.5 82.5 127.5 62.5z" stroke="none" fill="#A1AAB7" fill-rule="nonzero" />
	</g>
	<g>
        <path d="M97.5 71.5C 105.984 70.507 114.651 70.1736 123.5 70.5C 123.81 73.7131 123.477 76.7131 122.5 79.5C 122.5 76.8333 122.5 74.1667 122.5 71.5C 114.167 71.5 105.833 71.5 97.5 71.5z" stroke="none" fill="#DC826A" fill-rule="nonzero" />
	</g>
	<g>
        <path d="M62.5 71.5C 71.1667 71.5 79.8333 71.5 88.5 71.5C 88.5 74.1667 88.5 76.8333 88.5 79.5C 79.8333 79.5 71.1667 79.5 62.5 79.5C 62.5 76.8333 62.5 74.1667 62.5 71.5z" stroke="none" fill="#EF3800" fill-rule="nonzero" />
	</g>
	<g>
        <path d="M97.5 71.5C 105.833 71.5 114.167 71.5 122.5 71.5C 122.5 74.1667 122.5 76.8333 122.5 79.5C 114.167 79.5 105.833 79.5 97.5 79.5C 97.5 76.8333 97.5 74.1667 97.5 71.5z" stroke="none" fill="#EF3800" fill-rule="nonzero" />
	</g>
	<g>
        <path d="M132.5 71.5C 140.833 71.5 149.167 71.5 157.5 71.5C 157.5 74.1667 157.5 76.8333 157.5 79.5C 149.167 79.5 140.833 79.5 132.5 79.5C 132.5 76.8333 132.5 74.1667 132.5 71.5z" stroke="none" fill="#EF3800" fill-rule="nonzero" />
	</g>
	<g>
        <path d="M192.5 71.5C 192.5 74.1667 192.5 76.8333 192.5 79.5C 183.833 79.5 175.167 79.5 166.5 79.5C 166.5 76.8333 166.5 74.1667 166.5 71.5C 175.167 71.5 183.833 71.5 192.5 71.5z" stroke="none" fill="#EF3800" fill-rule="nonzero" />
	</g>
	<g>
        <path d="M62.5 88.5C 71.1667 88.5 79.8333 88.5 88.5 88.5C 88.5 91.1667 88.5 93.8333 88.5 96.5C 79.8333 96.5 71.1667 96.5 62.5 96.5C 62.5 93.8333 62.5 91.1667 62.5 88.5z" stroke="none" fill="#EF3800" fill-rule="nonzero" />
	</g>
	<g>
        <path d="M97.5 88.5C 106.167 88.5 114.833 88.5 123.5 88.5C 123.5 91.1667 123.5 93.8333 123.5 96.5C 114.833 96.5 106.167 96.5 97.5 96.5C 97.5 93.8333 97.5 91.1667 97.5 88.5z" stroke="none" fill="#EF3A03" fill-rule="nonzero" />
	</g>
	<g>
        <path d="M132.5 88.5C 140.833 88.5 149.167 88.5 157.5 88.5C 157.5 91.1667 157.5 93.8333 157.5 96.5C 149.167 96.5 140.833 96.5 132.5 96.5C 132.5 93.8333 132.5 91.1667 132.5 88.5z" stroke="none" fill="#EF3800" fill-rule="nonzero" />
	</g>
	<g>
        <path d="M192.5 88.5C 192.5 91.1667 192.5 93.8333 192.5 96.5C 183.833 96.5 175.167 96.5 166.5 96.5C 166.5 93.8333 166.5 91.1667 166.5 88.5C 175.167 88.5 183.833 88.5 192.5 88.5z" stroke="none" fill="#EF3800" fill-rule="nonzero" />
	</g>
	<g>
        <path d="M62.5 105.5C 71.1667 105.5 79.8333 105.5 88.5 105.5C 88.5 108.5 88.5 111.5 88.5 114.5C 79.8333 114.5 71.1667 114.5 62.5 114.5C 62.5 111.5 62.5 108.5 62.5 105.5z" stroke="none" fill="#EE410F" fill-rule="nonzero" />
	</g>
	<g>
        <path d="M122.5 105.5C 122.5 108.167 122.5 110.833 122.5 113.5C 114.167 113.5 105.833 113.5 97.5 113.5C 97.5 110.833 97.5 108.167 97.5 105.5C 105.833 105.5 114.167 105.5 122.5 105.5z" stroke="none" fill="#EF3800" fill-rule="nonzero" />
	</g>
	<g>
        <path d="M132.5 105.5C 140.833 105.5 149.167 105.5 157.5 105.5C 157.5 108.167 157.5 110.833 157.5 113.5C 149.167 113.5 140.833 113.5 132.5 113.5C 132.5 110.833 132.5 108.167 132.5 105.5z" stroke="none" fill="#EF3800" fill-rule="nonzero" />
	</g>
	<g>
        <path d="M192.5 105.5C 192.5 108.167 192.5 110.833 192.5 113.5C 183.833 113.5 175.167 113.5 166.5 113.5C 166.5 110.833 166.5 108.167 166.5 105.5C 175.167 105.5 183.833 105.5 192.5 105.5z" stroke="none" fill="#EF3800" fill-rule="nonzero" />
	</g>
	<g>
        <path d="M122.5 105.5C 123.477 108.287 123.81 111.287 123.5 114.5C 114.651 114.826 105.984 114.493 97.5 113.5C 105.833 113.5 114.167 113.5 122.5 113.5C 122.5 110.833 122.5 108.167 122.5 105.5z" stroke="none" fill="#DE7659" fill-rule="nonzero" />
	</g>
	<g>
        <path d="M62.5 122.5C 84.1667 122.5 105.833 122.5 127.5 122.5C 149.167 122.5 170.833 122.5 192.5 122.5C 192.5 122.833 192.5 123.167 192.5 123.5C 149.5 123.5 106.5 123.5 63.5 123.5C 63.5 135.833 63.5 148.167 63.5 160.5C 62.8333 160.5 62.5 160.167 62.5 159.5C 62.5 147.167 62.5 134.833 62.5 122.5z" stroke="none" fill="#E2572E" fill-rule="nonzero" />
	</g>
	<g>
        <path d="M192.5 123.5C 192.5 135.5 192.5 147.5 192.5 159.5C 189.788 161.689 186.622 163.022 183 163.5C 178.703 161.432 174.203 160.099 169.5 159.5C 164.512 159.831 159.845 161.164 155.5 163.5C 151.823 162.146 148.156 160.813 144.5 159.5C 144.606 147.939 138.939 141.272 127.5 139.5C 116.036 141.294 110.369 147.961 110.5 159.5C 106.942 161.111 103.276 162.445 99.5 163.5C 94.7305 161.391 89.7305 160.057 84.5 159.5C 80.0836 160.54 75.7503 161.874 71.5 163.5C 68.6087 163.052 65.942 162.052 63.5 160.5C 63.5 148.167 63.5 135.833 63.5 123.5C 106.5 123.5 149.5 123.5 192.5 123.5z" stroke="none" fill="#EF3800" fill-rule="nonzero" />
	</g>
	<g>
        <path d="M127.5 139.5C 127.5 151.167 127.5 162.833 127.5 174.5C 117.946 173.892 112.279 168.892 110.5 159.5C 110.369 147.961 116.036 141.294 127.5 139.5z" stroke="none" fill="#65D5A5" fill-rule="nonzero" />
	</g>
	<g>
        <path d="M127.5 139.5C 138.939 141.272 144.606 147.939 144.5 159.5C 142.917 169.081 137.25 174.081 127.5 174.5C 127.5 162.833 127.5 151.167 127.5 139.5z" stroke="none" fill="#0FAB92" fill-rule="nonzero" />
	</g>
	<g>
        <path d="M54.5 159.5C 57.1667 159.5 59.8333 159.5 62.5 159.5C 62.5 160.167 62.8333 160.5 63.5 160.5C 65.942 162.052 68.6087 163.052 71.5 163.5C 75.7503 161.874 80.0836 160.54 84.5 159.5C 89.7305 160.057 94.7305 161.391 99.5 163.5C 103.276 162.445 106.942 161.111 110.5 159.5C 112.279 168.892 117.946 173.892 127.5 174.5C 127.5 183.167 127.5 191.833 127.5 200.5C 103.167 200.5 78.8333 200.5 54.5 200.5C 54.5 186.833 54.5 173.167 54.5 159.5z" stroke="none" fill="#FDD82B" fill-rule="nonzero" />
	</g>
	<g>
        <path d="M144.5 159.5C 148.156 160.813 151.823 162.146 155.5 163.5C 159.845 161.164 164.512 159.831 169.5 159.5C 174.203 160.099 178.703 161.432 183 163.5C 186.622 163.022 189.788 161.689 192.5 159.5C 195.167 159.5 197.833 159.5 200.5 159.5C 200.833 159.5 201.167 159.5 201.5 159.5C 201.5 173.167 201.5 186.833 201.5 200.5C 176.833 200.5 152.167 200.5 127.5 200.5C 127.5 191.833 127.5 183.167 127.5 174.5C 137.25 174.081 142.917 169.081 144.5 159.5z" stroke="none" fill="#EDBC00" fill-rule="nonzero" />
	</g>
</g>
</svg>