<?xml version="1.0" standalone="no"?>
<!DOCTYPE svg PUBLIC "-//W3C//DTD SVG 1.0//EN" "http://www.w3.org/TR/2001/REC-SVG-20010904/DTD/svg10.dtd">
<svg xmlns="http://www.w3.org/2000/svg" id="body_1" width="36" height="36">

<g transform="matrix(0.140625 0 0 0.140625 0 0)">
	<g>
        <path d="M111.5 -0.5C 122.167 -0.5 132.833 -0.5 143.5 -0.5C 192.338 7.49258 226.838 34.1592 247 79.5C 249.143 85.4273 250.976 91.4273 252.5 97.5C 237.167 82.5 221.833 67.5 206.5 52.5C 201.843 45.939 195.509 43.7723 187.5 46C 179.185 51.4466 177.352 58.6133 182 67.5C 183.708 69.5435 185.708 71.2101 188 72.5C 188.5 84.4954 188.667 96.4954 188.5 108.5C 180.202 100.702 172.035 92.7024 164 84.5C 163.601 84.7284 163.435 85.0618 163.5 85.5C 162.685 84.5707 161.852 83.5707 161 82.5C 160.5 91.8274 160.334 101.161 160.5 110.5C 157.5 107.833 154.5 105.167 151.5 102.5C 151.5 101.833 151.167 101.5 150.5 101.5C 142.493 101.334 134.493 101.5 126.5 102C 121.076 102.769 116.076 104.603 111.5 107.5C 109.419 108.623 107.253 109.623 105 110.5C 91.6475 103.199 80.4808 105.699 71.5 118C 76.5463 122.711 81.213 127.711 85.5 133C 81.407 142.058 79.407 151.558 79.5 161.5C 60.4501 159.728 49.4501 168.228 46.5 187C 46.5056 189.033 46.8389 190.866 47.5 192.5C 51.1667 196.833 55.1667 200.833 59.5 204.5C 59.5 205.833 60.1667 206.5 61.5 206.5C 76.4648 221.965 91.6315 237.299 107 252.5C 107.464 253.094 107.631 253.761 107.5 254.5C 60.5873 245.462 27.4207 219.129 8 175.5C 4.19792 164.95 1.36459 154.284 -0.5 143.5C -0.5 132.833 -0.5 122.167 -0.5 111.5C 8.7041 57.4517 39.3708 21.6184 91.5 4C 98.2585 2.28494 104.925 0.784944 111.5 -0.5z" stroke="none" fill="#FE641A" fill-rule="nonzero" fill-opacity="0.99215686" />
	</g>
	<g>
        <path d="M206.5 52.5C 209.021 61.1104 206.521 67.7771 199 72.5C 198.667 86.1667 198.333 99.8333 198 113.5C 194.764 126.372 186.597 131.538 173.5 129C 164.868 125.917 160.535 119.75 160.5 110.5C 160.334 101.161 160.5 91.8274 161 82.5C 161.852 83.5707 162.685 84.5707 163.5 85.5C 168.118 93.2294 173.118 100.729 178.5 108C 176.089 109.955 173.589 111.789 171 113.5C 171.501 117.711 174.001 120.045 178.5 120.5C 185.819 119.846 189.152 115.846 188.5 108.5C 188.667 96.4954 188.5 84.4954 188 72.5C 185.708 71.2101 183.708 69.5435 182 67.5C 177.352 58.6133 179.185 51.4466 187.5 46C 195.509 43.7723 201.843 45.939 206.5 52.5z" stroke="none" fill="#59777F" fill-rule="nonzero" />
	</g>
	<g>
        <path d="M191.5 54.5C 197.263 54.7827 198.93 57.616 196.5 63C 188.184 63.8375 186.517 61.0042 191.5 54.5z" stroke="none" fill="#E83C09" fill-rule="nonzero" />
	</g>
	<g>
        <path d="M206.5 52.5C 221.833 67.5 237.167 82.5 252.5 97.5C 253.509 102.285 254.509 106.952 255.5 111.5C 255.5 122.167 255.5 132.833 255.5 143.5C 246.296 197.548 215.629 233.382 163.5 251C 156.741 252.715 150.075 254.215 143.5 255.5C 132.833 255.5 122.167 255.5 111.5 255.5C 110.432 254.566 109.099 254.232 107.5 254.5C 107.631 253.761 107.464 253.094 107 252.5C 91.6315 237.299 76.4648 221.965 61.5 206.5C 76.8772 206.565 86.7105 199.231 91 184.5C 91.7599 180.775 91.5932 177.108 90.5 173.5C 100.866 173.261 110.699 170.928 120 166.5C 123.833 170.333 127.667 174.167 131.5 178C 137.917 175.907 142.083 171.407 144 164.5C 145.139 158.673 144.305 153.173 141.5 148C 142.906 146.022 143.906 143.855 144.5 141.5C 150.905 129.382 153.238 116.382 151.5 102.5C 154.5 105.167 157.5 107.833 160.5 110.5C 160.535 119.75 164.868 125.917 173.5 129C 186.597 131.538 194.764 126.372 198 113.5C 198.333 99.8333 198.667 86.1667 199 72.5C 206.521 67.7771 209.021 61.1104 206.5 52.5z" stroke="none" fill="#EF3800" fill-rule="nonzero" />
	</g>
	<g>
        <path d="M188.5 108.5C 189.152 115.846 185.819 119.846 178.5 120.5C 174.001 120.045 171.501 117.711 171 113.5C 173.589 111.789 176.089 109.955 178.5 108C 173.118 100.729 168.118 93.2294 163.5 85.5C 163.435 85.0618 163.601 84.7284 164 84.5C 172.035 92.7024 180.202 100.702 188.5 108.5z" stroke="none" fill="#EC3C05" fill-rule="nonzero" />
	</g>
	<g>
        <path d="M150.5 101.5C 141.854 110.812 132.854 119.812 123.5 128.5C 117.188 122.883 113.188 115.883 111.5 107.5C 116.076 104.603 121.076 102.769 126.5 102C 134.493 101.5 142.493 101.334 150.5 101.5z" stroke="none" fill="#DEEAEF" fill-rule="nonzero" />
	</g>
	<g>
        <path d="M150.5 101.5C 151.167 101.5 151.5 101.833 151.5 102.5C 153.238 116.382 150.905 129.382 144.5 141.5C 136.453 139.223 129.287 135.223 123 129.5C 101.992 150.674 80.8256 171.674 59.5 192.5C 55.5 192.5 51.5 192.5 47.5 192.5C 46.8389 190.866 46.5056 189.033 46.5 187C 49.4501 168.228 60.4501 159.728 79.5 161.5C 79.407 151.558 81.407 142.058 85.5 133C 81.213 127.711 76.5463 122.711 71.5 118C 80.4808 105.699 91.6475 103.199 105 110.5C 107.253 109.623 109.419 108.623 111.5 107.5C 113.188 115.883 117.188 122.883 123.5 128.5C 132.854 119.812 141.854 110.812 150.5 101.5z" stroke="none" fill="#C5D1DA" fill-rule="nonzero" />
	</g>
	<g>
        <path d="M144.5 141.5C 143.906 143.855 142.906 146.022 141.5 148C 144.305 153.173 145.139 158.673 144 164.5C 142.083 171.407 137.917 175.907 131.5 178C 127.667 174.167 123.833 170.333 120 166.5C 110.699 170.928 100.866 173.261 90.5 173.5C 91.5932 177.108 91.7599 180.775 91 184.5C 86.7105 199.231 76.8772 206.565 61.5 206.5C 60.1667 206.5 59.5 205.833 59.5 204.5C 59.5 200.5 59.5 196.5 59.5 192.5C 80.8256 171.674 101.992 150.674 123 129.5C 129.287 135.223 136.453 139.223 144.5 141.5z" stroke="none" fill="#A0ABB8" fill-rule="nonzero" />
	</g>
	<g>
        <path d="M47.5 192.5C 51.5 192.5 55.5 192.5 59.5 192.5C 59.5 196.5 59.5 200.5 59.5 204.5C 55.1667 200.833 51.1667 196.833 47.5 192.5z" stroke="none" fill="#F03800" fill-rule="nonzero" />
	</g>
</g>
</svg>