<?xml version="1.0" standalone="no"?>
<!DOCTYPE svg PUBLIC "-//W3C//DTD SVG 1.0//EN" "http://www.w3.org/TR/2001/REC-SVG-20010904/DTD/svg10.dtd">
<svg xmlns="http://www.w3.org/2000/svg" xmlns:xlink="http://www.w3.org/1999/xlink" id="body_1" width="36" height="36">

<g transform="matrix(0.140625 0 0 0.140625 0 0)">
	<g>
        <path d="M111.5 -0.5C 122.167 -0.5 132.833 -0.5 143.5 -0.5C 197.548 8.7041 233.382 39.3708 251 91.5C 252.715 98.2585 254.215 104.925 255.5 111.5C 255.5 120.167 255.5 128.833 255.5 137.5C 234.833 117.167 214.167 96.8333 193.5 76.5C 189.013 69.7633 182.679 67.0967 174.5 68.5C 168.167 61.5 161.5 54.8333 154.5 48.5C 141.5 48.5 128.5 48.5 115.5 48.5C 102.167 48.5 88.8333 48.5 75.5 48.5C 75.5 51.8333 75.5 55.1667 75.5 58.5C 78.5 61.8333 81.5 65.1667 84.5 68.5C 74.8276 68.3335 65.1609 68.5002 55.5 69C 51 70.8333 47.8333 74 46 78.5C 45.5 101.498 45.3334 124.498 45.5 147.5C 45.5 157.5 45.5 167.5 45.5 177.5C 71.1667 203.5 96.8333 229.5 122.5 255.5C 118.833 255.5 115.167 255.5 111.5 255.5C 57.4517 246.296 21.6184 215.629 4 163.5C 2.28494 156.741 0.784944 150.075 -0.5 143.5C -0.5 132.833 -0.5 122.167 -0.5 111.5C 8.7041 57.4517 39.3708 21.6184 91.5 4C 98.2585 2.28494 104.925 0.784944 111.5 -0.5z" stroke="none" fill="#61D7A8" fill-rule="nonzero" fill-opacity="0.9882353" />
	</g>
	<g>
        <path d="M115.5 48.5C 115.5 51.8333 115.5 55.1667 115.5 58.5C 115.167 58.5 114.833 58.5 114.5 58.5C 104.833 58.5 95.1667 58.5 85.5 58.5C 82.1667 58.5 78.8333 58.5 75.5 58.5C 75.5 55.1667 75.5 51.8333 75.5 48.5C 88.8333 48.5 102.167 48.5 115.5 48.5z" stroke="none" fill="#DDEBF0" fill-rule="nonzero" />
	</g>
	<g>
        <path d="M115.5 48.5C 128.5 48.5 141.5 48.5 154.5 48.5C 154.5 51.8333 154.5 55.1667 154.5 58.5C 151.167 58.5 147.833 58.5 144.5 58.5C 134.833 58.5 125.167 58.5 115.5 58.5C 115.5 55.1667 115.5 51.8333 115.5 48.5z" stroke="none" fill="#C5D3DD" fill-rule="nonzero" />
	</g>
	<g>
        <path d="M154.5 48.5C 161.5 54.8333 168.167 61.5 174.5 68.5C 164.5 68.5 154.5 68.5 144.5 68.5C 144.5 65.1667 144.5 61.8333 144.5 58.5C 147.833 58.5 151.167 58.5 154.5 58.5C 154.5 55.1667 154.5 51.8333 154.5 48.5z" stroke="none" fill="#1AAD98" fill-rule="nonzero" />
	</g>
	<g>
        <path d="M75.5 58.5C 78.8333 58.5 82.1667 58.5 85.5 58.5C 85.5 61.8333 85.5 65.1667 85.5 68.5C 85.1667 68.5 84.8333 68.5 84.5 68.5C 81.5 65.1667 78.5 61.8333 75.5 58.5z" stroke="none" fill="#16AF97" fill-rule="nonzero" />
	</g>
	<g>
        <path d="M85.5 58.5C 95.1667 58.5 104.833 58.5 114.5 58.5C 114.5 61.8333 114.5 65.1667 114.5 68.5C 104.833 68.5 95.1667 68.5 85.5 68.5C 85.5 65.1667 85.5 61.8333 85.5 58.5z" stroke="none" fill="#C5D3DD" fill-rule="nonzero" />
	</g>
	<g>
        <path d="M114.5 58.5C 114.833 58.5 115.167 58.5 115.5 58.5C 125.167 58.5 134.833 58.5 144.5 58.5C 144.5 61.8333 144.5 65.1667 144.5 68.5C 134.833 68.5 125.167 68.5 115.5 68.5C 115.167 68.5 114.833 68.5 114.5 68.5C 114.5 65.1667 114.5 61.8333 114.5 58.5z" stroke="none" fill="#A0ADBB" fill-rule="nonzero" />
	</g>
	<g>
        <path d="M84.5 68.5C 84.8333 68.5 85.1667 68.5 85.5 68.5C 95.1667 68.5 104.833 68.5 114.5 68.5C 114.833 68.5 115.167 68.5 115.5 68.5C 115.5 75.1667 115.5 81.8333 115.5 88.5C 98.8333 88.5 82.1667 88.5 65.5 88.5C 65.5 101.5 65.5 114.5 65.5 127.5C 82.1667 127.5 98.8333 127.5 115.5 127.5C 118.287 128.477 121.287 128.81 124.5 128.5C 124.5 134.833 124.5 141.167 124.5 147.5C 98.1667 147.5 71.8333 147.5 45.5 147.5C 45.3334 124.498 45.5 101.498 46 78.5C 47.8333 74 51 70.8333 55.5 69C 65.1609 68.5002 74.8276 68.3335 84.5 68.5z" stroke="none" fill="#DBE9EE" fill-rule="nonzero" />
	</g>
	<g>
        <path d="M115.5 68.5C 125.167 68.5 134.833 68.5 144.5 68.5C 154.5 68.5 164.5 68.5 174.5 68.5C 182.679 67.0967 189.013 69.7633 193.5 76.5C 194.48 100.455 194.814 124.455 194.5 148.5C 187.833 148.5 181.167 148.5 174.5 148.5C 174.5 145.167 174.5 141.833 174.5 138.5C 174.5 138.167 174.5 137.833 174.5 137.5C 174.5 134.5 174.5 131.5 174.5 128.5C 174.5 128.167 174.5 127.833 174.5 127.5C 174.5 114.5 174.5 101.5 174.5 88.5C 158.167 88.5 141.833 88.5 125.5 88.5C 122.167 88.5 118.833 88.5 115.5 88.5C 115.5 81.8333 115.5 75.1667 115.5 68.5z" stroke="none" fill="#C3D1DA" fill-rule="nonzero" />
	</g>
	<g>
        <path d="M193.5 76.5C 214.167 96.8333 234.833 117.167 255.5 137.5C 255.5 139.5 255.5 141.5 255.5 143.5C 246.296 197.548 215.629 233.382 163.5 251C 156.741 252.715 150.075 254.215 143.5 255.5C 136.5 255.5 129.5 255.5 122.5 255.5C 96.8333 229.5 71.1667 203.5 45.5 177.5C 52.1667 177.5 58.8333 177.5 65.5 177.5C 66.4248 189.592 72.9248 196.258 85 197.5C 97.0174 195.981 103.851 189.315 105.5 177.5C 108.833 177.5 112.167 177.5 115.5 177.5C 118.833 177.5 122.167 177.5 125.5 177.5C 141.833 177.5 158.167 177.5 174.5 177.5C 181.167 177.5 187.833 177.5 194.5 177.5C 197.833 177.5 201.167 177.5 204.5 177.5C 204.5 184.167 204.5 190.833 204.5 197.5C 207.833 197.5 211.167 197.5 214.5 197.5C 214.5 184.167 214.5 170.833 214.5 157.5C 211.167 157.5 207.833 157.5 204.5 157.5C 204.5 160.833 204.5 164.167 204.5 167.5C 201.167 167.5 197.833 167.5 194.5 167.5C 194.5 161.167 194.5 154.833 194.5 148.5C 194.814 124.455 194.48 100.455 193.5 76.5z" stroke="none" fill="#02AB93" fill-rule="nonzero" />
	</g>
	<g>
        <path d="M115.5 88.5C 115.5 91.5 115.5 94.5 115.5 97.5C 118.713 97.19 121.713 97.5233 124.5 98.5C 121.5 98.5 118.5 98.5 115.5 98.5C 112.167 98.5 108.833 98.5 105.5 98.5C 104.509 104.979 104.176 111.646 104.5 118.5C 108.167 118.5 111.833 118.5 115.5 118.5C 115.5 121.5 115.5 124.5 115.5 127.5C 98.8333 127.5 82.1667 127.5 65.5 127.5C 65.5 114.5 65.5 101.5 65.5 88.5C 82.1667 88.5 98.8333 88.5 115.5 88.5z" stroke="none" fill="#527982" fill-rule="nonzero" />
	</g>
	<g>
        <path d="M125.5 88.5C 141.833 88.5 158.167 88.5 174.5 88.5C 174.5 101.5 174.5 114.5 174.5 127.5C 167.833 127.5 161.167 127.5 154.5 127.5C 154.5 131.167 154.5 134.833 154.5 138.5C 161.167 138.5 167.833 138.5 174.5 138.5C 174.5 141.833 174.5 145.167 174.5 148.5C 174.5 158.167 174.5 167.833 174.5 177.5C 158.167 177.5 141.833 177.5 125.5 177.5C 125.5 167.833 125.5 158.167 125.5 148.5C 125.5 128.5 125.5 108.5 125.5 88.5z" stroke="none" fill="#283938" fill-rule="nonzero" />
	</g>
	<g>
        <path d="M75.5 98.5C 82.1667 98.5 88.8333 98.5 95.5 98.5C 95.5 105.167 95.5 111.833 95.5 118.5C 88.8333 118.5 82.1667 118.5 75.5 118.5C 75.5 111.833 75.5 105.167 75.5 98.5z" stroke="none" fill="#60D3A6" fill-rule="nonzero" />
	</g>
	<g>
        <path d="M105.5 98.5C 105.5 104.833 105.5 111.167 105.5 117.5C 108.833 117.5 112.167 117.5 115.5 117.5C 115.5 111.167 115.5 104.833 115.5 98.5C 118.5 98.5 121.5 98.5 124.5 98.5C 124.5 105.167 124.5 111.833 124.5 118.5C 121.5 118.5 118.5 118.5 115.5 118.5C 111.833 118.5 108.167 118.5 104.5 118.5C 104.176 111.646 104.509 104.979 105.5 98.5z" stroke="none" fill="#1DA892" fill-rule="nonzero" />
	</g>
	<g>
        <path d="M105.5 98.5C 108.833 98.5 112.167 98.5 115.5 98.5C 115.5 104.833 115.5 111.167 115.5 117.5C 112.167 117.5 108.833 117.5 105.5 117.5C 105.5 111.167 105.5 104.833 105.5 98.5z" stroke="none" fill="#5DD5A7" fill-rule="nonzero" />
	</g>
	<g>
        <path d="M115.5 88.5C 118.833 88.5 122.167 88.5 125.5 88.5C 125.5 108.5 125.5 128.5 125.5 148.5C 125.167 148.5 124.833 148.5 124.5 148.5C 124.5 148.167 124.5 147.833 124.5 147.5C 124.5 141.167 124.5 134.833 124.5 128.5C 121.287 128.81 118.287 128.477 115.5 127.5C 115.5 124.5 115.5 121.5 115.5 118.5C 118.5 118.5 121.5 118.5 124.5 118.5C 124.5 111.833 124.5 105.167 124.5 98.5C 121.713 97.5233 118.713 97.19 115.5 97.5C 115.5 94.5 115.5 91.5 115.5 88.5z" stroke="none" fill="#445E5F" fill-rule="nonzero" />
	</g>
	<g>
        <path d="M174.5 127.5C 174.5 127.833 174.5 128.167 174.5 128.5C 168.167 128.5 161.833 128.5 155.5 128.5C 155.5 131.5 155.5 134.5 155.5 137.5C 161.833 137.5 168.167 137.5 174.5 137.5C 174.5 137.833 174.5 138.167 174.5 138.5C 167.833 138.5 161.167 138.5 154.5 138.5C 154.5 134.833 154.5 131.167 154.5 127.5C 161.167 127.5 167.833 127.5 174.5 127.5z" stroke="none" fill="#65747B" fill-rule="nonzero" />
	</g>
	<g>
        <path d="M174.5 128.5C 174.5 131.5 174.5 134.5 174.5 137.5C 168.167 137.5 161.833 137.5 155.5 137.5C 155.5 134.5 155.5 131.5 155.5 128.5C 161.833 128.5 168.167 128.5 174.5 128.5z" stroke="none" fill="#9EACB9" fill-rule="nonzero" />
	</g>
	<g>
        <path d="M45.5 147.5C 71.8333 147.5 98.1667 147.5 124.5 147.5C 124.5 147.833 124.5 148.167 124.5 148.5C 121.5 148.5 118.5 148.5 115.5 148.5C 115.5 158.167 115.5 167.833 115.5 177.5C 112.167 177.5 108.833 177.5 105.5 177.5C 103.15 163.316 94.8169 156.816 80.5 158C 71.0347 161.109 66.0347 167.609 65.5 177.5C 58.8333 177.5 52.1667 177.5 45.5 177.5C 45.5 167.5 45.5 157.5 45.5 147.5z" stroke="none" fill="#FD661F" fill-rule="nonzero" />
	</g>
	<g>
        <path d="M124.5 148.5C 124.833 148.5 125.167 148.5 125.5 148.5C 125.5 158.167 125.5 167.833 125.5 177.5C 122.167 177.5 118.833 177.5 115.5 177.5C 115.5 167.833 115.5 158.167 115.5 148.5C 118.5 148.5 121.5 148.5 124.5 148.5z" stroke="none" fill="#E73803" fill-rule="nonzero" />
	</g>
	<g>
        <path d="M174.5 148.5C 181.167 148.5 187.833 148.5 194.5 148.5C 194.5 154.833 194.5 161.167 194.5 167.5C 194.5 170.833 194.5 174.167 194.5 177.5C 187.833 177.5 181.167 177.5 174.5 177.5C 174.5 167.833 174.5 158.167 174.5 148.5z" stroke="none" fill="#EE3800" fill-rule="nonzero" />
	</g>
	<g>
        <path d="M105.5 177.5C 103.851 189.315 97.0174 195.981 85 197.5C 72.9248 196.258 66.4248 189.592 65.5 177.5C 66.0347 167.609 71.0347 161.109 80.5 158C 94.8169 156.816 103.15 163.316 105.5 177.5z" stroke="none" fill="#567982" fill-rule="nonzero" />
	</g>
	<g>
        <path d="M194.5 177.5C 194.5 174.167 194.5 170.833 194.5 167.5C 197.833 167.5 201.167 167.5 204.5 167.5C 204.5 164.167 204.5 160.833 204.5 157.5C 207.833 157.5 211.167 157.5 214.5 157.5C 214.5 170.833 214.5 184.167 214.5 197.5C 211.167 197.5 207.833 197.5 204.5 197.5C 204.5 190.833 204.5 184.167 204.5 177.5C 201.167 177.5 197.833 177.5 194.5 177.5z" stroke="none" fill="#3D5B5A" fill-rule="nonzero" />
	</g>
	<g>
        <path d="M82.5 167.5C 91.3346 167.499 95.5013 171.832 95 180.5C 90.057 188.324 84.057 189.324 77 183.5C 73.7067 176.26 75.5401 170.927 82.5 167.5z" stroke="none" fill="#D9E8ED" fill-rule="nonzero" />
	</g>
</g>
</svg>