<?xml version="1.0" standalone="no"?>
<!DOCTYPE svg PUBLIC "-//W3C//DTD SVG 1.0//EN" "http://www.w3.org/TR/2001/REC-SVG-20010904/DTD/svg10.dtd">
<svg xmlns="http://www.w3.org/2000/svg" id="body_1" width="36" height="36">

<g transform="matrix(0.140625 0 0 0.140625 0 0)">
	<g>
        <path d="M111.5 -0.5C 122.167 -0.5 132.833 -0.5 143.5 -0.5C 197.548 8.7041 233.382 39.3708 251 91.5C 252.715 98.2585 254.215 104.925 255.5 111.5C 255.5 115.833 255.5 120.167 255.5 124.5C 236.833 106.167 218.167 87.8333 199.5 69.5C 192.492 69.3337 185.492 69.5004 178.5 70C 176.807 70.8466 175.14 71.6799 173.5 72.5C 172.883 72.3893 172.383 72.056 172 71.5C 171.159 62.9475 167.659 55.7808 161.5 50C 159.913 49.1376 158.246 48.4709 156.5 48C 148.841 47.5003 141.174 47.3336 133.5 47.5C 133.185 51.3714 133.518 55.0381 134.5 58.5C 137.833 62.1667 141.167 65.8333 144.5 69.5C 134.75 68.2057 127.75 71.8724 123.5 80.5C 97.8333 80.5 72.1667 80.5 46.5 80.5C 46.2045 87.5878 46.5379 94.5878 47.5 101.5C 54.7975 109.298 62.2975 116.965 70 124.5C 70.4828 125.448 70.6495 126.448 70.5 127.5C 67.6479 129.311 64.3146 130.311 60.5 130.5C 58.8404 129.213 57.1738 127.88 55.5 126.5C 52.6295 128.097 49.9628 129.93 47.5 132C 48.0294 133.559 48.696 135.059 49.5 136.5C 47.4197 138.993 45.5864 141.659 44 144.5C 41.7031 144.539 39.3698 144.872 37 145.5C 36.4677 148.264 35.6343 150.93 34.5 153.5C 36.4899 154.873 38.6566 155.873 41 156.5C 41.3607 159.525 41.8607 162.525 42.5 165.5C 41.2935 167.449 39.6268 168.949 37.5 170C 39.568 172.642 41.2347 175.475 42.5 178.5C 68.473 203.806 94.1396 229.473 119.5 255.5C 116.833 255.5 114.167 255.5 111.5 255.5C 57.4517 246.296 21.6184 215.629 4 163.5C 2.28494 156.741 0.784944 150.075 -0.5 143.5C -0.5 132.833 -0.5 122.167 -0.5 111.5C 8.7041 57.4517 39.3708 21.6184 91.5 4C 98.2585 2.28494 104.925 0.784944 111.5 -0.5z" stroke="none" fill="#FED92D" fill-rule="nonzero" fill-opacity="0.99215686" />
	</g>
	<g>
        <path d="M173.5 72.5C 173.196 73.1499 172.863 73.8165 172.5 74.5C 175.302 83.3749 177.635 92.3749 179.5 101.5C 179.328 102.492 179.662 103.158 180.5 103.5C 182.546 112.358 184.879 121.024 187.5 129.5C 188.267 133.327 189.267 136.994 190.5 140.5C 191.285 144.862 192.285 149.196 193.5 153.5C 193.182 154.647 192.516 155.481 191.5 156C 188.806 157.19 186.139 157.356 183.5 156.5C 182.157 152.139 180.823 147.805 179.5 143.5C 178.373 139.861 177.373 136.194 176.5 132.5C 175.317 126.435 173.817 120.435 172 114.5C 170.644 113.62 169.144 113.286 167.5 113.5C 167.5 113.167 167.5 112.833 167.5 112.5C 168.978 112.762 170.311 112.429 171.5 111.5C 167.787 97.2984 163.787 83.2984 159.5 69.5C 159.832 65.3237 158.498 61.8237 155.5 59C 148.508 58.5004 141.508 58.3337 134.5 58.5C 133.518 55.0381 133.185 51.3714 133.5 47.5C 141.174 47.3336 148.841 47.5003 156.5 48C 158.246 48.4709 159.913 49.1376 161.5 50C 167.659 55.7808 171.159 62.9475 172 71.5C 172.383 72.056 172.883 72.3893 173.5 72.5z" stroke="none" fill="#C5D2D9" fill-rule="nonzero" />
	</g>
	<g>
        <path d="M134.5 58.5C 141.508 58.3337 148.508 58.5004 155.5 59C 158.498 61.8237 159.832 65.3237 159.5 69.5C 154.5 69.5 149.5 69.5 144.5 69.5C 141.167 65.8333 137.833 62.1667 134.5 58.5z" stroke="none" fill="#ECBF0A" fill-rule="nonzero" />
	</g>
	<g>
        <path d="M144.5 69.5C 149.5 69.5 154.5 69.5 159.5 69.5C 163.787 83.2984 167.787 97.2984 171.5 111.5C 170.311 112.429 168.978 112.762 167.5 112.5C 152.833 112.5 138.167 112.5 123.5 112.5C 123.5 102.5 123.5 92.5 123.5 82.5C 123.5 81.8333 123.5 81.1667 123.5 80.5C 127.75 71.8724 134.75 68.2057 144.5 69.5z" stroke="none" fill="#9FACBA" fill-rule="nonzero" />
	</g>
	<g>
        <path d="M199.5 69.5C 199.5 80.1667 199.5 90.8333 199.5 101.5C 192.833 101.5 186.167 101.5 179.5 101.5C 177.635 92.3749 175.302 83.3749 172.5 74.5C 172.863 73.8165 173.196 73.1499 173.5 72.5C 175.14 71.6799 176.807 70.8466 178.5 70C 185.492 69.5004 192.492 69.3337 199.5 69.5z" stroke="none" fill="#9FACB9" fill-rule="nonzero" />
	</g>
	<g>
        <path d="M199.5 69.5C 218.167 87.8333 236.833 106.167 255.5 124.5C 255.5 130.833 255.5 137.167 255.5 143.5C 246.296 197.548 215.629 233.382 163.5 251C 156.741 252.715 150.075 254.215 143.5 255.5C 135.5 255.5 127.5 255.5 119.5 255.5C 94.1396 229.473 68.473 203.806 42.5 178.5C 44.3664 177.986 46.1997 177.32 48 176.5C 51.4492 178.287 54.6159 180.454 57.5 183C 56.3507 184.73 56.3507 186.396 57.5 188C 60.4424 189.124 63.4424 189.458 66.5 189C 67.2266 187.601 67.7266 186.101 68 184.5C 72.9871 182.303 76.6537 183.636 79 188.5C 81.8349 187.084 84.5015 185.417 87 183.5C 86.2173 181.655 85.884 179.655 86 177.5C 88.2089 175.627 90.0422 173.46 91.5 171C 93.7972 170.982 96.1305 171.149 98.5 171.5C 98.9272 168.624 99.5938 165.791 100.5 163C 99.615 160.843 97.9484 160.01 95.5 160.5C 95.693 156.434 95.3597 152.434 94.5 148.5C 97.1932 147.153 99.8599 145.82 102.5 144.5C 107.477 151.767 112.477 159.101 117.5 166.5C 120.768 167.487 124.102 167.82 127.5 167.5C 131.226 167.823 134.893 167.489 138.5 166.5C 148.113 148.938 157.447 131.271 166.5 113.5C 166.833 113.5 167.167 113.5 167.5 113.5C 169.144 113.286 170.644 113.62 172 114.5C 173.817 120.435 175.317 126.435 176.5 132.5C 173.518 134.474 170.518 136.474 167.5 138.5C 165.714 136.979 163.881 136.646 162 137.5C 160.374 139.917 158.874 142.417 157.5 145C 159.381 146.102 161.048 147.435 162.5 149C 161.942 152.514 161.276 156.014 160.5 159.5C 159.264 160.246 157.93 160.579 156.5 160.5C 156.692 163.601 157.358 166.601 158.5 169.5C 160.473 170.331 162.473 170.498 164.5 170C 166.461 172.963 168.794 175.629 171.5 178C 170.5 179.667 169.5 181.333 168.5 183C 171.5 184.833 174.5 186.667 177.5 188.5C 178.556 186.354 180.056 184.688 182 183.5C 185.441 184.382 188.941 184.716 192.5 184.5C 192.491 186.308 192.991 187.975 194 189.5C 196.447 188.594 198.947 187.761 201.5 187C 202.428 186.612 203.095 185.945 203.5 185C 202.67 183.535 202.504 182.035 203 180.5C 205.5 178.667 207.667 176.5 209.5 174C 211.368 173.996 213.202 174.496 215 175.5C 217.196 172.952 219.029 170.118 220.5 167C 216.082 164.89 214.582 161.39 216 156.5C 217.699 155.594 219.533 155.261 221.5 155.5C 221.388 151.604 220.388 147.937 218.5 144.5C 216.902 145.485 215.235 145.651 213.5 145C 211.306 142.305 209.306 139.472 207.5 136.5C 208.128 134.742 209.128 133.242 210.5 132C 207.5 130.167 204.5 128.333 201.5 126.5C 199.937 127.945 198.604 129.611 197.5 131.5C 194.34 129.973 191.007 129.307 187.5 129.5C 184.879 121.024 182.546 112.358 180.5 103.5C 186.833 102.833 193.167 102.167 199.5 101.5C 199.5 90.8333 199.5 80.1667 199.5 69.5z" stroke="none" fill="#EDBE01" fill-rule="nonzero" />
	</g>
	<g>
        <path d="M123.5 80.5C 123.5 81.1667 123.5 81.8333 123.5 82.5C 122.506 92.3194 122.173 102.319 122.5 112.5C 108.833 112.5 95.1667 112.5 81.5 112.5C 70.155 108.829 58.8217 105.163 47.5 101.5C 46.5379 94.5878 46.2045 87.5878 46.5 80.5C 72.1667 80.5 97.8333 80.5 123.5 80.5z" stroke="none" fill="#3E5958" fill-rule="nonzero" />
	</g>
	<g>
        <path d="M179.5 101.5C 186.167 101.5 192.833 101.5 199.5 101.5C 193.167 102.167 186.833 102.833 180.5 103.5C 179.662 103.158 179.328 102.492 179.5 101.5z" stroke="none" fill="#BBB47C" fill-rule="nonzero" />
	</g>
	<g>
        <path d="M47.5 101.5C 58.8217 105.163 70.155 108.829 81.5 112.5C 86.7489 119.996 91.7489 127.663 96.5 135.5C 94.0722 137.043 91.4056 138.043 88.5 138.5C 86.1633 136.334 83.6633 134.334 81 132.5C 81.4978 130.473 81.3311 128.473 80.5 126.5C 77.667 125.067 74.667 124.4 71.5 124.5C 71.7373 125.791 71.404 126.791 70.5 127.5C 70.6495 126.448 70.4828 125.448 70 124.5C 62.2975 116.965 54.7975 109.298 47.5 101.5z" stroke="none" fill="#E9BD0A" fill-rule="nonzero" />
	</g>
	<g>
        <path d="M123.5 82.5C 123.5 92.5 123.5 102.5 123.5 112.5C 138.167 112.5 152.833 112.5 167.5 112.5C 167.5 112.833 167.5 113.167 167.5 113.5C 167.167 113.5 166.833 113.5 166.5 113.5C 153.5 113.5 140.5 113.5 127.5 113.5C 127.5 131.5 127.5 149.5 127.5 167.5C 124.102 167.82 120.768 167.487 117.5 166.5C 112.477 159.101 107.477 151.767 102.5 144.5C 100.5 141.5 98.5 138.5 96.5 135.5C 91.7489 127.663 86.7489 119.996 81.5 112.5C 95.1667 112.5 108.833 112.5 122.5 112.5C 122.173 102.319 122.506 92.3194 123.5 82.5z" stroke="none" fill="#557983" fill-rule="nonzero" />
	</g>
	<g>
        <path d="M166.5 113.5C 157.447 131.271 148.113 148.938 138.5 166.5C 134.893 167.489 131.226 167.823 127.5 167.5C 127.5 149.5 127.5 131.5 127.5 113.5C 140.5 113.5 153.5 113.5 166.5 113.5z" stroke="none" fill="#3F5959" fill-rule="nonzero" />
	</g>
	<g>
        <path d="M88.5 138.5C 85.5063 141 82.173 143 78.5 144.5C 71.7751 139.374 64.7751 139.208 57.5 144C 47.9039 156.545 50.2372 166.212 64.5 173C 77.7509 173.915 84.4176 167.748 84.5 154.5C 87.7976 152.515 91.1309 150.515 94.5 148.5C 95.3597 152.434 95.693 156.434 95.5 160.5C 97.9484 160.01 99.615 160.843 100.5 163C 99.5938 165.791 98.9272 168.624 98.5 171.5C 96.1305 171.149 93.7972 170.982 91.5 171C 90.0422 173.46 88.2089 175.627 86 177.5C 85.884 179.655 86.2173 181.655 87 183.5C 84.5015 185.417 81.8349 187.084 79 188.5C 76.6537 183.636 72.9871 182.303 68 184.5C 67.7266 186.101 67.2266 187.601 66.5 189C 63.4424 189.458 60.4424 189.124 57.5 188C 56.3507 186.396 56.3507 184.73 57.5 183C 54.6159 180.454 51.4492 178.287 48 176.5C 46.1997 177.32 44.3664 177.986 42.5 178.5C 41.2347 175.475 39.568 172.642 37.5 170C 39.6268 168.949 41.2935 167.449 42.5 165.5C 41.8607 162.525 41.3607 159.525 41 156.5C 38.6566 155.873 36.4899 154.873 34.5 153.5C 35.6343 150.93 36.4677 148.264 37 145.5C 39.3698 144.872 41.7031 144.539 44 144.5C 45.5864 141.659 47.4197 138.993 49.5 136.5C 48.696 135.059 48.0294 133.559 47.5 132C 49.9628 129.93 52.6295 128.097 55.5 126.5C 57.1738 127.88 58.8404 129.213 60.5 130.5C 64.3146 130.311 67.6479 129.311 70.5 127.5C 71.404 126.791 71.7373 125.791 71.5 124.5C 74.667 124.4 77.667 125.067 80.5 126.5C 81.3311 128.473 81.4978 130.473 81 132.5C 83.6633 134.334 86.1633 136.334 88.5 138.5z" stroke="none" fill="#567A81" fill-rule="nonzero" />
	</g>
	<g>
        <path d="M176.5 132.5C 177.373 136.194 178.373 139.861 179.5 143.5C 172.466 148.989 170.633 155.989 174 164.5C 179.866 173.564 187.7 175.731 197.5 171C 208.077 161.588 208.077 152.255 197.5 143C 195.35 141.589 193.016 140.755 190.5 140.5C 189.267 136.994 188.267 133.327 187.5 129.5C 191.007 129.307 194.34 129.973 197.5 131.5C 198.604 129.611 199.937 127.945 201.5 126.5C 204.5 128.333 207.5 130.167 210.5 132C 209.128 133.242 208.128 134.742 207.5 136.5C 209.306 139.472 211.306 142.305 213.5 145C 215.235 145.651 216.902 145.485 218.5 144.5C 220.388 147.937 221.388 151.604 221.5 155.5C 219.533 155.261 217.699 155.594 216 156.5C 214.582 161.39 216.082 164.89 220.5 167C 219.029 170.118 217.196 172.952 215 175.5C 213.202 174.496 211.368 173.996 209.5 174C 207.667 176.5 205.5 178.667 203 180.5C 202.504 182.035 202.67 183.535 203.5 185C 203.095 185.945 202.428 186.612 201.5 187C 198.947 187.761 196.447 188.594 194 189.5C 192.991 187.975 192.491 186.308 192.5 184.5C 188.941 184.716 185.441 184.382 182 183.5C 180.056 184.688 178.556 186.354 177.5 188.5C 174.5 186.667 171.5 184.833 168.5 183C 169.5 181.333 170.5 179.667 171.5 178C 168.794 175.629 166.461 172.963 164.5 170C 162.473 170.498 160.473 170.331 158.5 169.5C 157.358 166.601 156.692 163.601 156.5 160.5C 157.93 160.579 159.264 160.246 160.5 159.5C 161.276 156.014 161.942 152.514 162.5 149C 161.048 147.435 159.381 146.102 157.5 145C 158.874 142.417 160.374 139.917 162 137.5C 163.881 136.646 165.714 136.979 167.5 138.5C 170.518 136.474 173.518 134.474 176.5 132.5z" stroke="none" fill="#415A58" fill-rule="nonzero" />
	</g>
	<g>
        <path d="M96.5 135.5C 98.5 138.5 100.5 141.5 102.5 144.5C 99.8599 145.82 97.1932 147.153 94.5 148.5C 91.1309 150.515 87.7976 152.515 84.5 154.5C 80.0614 156.554 75.728 158.887 71.5 161.5C 68.5988 158.705 67.0988 155.372 67 151.5C 71.1471 149.518 74.9805 147.184 78.5 144.5C 82.173 143 85.5063 141 88.5 138.5C 91.4056 138.043 94.0722 137.043 96.5 135.5z" stroke="none" fill="#C4D1D9" fill-rule="nonzero" />
	</g>
	<g>
        <path d="M78.5 144.5C 74.9805 147.184 71.1471 149.518 67 151.5C 67.0988 155.372 68.5988 158.705 71.5 161.5C 75.728 158.887 80.0614 156.554 84.5 154.5C 84.4176 167.748 77.7509 173.915 64.5 173C 50.2372 166.212 47.9039 156.545 57.5 144C 64.7751 139.208 71.7751 139.374 78.5 144.5z" stroke="none" fill="#EABD0B" fill-rule="nonzero" />
	</g>
	<g>
        <path d="M190.5 140.5C 193.016 140.755 195.35 141.589 197.5 143C 208.077 152.255 208.077 161.588 197.5 171C 187.7 175.731 179.866 173.564 174 164.5C 170.633 155.989 172.466 148.989 179.5 143.5C 180.823 147.805 182.157 152.139 183.5 156.5C 186.139 157.356 188.806 157.19 191.5 156C 192.516 155.481 193.182 154.647 193.5 153.5C 192.285 149.196 191.285 144.862 190.5 140.5z" stroke="none" fill="#E9BC0B" fill-rule="nonzero" />
	</g>
</g>
</svg>