<?xml version="1.0" standalone="no"?>
<!DOCTYPE svg PUBLIC "-//W3C//DTD SVG 1.0//EN" "http://www.w3.org/TR/2001/REC-SVG-20010904/DTD/svg10.dtd">
<svg xmlns="http://www.w3.org/2000/svg" xmlns:xlink="http://www.w3.org/1999/xlink" id="body_1" width="36" height="36">

<g transform="matrix(0.140625 0 0 0.140625 0 0)">
	<g>
        <path d="M111.5 -0.5C 122.167 -0.5 132.833 -0.5 143.5 -0.5C 197.94 8.93132 233.94 39.9313 251.5 92.5C 250.761 92.631 250.094 92.4643 249.5 92C 234.965 77.2981 220.299 62.7981 205.5 48.5C 185.179 53.9916 164.846 60.4916 144.5 68C 144.728 68.3988 145.062 68.5654 145.5 68.5C 150.894 73.8896 155.894 79.5563 160.5 85.5C 158.1 88.9031 155.1 91.5698 151.5 93.5C 142.374 85.4388 131.708 80.2722 119.5 78C 103.205 76.1853 86.8721 74.8519 70.5 74C 68.7536 73.5291 67.087 72.8624 65.5 72C 61.9848 68.3176 58.3181 64.8176 54.5 61.5C 52.1667 63.1667 50.1667 65.1667 48.5 67.5C 51.5222 70.8533 54.5222 74.1866 57.5 77.5C 61.0033 101.527 64.67 125.527 68.5 149.5C 62.2467 157.092 55.5801 164.426 48.5 171.5C 54.6849 173.996 60.6849 176.663 66.5 179.5C 63.2026 182.296 60.0359 185.296 57 188.5C 56.253 190.928 57.0863 192.594 59.5 193.5C 60.1667 194.833 61.1667 195.833 62.5 196.5C 81.8333 216.167 101.167 235.833 120.5 255.5C 117.5 255.5 114.5 255.5 111.5 255.5C 57.4517 246.296 21.6184 215.629 4 163.5C 2.28494 156.741 0.784944 150.075 -0.5 143.5C -0.5 132.833 -0.5 122.167 -0.5 111.5C 8.7041 57.4517 39.3708 21.6184 91.5 4C 98.2585 2.28494 104.925 0.784944 111.5 -0.5z" stroke="none" fill="#FED92D" fill-rule="nonzero" fill-opacity="0.99215686" />
	</g>
	<g>
        <path d="M205.5 48.5C 220.299 62.7981 234.965 77.2981 249.5 92C 250.094 92.4643 250.761 92.631 251.5 92.5C 252.856 98.9535 254.189 105.287 255.5 111.5C 255.5 122.167 255.5 132.833 255.5 143.5C 246.296 197.548 215.629 233.382 163.5 251C 156.741 252.715 150.075 254.215 143.5 255.5C 135.833 255.5 128.167 255.5 120.5 255.5C 101.167 235.833 81.8333 216.167 62.5 196.5C 66.5 193.167 70.1667 189.5 73.5 185.5C 76.0022 191.663 78.3356 197.997 80.5 204.5C 87.8539 197.479 95.1872 190.479 102.5 183.5C 126.784 187.825 151.117 191.825 175.5 195.5C 178.771 198.268 181.938 201.268 185 204.5C 187.167 202.333 189.333 200.167 191.5 198C 186.167 193.678 182.001 188.512 179 182.5C 177.852 170.199 177.185 157.866 177 145.5C 175.577 128.674 169.743 113.674 159.5 100.5C 164.833 94.5 170.5 88.8333 176.5 83.5C 178.844 91.6989 181.677 99.6989 185 107.5C 191.673 88.9821 197.839 70.3154 203.5 51.5C 204.167 50.5 204.833 49.5 205.5 48.5z" stroke="none" fill="#EDBF00" fill-rule="nonzero" />
	</g>
	<g>
        <path d="M205.5 48.5C 204.833 49.5 204.167 50.5 203.5 51.5C 203.631 50.7611 203.464 50.0944 203 49.5C 193.632 59.0356 184.132 68.3689 174.5 77.5C 172.784 77.3713 171.117 77.038 169.5 76.5C 161.784 73.2613 153.784 70.5946 145.5 68.5C 145.062 68.5654 144.728 68.3988 144.5 68C 164.846 60.4916 185.179 53.9916 205.5 48.5z" stroke="none" fill="#C5D2D9" fill-rule="nonzero" />
	</g>
	<g>
        <path d="M203.5 51.5C 197.839 70.3154 191.673 88.9821 185 107.5C 181.677 99.6989 178.844 91.6989 176.5 83.5C 175.833 81.8333 175.167 80.1667 174.5 78.5C 174.5 78.1667 174.5 77.8333 174.5 77.5C 184.132 68.3689 193.632 59.0356 203 49.5C 203.464 50.0944 203.631 50.7611 203.5 51.5z" stroke="none" fill="#A1ADB7" fill-rule="nonzero" />
	</g>
	<g>
        <path d="M151.5 93.5C 145.167 100.167 138.833 106.833 132.5 113.5C 127.638 109.901 122.305 107.067 116.5 105C 104.293 101.198 91.9596 97.8649 79.5 95C 75.178 93.8428 71.5113 91.6762 68.5 88.5C 65.1667 84.5 61.5 80.8333 57.5 77.5C 54.5222 74.1866 51.5222 70.8533 48.5 67.5C 50.1667 65.1667 52.1667 63.1667 54.5 61.5C 58.3181 64.8176 61.9848 68.3176 65.5 72C 67.087 72.8624 68.7536 73.5291 70.5 74C 86.8721 74.8519 103.205 76.1853 119.5 78C 131.708 80.2722 142.374 85.4388 151.5 93.5z" stroke="none" fill="#C67159" fill-rule="nonzero" />
	</g>
	<g>
        <path d="M145.5 68.5C 153.784 70.5946 161.784 73.2613 169.5 76.5C 166.833 79.8333 163.833 82.8333 160.5 85.5C 155.894 79.5563 150.894 73.8896 145.5 68.5z" stroke="none" fill="#E8BD17" fill-rule="nonzero" />
	</g>
	<g>
        <path d="M169.5 76.5C 171.117 77.038 172.784 77.3713 174.5 77.5C 174.5 77.8333 174.5 78.1667 174.5 78.5C 151.5 100.833 128.833 123.5 106.5 146.5C 106.167 146.5 105.833 146.5 105.5 146.5C 103.833 146.5 102.167 146.5 100.5 146.5C 111.167 135.5 121.833 124.5 132.5 113.5C 138.833 106.833 145.167 100.167 151.5 93.5C 155.1 91.5698 158.1 88.9031 160.5 85.5C 163.833 82.8333 166.833 79.8333 169.5 76.5z" stroke="none" fill="#557881" fill-rule="nonzero" />
	</g>
	<g>
        <path d="M57.5 77.5C 61.5 80.8333 65.1667 84.5 68.5 88.5C 71.1275 107.893 74.1275 127.226 77.5 146.5C 75.8008 146.34 74.1341 146.506 72.5 147C 71.5291 148.481 70.1958 149.315 68.5 149.5C 64.67 125.527 61.0033 101.527 57.5 77.5z" stroke="none" fill="#567A81" fill-rule="nonzero" />
	</g>
	<g>
        <path d="M174.5 78.5C 175.167 80.1667 175.833 81.8333 176.5 83.5C 170.5 88.8333 164.833 94.5 159.5 100.5C 152.5 106.833 145.833 113.5 139.5 120.5C 128.5 131.167 117.5 141.833 106.5 152.5C 106.5 150.5 106.5 148.5 106.5 146.5C 128.833 123.5 151.5 100.833 174.5 78.5z" stroke="none" fill="#445D59" fill-rule="nonzero" />
	</g>
	<g>
        <path d="M68.5 88.5C 71.5113 91.6762 75.178 93.8428 79.5 95C 91.9596 97.8649 104.293 101.198 116.5 105C 122.305 107.067 127.638 109.901 132.5 113.5C 121.833 124.5 111.167 135.5 100.5 146.5C 92.8333 146.5 85.1667 146.5 77.5 146.5C 74.1275 127.226 71.1275 107.893 68.5 88.5z" stroke="none" fill="#ECBD04" fill-rule="nonzero" />
	</g>
	<g>
        <path d="M159.5 100.5C 169.743 113.674 175.577 128.674 177 145.5C 177.185 157.866 177.852 170.199 179 182.5C 182.001 188.512 186.167 193.678 191.5 198C 189.333 200.167 187.167 202.333 185 204.5C 181.938 201.268 178.771 198.268 175.5 195.5C 172.14 191.473 168.473 187.806 164.5 184.5C 162.5 182.329 160.666 179.996 159 177.5C 155.646 164.083 151.979 150.75 148 137.5C 145.681 131.528 142.847 125.861 139.5 120.5C 145.833 113.5 152.5 106.833 159.5 100.5z" stroke="none" fill="#B35F48" fill-rule="nonzero" />
	</g>
	<g>
        <path d="M139.5 120.5C 142.847 125.861 145.681 131.528 148 137.5C 151.979 150.75 155.646 164.083 159 177.5C 160.666 179.996 162.5 182.329 164.5 184.5C 145.139 181.718 125.806 178.718 106.5 175.5C 106.5 167.833 106.5 160.167 106.5 152.5C 117.5 141.833 128.5 131.167 139.5 120.5z" stroke="none" fill="#ECBD02" fill-rule="nonzero" />
	</g>
	<g>
        <path d="M77.5 146.5C 85.1667 146.5 92.8333 146.5 100.5 146.5C 102.167 146.5 103.833 146.5 105.5 146.5C 98.8333 153.5 92.1667 160.5 85.5 167.5C 85.1667 167.5 84.8333 167.5 84.5 167.5C 83.7456 165.554 82.4122 164.721 80.5 165C 75.6025 169.729 70.9359 174.562 66.5 179.5C 60.6849 176.663 54.6849 173.996 48.5 171.5C 55.5801 164.426 62.2467 157.092 68.5 149.5C 70.1958 149.315 71.5291 148.481 72.5 147C 74.1341 146.506 75.8008 146.34 77.5 146.5z" stroke="none" fill="#63D6A6" fill-rule="nonzero" />
	</g>
	<g>
        <path d="M105.5 146.5C 105.833 146.5 106.167 146.5 106.5 146.5C 106.5 148.5 106.5 150.5 106.5 152.5C 106.5 160.167 106.5 167.833 106.5 175.5C 106.657 176.873 106.49 178.207 106 179.5C 104.624 180.705 103.458 182.038 102.5 183.5C 95.1872 190.479 87.8539 197.479 80.5 204.5C 78.3356 197.997 76.0022 191.663 73.5 185.5C 78.1046 181.398 82.6046 177.064 87 172.5C 87.6128 170.505 87.1128 168.838 85.5 167.5C 92.1667 160.5 98.8333 153.5 105.5 146.5z" stroke="none" fill="#0EAB92" fill-rule="nonzero" />
	</g>
	<g>
        <path d="M84.5 167.5C 76.1667 176.167 67.8333 184.833 59.5 193.5C 57.0863 192.594 56.253 190.928 57 188.5C 60.0359 185.296 63.2026 182.296 66.5 179.5C 70.9359 174.562 75.6025 169.729 80.5 165C 82.4122 164.721 83.7456 165.554 84.5 167.5z" stroke="none" fill="#1EAD91" fill-rule="nonzero" />
	</g>
	<g>
        <path d="M84.5 167.5C 84.8333 167.5 85.1667 167.5 85.5 167.5C 87.1128 168.838 87.6128 170.505 87 172.5C 82.6046 177.064 78.1046 181.398 73.5 185.5C 70.1667 189.5 66.5 193.167 62.5 196.5C 61.1667 195.833 60.1667 194.833 59.5 193.5C 67.8333 184.833 76.1667 176.167 84.5 167.5z" stroke="none" fill="#079383" fill-rule="nonzero" />
	</g>
	<g>
        <path d="M106.5 175.5C 125.806 178.718 145.139 181.718 164.5 184.5C 168.473 187.806 172.14 191.473 175.5 195.5C 151.117 191.825 126.784 187.825 102.5 183.5C 103.458 182.038 104.624 180.705 106 179.5C 106.49 178.207 106.657 176.873 106.5 175.5z" stroke="none" fill="#425A57" fill-rule="nonzero" />
	</g>
</g>
</svg>