<?xml version="1.0" standalone="no"?>
<!DOCTYPE svg PUBLIC "-//W3C//DTD SVG 1.0//EN" "http://www.w3.org/TR/2001/REC-SVG-20010904/DTD/svg10.dtd">
<svg xmlns="http://www.w3.org/2000/svg" xmlns:xlink="http://www.w3.org/1999/xlink" id="body_1" width="36" height="36">

<g transform="matrix(0.140625 0 0 0.140625 0 0)">
	<g>
        <path d="M111.5 -0.5C 122.167 -0.5 132.833 -0.5 143.5 -0.5C 197.548 8.7041 233.382 39.3708 251 91.5C 252.715 98.2585 254.215 104.925 255.5 111.5C 255.5 115.833 255.5 120.167 255.5 124.5C 235.035 104.535 214.701 84.3683 194.5 64C 193.906 63.5357 193.239 63.369 192.5 63.5C 187.569 54.8607 180.235 49.3607 170.5 47C 151.836 46.5001 133.17 46.3334 114.5 46.5C 105.827 46.3336 97.1603 46.5002 88.5 47C 80 50.1667 74.1667 56 71 64.5C 70.5002 74.828 70.3335 85.1613 70.5 95.5C 67.1667 95.5 63.8333 95.5 60.5 95.5C 60.1697 115.007 60.503 134.341 61.5 153.5C 64.5 153.5 67.5 153.5 70.5 153.5C 70.5 158.5 70.5 163.5 70.5 168.5C 71.1798 184.201 77.8465 196.534 90.5 205.5C 90.369 206.239 90.5357 206.906 91 207.5C 107.035 223.368 122.868 239.368 138.5 255.5C 129.5 255.5 120.5 255.5 111.5 255.5C 57.4517 246.296 21.6184 215.629 4 163.5C 2.28494 156.741 0.784944 150.075 -0.5 143.5C -0.5 132.833 -0.5 122.167 -0.5 111.5C 8.7041 57.4517 39.3708 21.6184 91.5 4C 98.2585 2.28494 104.925 0.784944 111.5 -0.5z" stroke="none" fill="#FED92C" fill-rule="nonzero" fill-opacity="0.99215686" />
	</g>
	<g>
        <path d="M114.5 46.5C 114.5 56.1667 114.5 65.8333 114.5 75.5C 109.5 75.5 104.5 75.5 99.5 75.5C 99.5 82.1667 99.5 88.8333 99.5 95.5C 89.8333 95.5 80.1667 95.5 70.5 95.5C 70.3335 85.1613 70.5002 74.828 71 64.5C 74.1667 56 80 50.1667 88.5 47C 97.1603 46.5002 105.827 46.3336 114.5 46.5z" stroke="none" fill="#FE641A" fill-rule="nonzero" />
	</g>
	<g>
        <path d="M114.5 46.5C 133.17 46.3334 151.836 46.5001 170.5 47C 180.235 49.3607 187.569 54.8607 192.5 63.5C 196.754 72.4559 197.588 81.7892 195 91.5C 181.276 124.616 167.276 157.616 153 190.5C 144.195 204.79 131.362 212.123 114.5 212.5C 114.5 202.833 114.5 193.167 114.5 183.5C 122.61 182.229 127.777 177.562 130 169.5C 142.058 140.384 154.391 111.384 167 82.5C 167.972 79.7058 167.139 77.7058 164.5 76.5C 148.008 75.5035 131.342 75.1702 114.5 75.5C 114.5 65.8333 114.5 56.1667 114.5 46.5z" stroke="none" fill="#F03900" fill-rule="nonzero" />
	</g>
	<g>
        <path d="M192.5 63.5C 193.239 63.369 193.906 63.5357 194.5 64C 214.701 84.3683 235.035 104.535 255.5 124.5C 255.5 130.833 255.5 137.167 255.5 143.5C 246.296 197.548 215.629 233.382 163.5 251C 156.741 252.715 150.075 254.215 143.5 255.5C 141.833 255.5 140.167 255.5 138.5 255.5C 122.868 239.368 107.035 223.368 91 207.5C 90.5357 206.906 90.369 206.239 90.5 205.5C 97.6368 210.619 105.637 212.953 114.5 212.5C 131.362 212.123 144.195 204.79 153 190.5C 167.276 157.616 181.276 124.616 195 91.5C 197.588 81.7892 196.754 72.4559 192.5 63.5z" stroke="none" fill="#EEBF00" fill-rule="nonzero" />
	</g>
	<g>
        <path d="M114.5 75.5C 131.342 75.1702 148.008 75.5035 164.5 76.5C 143.167 76.5 121.833 76.5 100.5 76.5C 100.5 82.8333 100.5 89.1667 100.5 95.5C 100.167 95.5 99.8333 95.5 99.5 95.5C 99.5 88.8333 99.5 82.1667 99.5 75.5C 104.5 75.5 109.5 75.5 114.5 75.5z" stroke="none" fill="#F0A904" fill-rule="nonzero" />
	</g>
	<g>
        <path d="M164.5 76.5C 167.139 77.7058 167.972 79.7058 167 82.5C 154.391 111.384 142.058 140.384 130 169.5C 127.777 177.562 122.61 182.229 114.5 183.5C 105.515 182.515 100.515 177.515 99.5 168.5C 99.5 163.5 99.5 158.5 99.5 153.5C 102.833 153.5 106.167 153.5 109.5 153.5C 109.5 143.833 109.5 134.167 109.5 124.5C 109.5 114.833 109.5 105.167 109.5 95.5C 106.5 95.5 103.5 95.5 100.5 95.5C 100.5 89.1667 100.5 82.8333 100.5 76.5C 121.833 76.5 143.167 76.5 164.5 76.5z" stroke="none" fill="#EDBE00" fill-rule="nonzero" />
	</g>
	<g>
        <path d="M70.5 95.5C 80.1667 95.5 89.8333 95.5 99.5 95.5C 99.8333 95.5 100.167 95.5 100.5 95.5C 103.5 95.5 106.5 95.5 109.5 95.5C 109.5 105.167 109.5 114.833 109.5 124.5C 93.5 124.5 77.5 124.5 61.5 124.5C 61.5 134.167 61.5 143.833 61.5 153.5C 60.503 134.341 60.1697 115.007 60.5 95.5C 63.8333 95.5 67.1667 95.5 70.5 95.5z" stroke="none" fill="#C4D2DA" fill-rule="nonzero" />
	</g>
	<g>
        <path d="M109.5 124.5C 109.5 134.167 109.5 143.833 109.5 153.5C 106.167 153.5 102.833 153.5 99.5 153.5C 89.8333 153.5 80.1667 153.5 70.5 153.5C 67.5 153.5 64.5 153.5 61.5 153.5C 61.5 143.833 61.5 134.167 61.5 124.5C 77.5 124.5 93.5 124.5 109.5 124.5z" stroke="none" fill="#9FACB9" fill-rule="nonzero" />
	</g>
	<g>
        <path d="M70.5 153.5C 80.1667 153.5 89.8333 153.5 99.5 153.5C 99.5 158.5 99.5 163.5 99.5 168.5C 89.8333 168.5 80.1667 168.5 70.5 168.5C 70.5 163.5 70.5 158.5 70.5 153.5z" stroke="none" fill="#547A84" fill-rule="nonzero" />
	</g>
	<g>
        <path d="M70.5 168.5C 80.1667 168.5 89.8333 168.5 99.5 168.5C 100.515 177.515 105.515 182.515 114.5 183.5C 114.5 193.167 114.5 202.833 114.5 212.5C 105.637 212.953 97.6368 210.619 90.5 205.5C 77.8465 196.534 71.1798 184.201 70.5 168.5z" stroke="none" fill="#FD651A" fill-rule="nonzero" />
	</g>
</g>
</svg>